<svg width="395" height="214" viewBox="0 0 395 214" fill="none" xmlns="http://www.w3.org/2000/svg">
<g opacity="0.5">
<path d="M14.4513 210.845C43.8488 174.359 82.181 142.462 126.565 117.219C171.238 91.7475 221.675 72.7011 274.706 61.6863C304.392 55.4905 334.942 51.8189 365.493 51.1305C374.715 50.901 374.715 39.4272 365.493 39.6567C308.715 41.263 252.802 52.0483 200.636 70.1769C149.046 88.3054 101.491 114.236 61.4297 145.904C38.9493 163.803 19.0627 183.538 1.76998 204.879C-2.8414 211.304 9.55166 217.041 14.4513 210.845Z" fill="white"/>
<path d="M267.788 11.2944C309.579 15.545 349.929 29.1915 382.496 50.2204C383.649 47.0885 384.514 43.9565 385.667 40.8245C351.37 49.9967 318.802 62.972 289.692 79.5267C286.522 81.3164 285.081 84.4484 287.099 87.133C288.828 89.5938 293.727 90.9361 296.898 89.1464C325.142 73.2628 356.269 60.5112 389.414 51.5627C394.025 50.2204 397.195 45.075 392.584 42.1668C356.846 19.3481 313.614 4.80676 267.5 0.1088C263.753 -0.338625 260.295 3.01706 260.295 5.70161C260.583 9.0573 263.753 10.847 267.788 11.2944Z" fill="white"/>
</g>
</svg>
