<svg width="247" height="48" viewBox="0 0 247 48" fill="none" xmlns="http://www.w3.org/2000/svg">
<path d="M11.1872 24L5.59118 29.4209L0 24L5.59118 18.5791L11.1872 24ZM24.754 10.837L34.3355 20.1313L39.9267 14.7104L24.754 0L9.58143 14.7104L15.1726 20.1313L24.754 10.837ZM43.9217 18.5791L38.3306 24L43.9217 29.4209L49.5081 24L43.9217 18.5791ZM24.754 37.163L15.1726 27.8734L9.58143 33.2896L24.754 48L39.9267 33.2896L34.3355 27.8734L24.754 37.163ZM24.754 29.4209L30.3452 24L24.754 18.5791L19.1629 24L24.754 29.4209ZM83.7613 29.9414V29.8664C83.7613 26.3306 81.8267 24.5627 78.678 23.3998C80.6127 22.3447 82.2475 20.6893 82.2475 17.721V17.646C82.2475 13.51 78.8328 10.837 73.2851 10.837H60.6905V37.163H73.6043C79.7324 37.163 83.771 34.7573 83.771 29.9414H83.7613ZM76.3129 18.687C76.3129 20.6424 74.6442 21.4724 72.0082 21.4724H66.509V15.9156H72.4049C74.9248 15.9156 76.3225 16.891 76.3225 18.6213L76.3129 18.687ZM77.8267 29.2192C77.8267 31.1747 76.2355 32.075 73.5947 32.075H66.509V26.2931H73.4109C76.4773 26.2931 77.8364 27.3857 77.8364 29.1536L77.8267 29.2192ZM96.3125 37.163V10.837H90.3198V37.163H96.3125ZM128.423 37.163V10.837H122.508V27.0481L109.787 10.837H104.278V37.163H110.174V20.4267L123.32 37.163H128.423ZM161.511 37.163L149.854 10.6495H144.345L132.713 37.163H138.803L141.293 31.2591H152.776L155.257 37.163H161.511ZM150.652 26.143H143.417L147.025 17.6084L150.652 26.143ZM189.984 37.163V10.837H184.069V27.0481L171.344 10.837H165.84V37.163H171.731V20.4267L184.881 37.163H189.984ZM220.818 32.9144L217.021 29.1911C214.888 31.0668 212.987 32.272 209.882 32.272C205.229 32.272 202.008 28.5205 202.008 24V23.925C202.008 19.4138 205.307 15.728 209.882 15.728C212.596 15.728 214.719 16.8535 216.828 18.6964L220.615 14.4478C218.095 12.0422 215.033 10.3869 209.911 10.3869C201.573 10.3869 195.754 16.5158 195.754 23.9859V24.061C195.754 31.6202 201.689 37.5991 209.679 37.5991C214.907 37.6131 218.008 35.8077 220.799 32.9144H220.818ZM246.307 37.163V32.0047H231.546V26.4666H244.348V21.3083H231.546V15.9906H246.094V10.8324H225.611V37.1583L246.307 37.163Z" fill="#F0B90B"/>
</svg>
