<svg width="32" height="32" viewBox="0 0 32 32" fill="none" xmlns="http://www.w3.org/2000/svg">
<path d="M16 0C7.152 0 0 7.152 0 16C0 24.848 7.152 32 16 32C24.848 32 32 24.848 32 16C32 7.152 24.848 0 16 0ZM22.88 22.88C22.732 23.0283 22.5562 23.146 22.3626 23.2263C22.169 23.3066 21.9615 23.3479 21.752 23.3479C21.5425 23.3479 21.335 23.3066 21.1414 23.2263C20.9478 23.146 20.772 23.0283 20.624 22.88L16 18.256L11.376 22.88C11.0768 23.1792 10.6711 23.3472 10.248 23.3472C9.82492 23.3472 9.41916 23.1792 9.12 22.88C8.82084 22.5808 8.65277 22.1751 8.65277 21.752C8.65277 21.5425 8.69403 21.3351 8.7742 21.1415C8.85436 20.948 8.97187 20.7721 9.12 20.624L13.744 16L9.12 11.376C8.82084 11.0768 8.65277 10.6711 8.65277 10.248C8.65277 9.82492 8.82084 9.41916 9.12 9.12C9.41916 8.82084 9.82492 8.65277 10.248 8.65277C10.6711 8.65277 11.0768 8.82084 11.376 9.12L16 13.744L20.624 9.12C20.7721 8.97187 20.948 8.85436 21.1415 8.7742C21.3351 8.69403 21.5425 8.65277 21.752 8.65277C21.9615 8.65277 22.1689 8.69403 22.3625 8.7742C22.556 8.85436 22.7319 8.97187 22.88 9.12C23.0281 9.26813 23.1456 9.44399 23.2258 9.63753C23.306 9.83107 23.3472 10.0385 23.3472 10.248C23.3472 10.4575 23.306 10.6649 23.2258 10.8585C23.1456 11.052 23.0281 11.2279 22.88 11.376L18.256 16L22.88 20.624C23.488 21.232 23.488 22.256 22.88 22.88Z" fill="#949494"/>
</svg>
