<svg width="278" height="48" viewBox="0 0 278 48" fill="none" xmlns="http://www.w3.org/2000/svg">
<path d="M56.2327 13.4007C46.1645 13.4007 38.2977 20.8108 38.2977 30.7308C38.2977 40.6508 45.9658 47.9976 56.2327 47.9976C66.4996 47.9976 74.301 40.524 74.301 30.6674C74.301 20.8742 66.6329 13.4007 56.2327 13.4007ZM56.2981 40.846C50.5646 40.846 46.3633 36.5287 46.3633 30.7308C46.3633 24.8671 50.4967 20.5523 56.2302 20.5523C62.0316 20.5523 66.2304 24.933 66.2304 30.7308C66.2304 36.5287 62.0316 40.846 56.2981 40.846ZM76.4998 20.9377H81.5012V47.3536H89.5013V14.0446H76.4998V20.9377ZM18.1639 20.5523C22.3653 20.5523 25.6987 23.0646 26.9641 26.8014H35.4322C33.8976 18.8131 27.0975 13.4007 18.2319 13.4007C8.16372 13.4007 0.296875 20.8108 0.296875 30.7308C0.296875 40.6508 7.96497 47.9976 18.2319 47.9976C26.8987 47.9976 33.8322 42.5851 35.3668 34.531H26.9666C25.7666 38.2678 22.4332 40.846 18.2319 40.846C12.4305 40.846 8.36498 36.5287 8.36498 30.7308C8.36246 24.8696 12.3625 20.5523 18.1639 20.5523ZM228.508 27.5112L222.641 26.6745C219.841 26.2891 217.841 25.3867 217.841 23.2597C217.841 20.9401 220.443 19.7815 223.975 19.7815C227.841 19.7815 230.309 21.3913 230.843 24.0329H238.576C237.708 17.3326 232.375 13.4031 224.176 13.4031C215.708 13.4031 210.108 17.5911 210.108 23.5183C210.108 29.1868 213.776 32.4748 221.175 33.5041L227.041 34.3408C229.909 34.7262 231.509 35.8238 231.509 37.8849C231.509 40.5264 228.709 41.6216 224.843 41.6216C220.108 41.6216 217.441 39.7532 217.041 36.9189H209.174C209.909 43.4266 215.175 48 224.775 48C233.51 48 239.308 44.1339 239.308 37.497C239.308 31.5699 235.107 28.4771 228.508 27.5112ZM85.5013 0.321962C82.5679 0.321962 80.3666 2.38304 80.3666 5.21733C80.3666 8.05163 82.5653 10.1127 85.5013 10.1127C88.4346 10.1127 90.636 8.05163 90.636 5.21733C90.6334 2.38304 88.4346 0.321962 85.5013 0.321962ZM202.908 25.4476C202.908 18.2326 198.374 13.4007 188.774 13.4007C179.707 13.4007 174.64 17.8472 173.639 24.6769H181.574C181.974 22.0353 184.107 19.8449 188.641 19.8449C192.709 19.8449 194.709 21.584 194.709 23.711C194.709 26.4818 191.041 27.1892 186.507 27.6404C180.374 28.2844 172.774 30.3454 172.774 38.0775C172.774 44.0705 177.375 47.9341 184.708 47.9341C190.442 47.9341 194.042 45.6145 195.843 41.9412C196.11 45.2267 198.643 47.3536 202.178 47.3536H206.845V40.4606H202.91V25.4476H202.908ZM195.038 33.8237C195.038 38.2702 191.038 41.5558 186.17 41.5558C183.169 41.5558 180.635 40.3313 180.635 37.7556C180.635 34.47 184.703 33.5676 188.437 33.1822C192.037 32.8602 194.037 32.087 195.038 30.604V33.8237ZM152.569 13.4007C148.101 13.4007 144.368 15.2057 141.701 18.2326V0H133.701V47.3561H141.568V42.9754C144.235 46.1316 148.036 48 152.569 48C162.17 48 169.438 40.6557 169.438 30.7333C169.438 20.8108 162.039 13.4007 152.569 13.4007ZM151.369 40.846C145.636 40.846 141.435 36.5287 141.435 30.7308C141.435 24.933 145.701 20.5523 151.435 20.5523C157.236 20.5523 161.302 24.8696 161.302 30.7308C161.304 36.5311 157.103 40.846 151.369 40.846ZM114.569 13.4007C109.368 13.4007 105.967 15.4618 103.967 18.3619V14.0446H96.0323V47.3536H104.032V29.2503C104.032 24.1598 107.366 20.5523 112.299 20.5523C116.901 20.5523 119.766 23.7085 119.766 28.2844V47.3561H127.766V27.7063C127.769 19.3278 123.303 13.4007 114.569 13.4007ZM277.443 29.6357C277.443 20.101 270.242 13.4007 260.574 13.4007C250.307 13.4007 242.773 20.8742 242.773 30.7308C242.773 41.1045 250.841 47.9976 260.708 47.9976C269.042 47.9976 275.576 43.229 277.241 36.4653H268.907C267.706 39.4288 264.773 41.1045 260.838 41.1045C255.704 41.1045 251.837 38.0117 250.972 32.5992H277.44V29.6357H277.443ZM251.442 27.0599C252.71 22.4206 256.31 20.1669 260.443 20.1669C264.977 20.1669 268.444 22.6792 269.244 27.0599H251.442Z" fill="#0052FF"/>
</svg>
