<svg width="16" height="16" viewBox="0 0 16 16" fill="none" xmlns="http://www.w3.org/2000/svg">
<path fill-rule="evenodd" clip-rule="evenodd" d="M12.2814 4.53239C12.3349 4.47901 12.3773 4.41562 12.4062 4.34585C12.4352 4.27608 12.4501 4.20128 12.4501 4.12574C12.4502 4.0502 12.4354 3.97539 12.4065 3.90558C12.3776 3.83578 12.3353 3.77234 12.2819 3.71889C12.2285 3.66544 12.1651 3.62303 12.0954 3.59408C12.0256 3.56513 11.9508 3.5502 11.8753 3.55016C11.7997 3.55011 11.7249 3.56494 11.6551 3.59381C11.5853 3.62268 11.5219 3.66501 11.4684 3.71839L7.99941 7.18739L4.53141 3.71839C4.42347 3.61045 4.27707 3.5498 4.12441 3.5498C3.97176 3.5498 3.82536 3.61045 3.71741 3.71839C3.60947 3.82633 3.54883 3.97273 3.54883 4.12539C3.54883 4.27804 3.60947 4.42445 3.71741 4.53239L7.18641 8.00039L3.71741 11.4684C3.66396 11.5218 3.62157 11.5853 3.59264 11.6551C3.56372 11.725 3.54883 11.7998 3.54883 11.8754C3.54883 11.951 3.56372 12.0258 3.59264 12.0957C3.62157 12.1655 3.66396 12.2289 3.71741 12.2824C3.82536 12.3903 3.97176 12.451 4.12441 12.451C4.2 12.451 4.27485 12.4361 4.34468 12.4072C4.41451 12.3782 4.47797 12.3358 4.53141 12.2824L7.99941 8.81339L11.4684 12.2824C11.5764 12.3902 11.7227 12.4507 11.8753 12.4506C12.0278 12.4505 12.1741 12.3898 12.2819 12.2819C12.3897 12.1739 12.4502 12.0276 12.4501 11.875C12.4501 11.7225 12.3894 11.5762 12.2814 11.4684L8.81241 8.00039L12.2814 4.53239Z" fill="#0D16FF"/>
</svg>
