<svg width="59" height="59" viewBox="0 0 59 59" fill="none" xmlns="http://www.w3.org/2000/svg">
<g clip-path="url(#clip0_2526_1364)">
<mask id="mask0_2526_1364" style="mask-type:alpha" maskUnits="userSpaceOnUse" x="0" y="0" width="59" height="59">
<path d="M59 0H0V59H59V0Z" fill="#D9D9D9"/>
</mask>
<g mask="url(#mask0_2526_1364)">
<path d="M7.11672 36.8577L13.2875 33.6106C13.5039 33.4976 13.638 33.2743 13.638 33.0253V25.961V25.9276C13.638 25.9071 13.638 25.8891 13.6303 25.8686C13.6225 25.8018 13.6045 25.7377 13.5788 25.6786C13.5788 25.6709 13.5788 25.6581 13.571 25.653L13.5632 25.6402C13.5246 25.5734 13.4782 25.5144 13.4189 25.4631C13.406 25.4502 13.3854 25.4425 13.3725 25.4296C13.3467 25.4091 13.3261 25.3912 13.3004 25.3783L7.1296 22.1311C6.93886 22.0336 6.70688 22.0336 6.5084 22.1311L0.337666 25.3783C0.337666 25.3783 0.286115 25.4116 0.26549 25.4296C0.252603 25.4425 0.231982 25.4502 0.219095 25.4631C0.15981 25.5144 0.113412 25.576 0.0747503 25.6402L0.0670172 25.653C0.0670172 25.6607 0.0670174 25.6735 0.0592845 25.6786C0.0335091 25.7377 0.0128885 25.8044 0.00773303 25.8686C0.00773303 25.8891 0 25.9071 0 25.9276V25.961V33.0253C0 33.2692 0.139191 33.4925 0.350549 33.6106L6.52128 36.8577C6.52128 36.8577 6.5419 36.8655 6.55479 36.8706C6.56768 36.8783 6.5883 36.8834 6.60119 36.8912C6.67336 36.9168 6.75327 36.9374 6.83317 36.9374C6.91307 36.9374 6.98525 36.9168 7.06515 36.8912C7.07803 36.8912 7.09865 36.8783 7.11155 36.8706C7.12443 36.8706 7.13217 36.863 7.14506 36.8577H7.11672ZM7.46727 35.1816V29.6086L12.3183 27.0596V32.6326L7.46727 35.1816ZM6.8074 23.466L11.5656 25.9688L6.8074 28.4716L2.04923 25.9688L6.8074 23.466ZM1.29653 27.0598L6.14754 29.6088V35.1816L1.29653 32.6327V27.0598Z" fill="white" stroke="white" stroke-width="0.5"/>
<path d="M58.5677 25.9301C58.5677 25.9301 58.5677 25.8916 58.56 25.8711C58.5522 25.8044 58.5342 25.7402 58.5084 25.6812C58.5084 25.6734 58.5084 25.6606 58.5007 25.6555L58.4929 25.6426C58.4543 25.5759 58.4078 25.5168 58.3486 25.4655C58.3357 25.4526 58.3151 25.445 58.3022 25.4322C58.2765 25.4116 58.2558 25.3936 58.2301 25.3808L52.0592 22.1336C51.8686 22.036 51.6366 22.036 51.4381 22.1336L45.2674 25.3808C45.2674 25.3808 45.221 25.4142 45.1952 25.4322C45.1823 25.445 45.1617 25.4526 45.1488 25.4655C45.0895 25.5168 45.0431 25.5785 45.0044 25.6426L44.9968 25.6555C44.9968 25.6632 44.9968 25.676 44.989 25.6812C44.9632 25.7402 44.9426 25.8069 44.9375 25.8711C44.9375 25.8916 44.9297 25.9096 44.9297 25.9301V25.9635V33.0278C44.9297 33.2716 45.0689 33.495 45.2802 33.613L51.451 36.8603C51.451 36.8603 51.4716 36.868 51.4845 36.8731C51.4974 36.8808 51.518 36.8859 51.5309 36.8936C51.6031 36.9193 51.6829 36.9398 51.7629 36.9398C51.8428 36.9398 51.9149 36.9193 51.9948 36.8936C52.0077 36.8936 52.0284 36.8808 52.0413 36.8731C52.0541 36.8731 52.0619 36.8654 52.0748 36.8603L58.2455 33.613C58.462 33.5001 58.5961 33.2768 58.5961 33.0278V25.9635V25.9301H58.5677ZM51.7368 23.4658L56.495 25.9687L51.7368 28.4715L46.9787 25.9687L51.7368 23.4658ZM46.2259 27.0596L51.077 29.6086V35.1815L46.2259 32.6325V27.0596ZM52.3967 35.1812V29.6084L57.2477 27.0594V32.6322L52.3967 35.1812Z" fill="white" stroke="white" stroke-width="0.5"/>
<path d="M36.099 25.8762C36.0913 25.8043 36.0733 25.7376 36.0397 25.6735V25.6529V25.6451C36.0011 25.5732 35.9469 25.5066 35.8876 25.4552C35.8799 25.4552 35.8747 25.4424 35.8618 25.4347C35.8283 25.409 35.8026 25.3885 35.7691 25.3679L29.5983 22.1208C29.4076 22.0232 29.1757 22.0232 28.9771 22.1208L22.8064 25.3679C22.7729 25.3885 22.7471 25.4141 22.7136 25.4347C22.7059 25.4347 22.7007 25.4475 22.6878 25.4552C22.6209 25.5066 22.5745 25.5732 22.5358 25.6451V25.6529V25.6735C22.5023 25.7401 22.4842 25.8043 22.4765 25.8762C22.4765 25.8968 22.4765 25.9096 22.4688 25.9275V25.9609V33.0251C22.4688 33.269 22.608 33.4924 22.8193 33.6104L28.99 36.8577C28.99 36.8577 29.0029 36.8577 29.0158 36.8654C29.0415 36.8782 29.0622 36.8859 29.088 36.891C29.1473 36.9116 29.2066 36.9245 29.2658 36.9296H29.2994H29.3329C29.3921 36.9296 29.4514 36.9167 29.5107 36.891C29.5365 36.8834 29.5571 36.8782 29.5829 36.8654C29.5906 36.8654 29.5958 36.8654 29.6086 36.8577L35.7794 33.6104C35.9959 33.4975 36.1299 33.2742 36.1299 33.0251V25.9609V25.9275C36.1299 25.907 36.1299 25.8942 36.1222 25.8762H36.099ZM29.2761 23.4581L34.0342 25.9609L29.2761 28.4637L24.5179 25.9609L29.2761 23.4581ZM23.7601 27.0596L28.611 29.6086V35.1815L23.7601 32.6325V27.0596ZM29.9359 35.1812V29.6083L34.787 27.0594V32.6322L29.9359 35.1812Z" fill="white" stroke="white" stroke-width="0.5"/>
<path d="M36.0911 3.81065C36.0834 3.74391 36.0654 3.67974 36.0396 3.6207C36.0396 3.613 36.0396 3.60016 36.0318 3.59503L36.0242 3.58219C35.9855 3.51546 35.9391 3.45642 35.8798 3.40508C35.8669 3.39224 35.8463 3.38454 35.8334 3.3717C35.8076 3.35117 35.787 3.33321 35.7612 3.32036L29.5905 0.0731597C29.3997 -0.0243866 29.1678 -0.0243866 28.9693 0.0731597L22.7985 3.32036C22.7985 3.32036 22.747 3.35374 22.7263 3.3717C22.7135 3.38454 22.6929 3.39224 22.68 3.40508C22.6207 3.45642 22.5743 3.51802 22.5357 3.58219L22.5279 3.59503C22.5279 3.60274 22.5279 3.61557 22.5201 3.6207C22.4944 3.67974 22.4738 3.74648 22.4686 3.81065C22.4686 3.83119 22.4609 3.84916 22.4609 3.86969V3.90307V10.9673C22.4609 11.2112 22.6001 11.4346 22.8114 11.5526L28.9822 14.7999C28.9822 14.7999 29.0028 14.8075 29.0156 14.8126C29.0285 14.8204 29.0492 14.8255 29.0621 14.8332C29.1342 14.8589 29.2142 14.8794 29.294 14.8794C29.374 14.8794 29.4461 14.8589 29.526 14.8332C29.539 14.8332 29.5595 14.8204 29.5724 14.8126C29.5853 14.8126 29.5931 14.805 29.6059 14.7999L35.7766 11.5526C35.9932 11.4397 36.1272 11.2164 36.1272 10.9673V3.90307V3.86969C36.1272 3.84916 36.1272 3.83119 36.1195 3.81065H36.0911ZM29.2761 1.39769L34.0343 3.90049L29.2761 6.40328L24.518 3.90049L29.2761 1.39769ZM23.7601 4.99404L28.6111 7.54303V13.1159L23.7601 10.5669V4.99404ZM29.9359 13.1209V7.54803L34.787 4.99903V10.5719L29.9359 13.1209Z" fill="white" stroke="white" stroke-width="0.5"/>
<path d="M36.0911 47.9313C36.0834 47.8645 36.0654 47.8003 36.0396 47.7413C36.0396 47.7336 36.0396 47.7208 36.0318 47.7157L36.0242 47.7028C35.9855 47.636 35.9391 47.577 35.8798 47.5257C35.8669 47.5128 35.8463 47.5051 35.8334 47.4924C35.8076 47.4718 35.787 47.4538 35.7612 47.441L29.5905 44.1938C29.3997 44.0962 29.1678 44.0962 28.9693 44.1938L22.7985 47.441C22.7985 47.441 22.747 47.4744 22.7263 47.4924C22.7135 47.5051 22.6929 47.5128 22.68 47.5257C22.6207 47.577 22.5743 47.6387 22.5357 47.7028L22.5279 47.7157C22.5279 47.7233 22.5279 47.7362 22.5201 47.7413C22.4944 47.8003 22.4738 47.8671 22.4686 47.9313C22.4686 47.9518 22.4609 47.9698 22.4609 47.9903V48.0237V55.088C22.4609 55.3318 22.6001 55.5552 22.8114 55.6732L28.9822 58.9205C28.9822 58.9205 29.0028 58.9281 29.0156 58.9332C29.0285 58.941 29.0492 58.9461 29.0621 58.9538C29.1342 58.9795 29.2142 59 29.294 59C29.374 59 29.4461 58.9795 29.526 58.9538C29.539 58.9538 29.5595 58.941 29.5724 58.9332C29.5853 58.9332 29.5931 58.9256 29.6059 58.9205L35.7766 55.6732C35.9932 55.5603 36.1272 55.337 36.1272 55.088V48.0237V47.9903C36.1272 47.9698 36.1272 47.9518 36.1195 47.9313H36.0911ZM29.2761 45.5183L34.0343 48.0211L29.2761 50.5239L24.518 48.0211L29.2761 45.5183ZM23.7601 49.1121L28.6111 51.6611V57.2339L23.7601 54.685V49.1121ZM29.9359 57.2416V51.6687L34.787 49.1197V54.6926L29.9359 57.2416Z" fill="white" stroke="white" stroke-width="0.5"/>
<path d="M10.2328 19.266C10.3385 19.3251 10.4494 19.3584 10.5627 19.3584C10.7947 19.3584 11.0112 19.2403 11.1375 19.0299C13.0037 15.8161 15.723 13.149 18.9839 11.3163C19.3009 11.1392 19.4118 10.7387 19.234 10.4153C19.0561 10.0996 18.654 9.98922 18.3292 10.1663C14.8649 12.112 11.9806 14.9511 9.98789 18.3674C9.80236 18.6832 9.91572 19.0836 10.2328 19.2684V19.266Z" fill="white" stroke="white" stroke-width="0.5"/>
<path d="M48.5685 39.2425C48.2464 39.0654 47.8494 39.1835 47.6715 39.5044C45.8363 42.8363 43.1247 45.6086 39.8384 47.5288C39.5213 47.7136 39.4157 48.1141 39.6012 48.4298C39.7275 48.6402 39.944 48.7583 40.176 48.7583C40.2895 48.7583 40.408 48.7327 40.5137 48.6659C44.0115 46.6278 46.888 43.6783 48.8338 40.1362C49.0117 39.8153 48.8931 39.4124 48.5709 39.2429L48.5685 39.2425Z" fill="white" stroke="white" stroke-width="0.5"/>
<path d="M18.7054 47.5284C15.4189 45.6083 12.7073 42.8359 10.8721 39.504C10.6943 39.1883 10.2974 39.0702 9.97514 39.2422C9.65809 39.4193 9.53952 39.8198 9.71222 40.1355C11.666 43.6702 14.5426 46.6223 18.0324 48.6652C18.1381 48.7242 18.2489 48.7576 18.3701 48.7576C18.5943 48.7576 18.8186 48.6396 18.9448 48.429C19.1305 48.1133 19.0248 47.7129 18.7077 47.528L18.7054 47.5284Z" fill="white" stroke="white" stroke-width="0.5"/>
<path d="M39.5635 11.3139C42.824 13.1415 45.5357 15.8086 47.4098 19.0275C47.5362 19.2379 47.7527 19.356 47.9847 19.356C48.098 19.356 48.2089 19.3303 48.3146 19.2636C48.6316 19.0788 48.7373 18.6783 48.5594 18.3625C46.567 14.9383 43.6827 12.0992 40.2181 10.1614C39.9011 9.98434 39.499 10.0947 39.3211 10.4104C39.1432 10.7262 39.2541 11.1266 39.5712 11.3038L39.5635 11.3139Z" fill="white" stroke="white" stroke-width="0.5"/>
<path d="M20.5042 28.8334H15.5681C15.2047 28.8334 14.9082 29.1286 14.9082 29.4904C14.9082 29.8524 15.2047 30.1476 15.5681 30.1476H20.5042C20.8676 30.1476 21.1641 29.8524 21.1641 29.4904C21.1641 29.1286 20.8676 28.8334 20.5042 28.8334Z" fill="white" stroke="white" stroke-width="0.5"/>
<path d="M43.6337 29.4985C43.6337 29.1365 43.3373 28.8413 42.9739 28.8413H38.0378C37.6744 28.8413 37.3779 29.1365 37.3779 29.4985C37.3779 29.8603 37.6744 30.1555 38.0378 30.1555H42.9739C43.3373 30.1555 43.6337 29.8603 43.6337 29.4985Z" fill="white" stroke="white" stroke-width="0.5"/>
<path d="M29.9358 20.922V16.0062C29.9358 15.6443 29.6395 15.3491 29.276 15.3491C28.9126 15.3491 28.6162 15.6443 28.6162 16.0062V20.922C28.6162 21.2839 28.9126 21.5791 29.276 21.5791C29.6395 21.5791 29.9358 21.2839 29.9358 20.922Z" fill="white" stroke="white" stroke-width="0.5"/>
<path d="M29.9358 42.9823V38.0665C29.9358 37.7046 29.6395 37.4094 29.276 37.4094C28.9126 37.4094 28.6162 37.7046 28.6162 38.0665V42.9823C28.6162 43.3442 28.9126 43.6394 29.276 43.6394C29.6395 43.6394 29.9358 43.3442 29.9358 42.9823Z" fill="white" stroke="white" stroke-width="0.5"/>
</g>
</g>
<defs>
<clipPath id="clip0_2526_1364">
<rect width="59" height="59" fill="white"/>
</clipPath>
</defs>
</svg>
