<svg width="23" height="23" viewBox="0 0 23 23" fill="none" xmlns="http://www.w3.org/2000/svg">
<path d="M12.2058 18.1301L17.3271 21.3818C17.9876 21.7984 18.8005 21.1785 18.6075 20.4164L17.1239 14.5837C17.0838 14.4221 17.0902 14.2524 17.1423 14.0942C17.1944 13.9359 17.2902 13.7957 17.4186 13.6895L22.0116 9.85867C22.6111 9.36076 22.3062 8.35477 21.5238 8.30397L15.5286 7.91783C15.365 7.90831 15.2077 7.85135 15.076 7.75391C14.9442 7.65646 14.8437 7.52275 14.7868 7.36911L12.5512 1.73967C12.4921 1.57698 12.3843 1.43645 12.2425 1.33714C12.1007 1.23784 11.9318 1.18457 11.7586 1.18457C11.5855 1.18457 11.4166 1.23784 11.2748 1.33714C11.133 1.43645 11.0252 1.57698 10.9661 1.73967L8.73053 7.36911C8.67356 7.52275 8.57306 7.65646 8.44133 7.75391C8.3096 7.85135 8.15233 7.90831 7.98875 7.91783L1.99349 8.30397C1.21105 8.35477 0.90621 9.36076 1.50574 9.85867L6.09872 13.6895C6.22709 13.7957 6.32286 13.9359 6.375 14.0942C6.42714 14.2524 6.43351 14.4221 6.3934 14.5837L5.0216 19.9896C4.78789 20.9042 5.76339 21.646 6.54582 21.1481L11.3115 18.1301C11.4452 18.0451 11.6003 18 11.7586 18C11.917 18 12.0721 18.0451 12.2058 18.1301Z" stroke="#FFA43C" stroke-width="1.23332" stroke-linecap="round" stroke-linejoin="round"/>
</svg>
