<svg width="58" height="58" viewBox="0 0 58 58" fill="none" xmlns="http://www.w3.org/2000/svg">
<path d="M29 26.1C32.8456 26.1 36.5338 27.6277 39.253 30.347C41.9723 33.0662 43.5 36.7544 43.5 40.6V58H37.7V40.6C37.7001 38.3809 36.8523 36.2456 35.3299 34.631C33.8075 33.0165 31.7257 32.0447 29.5104 31.9145L29 31.9C26.7809 31.8999 24.6456 32.7477 23.031 34.2701C21.4165 35.7925 20.4447 37.8743 20.3145 40.0896L20.3 40.6V58H14.5V40.6C14.5 36.7544 16.0277 33.0662 18.747 30.347C21.4662 27.6277 25.1544 26.1 29 26.1ZM10.15 34.8C10.962 34.8019 11.745 34.8928 12.499 35.0726C12.005 36.5492 11.7114 38.0854 11.6261 39.6401L11.6 40.6V40.8494C11.2666 40.7303 10.9199 40.6524 10.5676 40.6174L10.15 40.6C9.06909 40.6 8.0269 41.0024 7.22649 41.7288C6.42608 42.4552 5.92479 43.4537 5.8203 44.5295L5.8 44.95V58H0V44.95C0 42.2581 1.06937 39.6764 2.97287 37.7729C4.87636 35.8694 7.45805 34.8 10.15 34.8ZM47.85 34.8C50.542 34.8 53.1236 35.8694 55.0271 37.7729C56.9306 39.6764 58 42.2581 58 44.95V58H52.2V44.95C52.2 43.8691 51.7976 42.8269 51.0712 42.0265C50.3448 41.2261 49.3463 40.7248 48.2705 40.6203L47.85 40.6C47.3396 40.6019 46.8563 40.6841 46.4 40.8465V40.6C46.4 38.6686 46.0868 36.8126 45.5068 35.0784C46.255 34.8957 47.0438 34.8 47.85 34.8ZM10.15 17.4C12.0728 17.4 13.9169 18.1638 15.2765 19.5235C16.6362 20.8831 17.4 22.7272 17.4 24.65C17.4 26.5728 16.6362 28.4169 15.2765 29.7765C13.9169 31.1362 12.0728 31.9 10.15 31.9C8.22718 31.9 6.38311 31.1362 5.02348 29.7765C3.66384 28.4169 2.9 26.5728 2.9 24.65C2.9 22.7272 3.66384 20.8831 5.02348 19.5235C6.38311 18.1638 8.22718 17.4 10.15 17.4ZM47.85 17.4C49.7728 17.4 51.6169 18.1638 52.9765 19.5235C54.3362 20.8831 55.1 22.7272 55.1 24.65C55.1 26.5728 54.3362 28.4169 52.9765 29.7765C51.6169 31.1362 49.7728 31.9 47.85 31.9C45.9272 31.9 44.0831 31.1362 42.7235 29.7765C41.3638 28.4169 40.6 26.5728 40.6 24.65C40.6 22.7272 41.3638 20.8831 42.7235 19.5235C44.0831 18.1638 45.9272 17.4 47.85 17.4ZM10.15 23.2C9.76544 23.2 9.39662 23.3528 9.1247 23.6247C8.85277 23.8966 8.7 24.2654 8.7 24.65C8.7 25.0346 8.85277 25.4034 9.1247 25.6753C9.39662 25.9472 9.76544 26.1 10.15 26.1C10.5346 26.1 10.9034 25.9472 11.1753 25.6753C11.4472 25.4034 11.6 25.0346 11.6 24.65C11.6 24.2654 11.4472 23.8966 11.1753 23.6247C10.9034 23.3528 10.5346 23.2 10.15 23.2ZM47.85 23.2C47.4654 23.2 47.0966 23.3528 46.8247 23.6247C46.5528 23.8966 46.4 24.2654 46.4 24.65C46.4 25.0346 46.5528 25.4034 46.8247 25.6753C47.0966 25.9472 47.4654 26.1 47.85 26.1C48.2346 26.1 48.6034 25.9472 48.8753 25.6753C49.1472 25.4034 49.3 25.0346 49.3 24.65C49.3 24.2654 49.1472 23.8966 48.8753 23.6247C48.6034 23.3528 48.2346 23.2 47.85 23.2ZM29 0C32.0765 0 35.027 1.22214 37.2024 3.39756C39.3779 5.57298 40.6 8.52349 40.6 11.6C40.6 14.6765 39.3779 17.627 37.2024 19.8024C35.027 21.9779 32.0765 23.2 29 23.2C25.9235 23.2 22.973 21.9779 20.7976 19.8024C18.6221 17.627 17.4 14.6765 17.4 11.6C17.4 8.52349 18.6221 5.57298 20.7976 3.39756C22.973 1.22214 25.9235 0 29 0ZM29 5.8C27.4617 5.8 25.9865 6.41107 24.8988 7.49878C23.8111 8.58649 23.2 10.0617 23.2 11.6C23.2 13.1383 23.8111 14.6135 24.8988 15.7012C25.9865 16.7889 27.4617 17.4 29 17.4C30.5383 17.4 32.0135 16.7889 33.1012 15.7012C34.1889 14.6135 34.8 13.1383 34.8 11.6C34.8 10.0617 34.1889 8.58649 33.1012 7.49878C32.0135 6.41107 30.5383 5.8 29 5.8Z" fill="white"/>
</svg>
