<svg width="60" height="60" viewBox="0 0 60 60" fill="none" xmlns="http://www.w3.org/2000/svg">
<path d="M6.5625 0H53.4375C57.06 0 60 2.94 60 6.5625V53.4375C60 55.178 59.3086 56.8472 58.0779 58.0779C56.8472 59.3086 55.178 60 53.4375 60H6.5625C4.82202 60 3.15282 59.3086 1.92211 58.0779C0.691404 56.8472 0 55.178 0 53.4375L0 6.5625C0 2.94 2.94 0 6.5625 0ZM5.625 6.5625V53.4375C5.625 53.955 6.045 54.375 6.5625 54.375H53.4375C53.6861 54.375 53.9246 54.2762 54.1004 54.1004C54.2762 53.9246 54.375 53.6861 54.375 53.4375V6.5625C54.375 6.31386 54.2762 6.0754 54.1004 5.89959C53.9246 5.72377 53.6861 5.625 53.4375 5.625H6.5625C6.31386 5.625 6.0754 5.72377 5.89959 5.89959C5.72377 6.0754 5.625 6.31386 5.625 6.5625ZM44.0625 11.25C44.8084 11.25 45.5238 11.5463 46.0512 12.0738C46.5787 12.6012 46.875 13.3166 46.875 14.0625V42.1875C46.875 42.9334 46.5787 43.6488 46.0512 44.1762C45.5238 44.7037 44.8084 45 44.0625 45C43.3166 45 42.6012 44.7037 42.0738 44.1762C41.5463 43.6488 41.25 42.9334 41.25 42.1875V14.0625C41.25 13.3166 41.5463 12.6012 42.0738 12.0738C42.6012 11.5463 43.3166 11.25 44.0625 11.25ZM13.125 14.0625C13.125 13.3166 13.4213 12.6012 13.9488 12.0738C14.4762 11.5463 15.1916 11.25 15.9375 11.25C16.6834 11.25 17.3988 11.5463 17.9262 12.0738C18.4537 12.6012 18.75 13.3166 18.75 14.0625V34.6875C18.75 35.4334 18.4537 36.1488 17.9262 36.6762C17.3988 37.2037 16.6834 37.5 15.9375 37.5C15.1916 37.5 14.4762 37.2037 13.9488 36.6762C13.4213 36.1488 13.125 35.4334 13.125 34.6875V14.0625ZM30 11.25C30.7459 11.25 31.4613 11.5463 31.9887 12.0738C32.5162 12.6012 32.8125 13.3166 32.8125 14.0625V27.1875C32.8125 27.9334 32.5162 28.6488 31.9887 29.1762C31.4613 29.7037 30.7459 30 30 30C29.2541 30 28.5387 29.7037 28.0113 29.1762C27.4838 28.6488 27.1875 27.9334 27.1875 27.1875V14.0625C27.1875 13.3166 27.4838 12.6012 28.0113 12.0738C28.5387 11.5463 29.2541 11.25 30 11.25Z" fill="white"/>
</svg>
