<svg width="65" height="68" viewBox="0 0 65 68" fill="none" xmlns="http://www.w3.org/2000/svg">
<path d="M42.3608 65.1078V61.9744C42.3738 61.1548 42.7082 60.373 43.2919 59.7974C43.8756 59.2219 44.662 58.8985 45.4817 58.897H45.7146C50.1615 58.8597 53.9812 55.773 54.8879 51.4813L54.919 51.3198L56.5338 43.37L59.4529 41.9291C61.0211 41.159 61.8005 40.7708 61.9682 40.0659C62.139 39.3579 61.6142 38.6685 60.5677 37.2866L54.6426 29.4983C54.0526 28.7219 53.7576 28.3369 53.6023 27.927C53.447 27.517 53.3942 26.9332 53.298 25.7749C52.2297 13.0211 41.3981 3 28.1909 3C14.2788 3 3 14.1235 3 27.8431C3 36.3829 7.36928 43.9135 14.0241 48.3852M14.0241 48.3852V65.1078M14.0241 48.3852C15.9671 49.6989 18.0864 50.7309 20.3187 51.4503" stroke="white" stroke-width="4.65808" stroke-linecap="round" stroke-linejoin="round"/>
<path d="M38.7122 24.7377L41.5692 27.2003C42.7709 28.2344 43.3703 28.753 43.3703 29.3958C43.3703 30.0386 42.7709 30.5572 41.5692 31.5913L38.7122 34.0539M16.9745 24.7377L14.1175 27.2003C12.9157 28.2344 12.3164 28.753 12.3164 29.3958C12.3164 30.0386 12.9157 30.5572 14.1175 31.5913L16.9745 34.0539M30.9487 21.6323L24.738 37.1593" stroke="white" stroke-width="4.65808" stroke-linecap="round" stroke-linejoin="round"/>
</svg>
