<svg width="43" height="43" viewBox="0 0 43 43" fill="none" xmlns="http://www.w3.org/2000/svg">
<path d="M21.4993 41.0832C21.9772 41.0832 22.4217 40.8619 23.3128 40.4173L30.4607 36.859C33.6273 35.2865 35.2077 34.4973 35.2077 33.2498V17.5832M21.4993 41.0832C21.0215 41.0832 20.577 40.8619 19.6859 40.4173L12.538 36.859C9.37139 35.2865 7.79102 34.4973 7.79102 33.2498V17.5832M21.4993 41.0832V25.4165M35.2077 17.5832C35.2077 16.3357 33.6253 15.5485 30.4626 13.974L23.3128 10.4137C22.4198 9.97113 21.9772 9.74984 21.4993 9.74984M35.2077 17.5832C35.2077 18.8306 33.6253 19.6179 30.4626 21.1924L23.3128 24.7526C22.4217 25.1952 21.9772 25.4165 21.4993 25.4165M7.79102 17.5832C7.79102 16.3357 9.37139 15.5465 12.538 13.974L19.6859 10.4157C20.577 9.97113 21.0215 9.74984 21.4993 9.74984M7.79102 17.5832C7.79102 18.8306 9.37335 19.6179 12.5361 21.1924L19.6859 24.7526C20.577 25.1952 21.0215 25.4165 21.4993 25.4165M21.4993 9.74984V1.9165M41.0827 39.1248L35.2077 34.229M1.91602 39.1248L7.79102 34.229" stroke="white" stroke-width="2.9375" stroke-linecap="round" stroke-linejoin="round"/>
</svg>
