<svg width="32" height="44" viewBox="0 0 32 44" fill="none" xmlns="http://www.w3.org/2000/svg">
<path d="M31.9296 7.83497C31.9329 7.8677 31.9346 7.90085 31.9346 7.93408V42.844C31.9346 43.3916 31.4904 43.8356 30.9428 43.8356H0.991759C0.444013 43.8356 0 43.3916 0 42.844V0.991652C0 0.444005 0.444013 0 0.991759 0H24.0005C24.0337 0 24.0667 0.00174925 24.0997 0.00492295C24.1237 0.00730322 24.1472 0.0113474 24.1707 0.015411C24.179 0.0169014 24.1875 0.017576 24.1959 0.0192637C24.2242 0.0249141 24.252 0.0324231 24.2795 0.0404538C24.2829 0.0414445 24.2862 0.0420316 24.2896 0.0430223C24.3175 0.0515527 24.3447 0.061536 24.3715 0.0723459C24.3745 0.0736347 24.3777 0.0744818 24.3807 0.0757705C24.406 0.0862867 24.4305 0.0981661 24.4546 0.110659C24.4592 0.11304 24.4641 0.114914 24.4686 0.117295C24.4903 0.128898 24.5111 0.14199 24.5318 0.15518C24.5384 0.159441 24.5455 0.163228 24.5521 0.167594C24.5706 0.179991 24.5881 0.193607 24.6057 0.207192C24.6137 0.213443 24.6222 0.219151 24.6302 0.225599C24.6483 0.240574 24.6653 0.256736 24.6823 0.272902C24.6887 0.278851 24.6955 0.284207 24.7018 0.290454L31.644 7.23266C31.6502 7.23891 31.6556 7.24579 31.6616 7.25214C31.6778 7.2692 31.694 7.28621 31.7089 7.30437C31.7155 7.3123 31.721 7.32085 31.7273 7.32898C31.7408 7.34654 31.7545 7.36394 31.7669 7.38249C31.7714 7.38913 31.7751 7.39608 31.7793 7.40283C31.7925 7.42356 31.8055 7.44425 31.8171 7.46597C31.8196 7.47053 31.8215 7.47553 31.8239 7.48009C31.8364 7.50429 31.8483 7.52865 31.8588 7.55394C31.8601 7.55691 31.861 7.56007 31.8622 7.56314C31.873 7.58992 31.883 7.61725 31.8915 7.64512C31.8925 7.64849 31.8931 7.65181 31.8941 7.65518C31.9021 7.68265 31.9095 7.71051 31.9151 7.73887C31.9168 7.7472 31.9175 7.75558 31.919 7.76391C31.9231 7.78751 31.9272 7.81087 31.9296 7.83497ZM24.9922 3.38613V6.94221H28.5484L24.9922 3.38613ZM1.98352 41.8521H29.951V8.92573H24.0005C23.4529 8.92573 23.0087 8.48172 23.0087 7.93408V1.98352H1.98352V41.8521ZM7.58342 33.7534C6.9572 33.7534 6.5099 33.306 6.5099 32.6798C6.5099 32.0536 6.9572 31.5616 7.58342 31.5616H14.114C14.7403 31.5616 15.1876 32.0536 15.1876 32.6798C15.1876 33.306 14.7403 33.7534 14.114 33.7534H7.58342ZM7.58342 38.137C6.9572 38.137 6.5099 37.6896 6.5099 37.0634C6.5099 36.4371 6.9572 35.9452 7.58342 35.9452H14.114C14.7403 35.9452 15.1876 36.4371 15.1876 37.0634C15.1876 37.6896 14.7403 38.137 14.114 38.137H7.58342ZM17.6656 33.7534C17.0394 33.7534 16.5921 33.306 16.5921 32.6798C16.5921 32.0536 17.0394 31.5616 17.6656 31.5616H24.1962C24.8224 31.5616 25.2697 32.0536 25.2697 32.6798C25.2697 33.306 24.8224 33.7534 24.1962 33.7534H17.6656ZM17.6656 38.137C17.0394 38.137 16.5921 37.6896 16.5921 37.0634C16.5921 36.4371 17.0394 35.9452 17.6656 35.9452H24.1962C24.8224 35.9452 25.2697 36.4371 25.2697 37.0634C25.2697 37.6896 24.8224 38.137 24.1962 38.137H17.6656ZM15.7988 8.32877C18.3733 8.32877 20.4678 10.4232 20.4678 12.9976V16.9214C21.658 18.1502 22.3125 19.764 22.3125 21.4788C22.3125 25.1048 19.3726 28.0548 15.759 28.0548C12.1454 28.0548 9.20548 25.1048 9.20548 21.4788C9.20548 19.764 9.85999 18.1502 11.0502 16.9214V12.9979C11.0502 10.4234 13.1447 8.32877 15.7192 8.32877H15.7988ZM12.509 12.9976V15.7849C13.4879 15.2241 14.6005 14.9253 15.759 14.9253C16.9176 14.9253 18.0301 15.2241 19.009 15.7849V12.9976C19.009 11.2275 17.5689 9.78746 15.7988 9.78746H15.7192C13.9491 9.78746 12.509 11.2275 12.509 12.9976ZM15.759 18.3395C14.6648 18.3395 13.7746 19.2299 13.7746 20.3241C13.7746 21.1629 14.2952 21.882 15.0296 22.174V22.2457V23.7046V24.1541C15.0296 24.5569 15.3562 24.8833 15.759 24.8833C16.1618 24.8833 16.4884 24.5569 16.4884 24.1541V23.7046V22.2457V22.174C17.2228 21.882 17.7434 21.1629 17.7434 20.3241C17.7434 19.2298 16.8532 18.3395 15.759 18.3395ZM15.759 19.7984C16.0489 19.7984 16.2846 20.0342 16.2846 20.3241C16.2846 20.6166 16.0488 20.8545 15.759 20.8545C15.4692 20.8545 15.2334 20.6166 15.2334 20.3241C15.2334 20.0342 15.4692 19.7984 15.759 19.7984Z" fill="white"/>
</svg>
