<svg width="46" height="42" viewBox="0 0 46 42" fill="none" xmlns="http://www.w3.org/2000/svg">
<path d="M20.75 41.25V36.75H38.75V20.775C38.75 16.3875 37.2223 12.666 34.1668 9.6105C31.1113 6.555 27.389 5.0265 23 5.025C18.611 5.0235 14.8895 6.552 11.8355 9.6105C8.7815 12.669 7.253 16.3905 7.25 20.775V34.5H5C3.7625 34.5 2.7035 34.0597 1.823 33.1792C0.9425 32.2987 0.5015 31.239 0.5 30V25.5C0.5 24.7125 0.69725 23.9722 1.09175 23.2792C1.48625 22.5862 2.039 22.0327 2.75 21.6187L2.91875 18.6375C3.21875 16.0875 3.95975 13.725 5.14175 11.55C6.32375 9.375 7.805 7.48125 9.5855 5.86875C11.366 4.25625 13.409 3 15.7145 2.1C18.02 1.2 20.4485 0.75 23 0.75C25.5515 0.75 27.9703 1.2 30.2563 2.1C32.5423 3 34.586 4.24725 36.3875 5.84175C38.189 7.43625 39.6703 9.32025 40.8313 11.4938C41.9923 13.6673 42.7423 16.0298 43.0813 18.5813L43.25 21.5063C43.9625 21.8438 44.516 22.35 44.9105 23.025C45.305 23.7 45.5015 24.4125 45.5 25.1625V30.3375C45.5 31.0875 45.3035 31.8 44.9105 32.475C44.5175 33.15 43.964 33.6562 43.25 33.9937V36.75C43.25 37.9875 42.8098 39.0472 41.9293 39.9292C41.0488 40.8112 39.989 41.2515 38.75 41.25H20.75ZM16.25 25.5C15.6125 25.5 15.0785 25.284 14.648 24.852C14.2175 24.42 14.0015 23.886 14 23.25C13.9985 22.614 14.2145 22.08 14.648 21.648C15.0815 21.216 15.6155 21 16.25 21C16.8845 21 17.4193 21.216 17.8543 21.648C18.2893 22.08 18.5045 22.614 18.5 23.25C18.4955 23.886 18.2795 24.4208 17.852 24.8542C17.4245 25.2878 16.8905 25.503 16.25 25.5ZM29.75 25.5C29.1125 25.5 28.5785 25.284 28.148 24.852C27.7175 24.42 27.5015 23.886 27.5 23.25C27.4985 22.614 27.7145 22.08 28.148 21.648C28.5815 21.216 29.1155 21 29.75 21C30.3845 21 30.9193 21.216 31.3543 21.648C31.7893 22.08 32.0045 22.614 32 23.25C31.9955 23.886 31.7795 24.4208 31.352 24.8542C30.9245 25.2878 30.3905 25.503 29.75 25.5ZM9.55625 22.0125C9.29375 18.0375 10.4938 14.625 13.1563 11.775C15.8188 8.925 19.1375 7.5 23.1125 7.5C26.45 7.5 29.3848 8.559 31.9168 10.677C34.4488 12.795 35.9765 15.5055 36.5 18.8085C33.0875 18.7695 29.9473 17.85 27.0793 16.05C24.2113 14.25 22.0078 11.8125 20.4688 8.7375C19.8688 11.7375 18.6035 14.4097 16.673 16.7542C14.7425 19.0987 12.3703 20.8515 9.55625 22.0125Z" fill="white"/>
</svg>
