<svg width="22" height="21" viewBox="0 0 22 21" fill="none" xmlns="http://www.w3.org/2000/svg">
<path d="M11.5851 17.1301L16.7065 20.3818C17.367 20.7984 18.1799 20.1785 17.9869 19.4164L16.5033 13.5837C16.4632 13.4221 16.4696 13.2524 16.5217 13.0942C16.5738 12.9359 16.6696 12.7957 16.798 12.6895L21.391 8.85867C21.9905 8.36076 21.6856 7.35477 20.9032 7.30397L14.9079 6.91783C14.7444 6.90831 14.5871 6.85135 14.4554 6.7539C14.3236 6.65646 14.2231 6.52275 14.1662 6.36911L11.9306 0.739665C11.8715 0.576983 11.7637 0.436451 11.6219 0.337145C11.4801 0.237839 11.3112 0.18457 11.138 0.18457C10.9649 0.18457 10.796 0.237839 10.6542 0.337145C10.5124 0.436451 10.4046 0.576983 10.3454 0.739665L8.10993 6.36911C8.05295 6.52275 7.95246 6.65646 7.82072 6.7539C7.68899 6.85135 7.53172 6.90831 7.36814 6.91783L1.37288 7.30397C0.590448 7.35477 0.285605 8.36076 0.885131 8.85867L5.47811 12.6895C5.60649 12.7957 5.70226 12.9359 5.75439 13.0942C5.80653 13.2524 5.81291 13.4221 5.77279 13.5837L4.401 18.9896C4.16728 19.9042 5.14278 20.646 5.92521 20.1481L10.6909 17.1301C10.8246 17.0451 10.9797 17 11.138 17C11.2964 17 11.4515 17.0451 11.5851 17.1301Z" fill="#FFA43C"/>
</svg>
