<svg width="120" height="49" viewBox="0 0 120 49" fill="none" xmlns="http://www.w3.org/2000/svg">
<path d="M37.0355 25.8308L28.6644 16.1914L24.0984 27.987L31.9621 36.9923L20.547 37.1191L16.4883 48.0269H28.4108L37.0355 25.8308Z" fill="white"/>
<path d="M0 48.154L18.2642 0.717773H30.1867L11.7956 48.154H0Z" fill="white"/>
<path d="M55.847 32.3537C58.0184 32.3537 59.6825 33.1857 60.8392 34.8498C62.0162 36.4935 62.4221 38.4214 62.0568 40.6334C61.7118 42.7846 60.7682 44.6211 59.2259 46.1431C57.6836 47.6652 55.7861 48.4262 53.5335 48.4262C51.3418 48.4262 49.7589 47.5941 48.7848 45.9301L48.4195 48H44.4927L48.2369 26.6918H52.1637L50.7939 34.4236C52.1739 33.0436 53.8582 32.3537 55.847 32.3537ZM58.13 40.3595C58.3532 39.081 58.1402 38.0562 57.4908 37.285C56.8617 36.4935 55.9383 36.0978 54.7207 36.0978C53.5031 36.0978 52.4275 36.4935 51.494 37.285C50.5605 38.0764 49.9821 39.1114 49.7589 40.3899C49.5357 41.6684 49.7589 42.7034 50.4286 43.4948C51.0983 44.2863 52.0419 44.682 53.2596 44.682C54.4772 44.682 55.5426 44.2863 56.4558 43.4948C57.369 42.6831 57.9271 41.638 58.13 40.3595ZM74.6889 32.7798H78.6157L75.9369 48H72.0101L72.3145 46.3562C71.1172 47.7362 69.5444 48.4262 67.5963 48.4262C65.8916 48.4262 64.5725 47.8579 63.639 46.7215C62.7055 45.5851 62.4112 44.0529 62.7562 42.125L64.4 32.7798H68.3268L66.7744 41.638C66.5917 42.6729 66.7236 43.4542 67.1701 43.9819C67.6368 44.5095 68.3268 44.7733 69.24 44.7733C70.1735 44.7733 70.9853 44.4994 71.6753 43.9514C72.3855 43.4035 72.8827 42.5816 73.1668 41.4858L74.6889 32.7798ZM85.562 48.4262C83.2079 48.4262 81.3612 47.6246 80.0219 46.0214C78.7028 44.3979 78.236 42.4193 78.6216 40.0855C78.9666 37.8532 79.9914 36.0065 81.6961 34.5454C83.421 33.0842 85.4301 32.3537 87.7233 32.3537C89.2859 32.3537 90.6252 32.7189 91.7414 33.4495C92.8575 34.1598 93.6591 35.1136 94.1462 36.3109L90.5847 38.1982C90.0367 36.8791 88.9713 36.2196 87.3884 36.2196C86.2114 36.2196 85.1561 36.6052 84.2226 37.3763C83.3094 38.1272 82.7513 39.1013 82.5484 40.2986C82.3455 41.5162 82.5586 42.5309 83.1877 43.3426C83.8168 44.1341 84.7198 44.5298 85.8968 44.5298C87.4797 44.5298 88.7379 43.85 89.6715 42.4903L92.8372 44.5298C92.0661 45.788 91.0311 46.7519 89.7323 47.4216C88.4538 48.0913 87.0637 48.4262 85.562 48.4262ZM92.7224 48L94.3966 38.4417L96.6187 25.7785H100.546L98.293 38.5939L96.6492 48H92.7224ZM114.61 26.57L110.623 30.7403H106.757L109.801 26.57H114.61ZM102.434 34.5758C104.159 33.0944 106.148 32.3537 108.401 32.3537C110.653 32.3537 112.429 33.135 113.728 34.6976C115.026 36.2399 115.463 38.1373 115.037 40.3899C114.996 40.8364 114.854 41.3742 114.61 42.0033H103.104C103.185 42.9773 103.561 43.6978 104.23 44.1645C104.9 44.6313 105.742 44.8646 106.757 44.8646C108.279 44.8646 109.527 44.3472 110.501 43.3122L113.271 45.5343C111.566 47.4622 109.294 48.4262 106.452 48.4262C103.936 48.4262 102.018 47.6246 100.699 46.0214C99.4004 44.4182 98.9438 42.4396 99.3294 40.0855C99.6744 37.8735 100.709 36.0369 102.434 34.5758ZM103.652 38.9288H111.384C111.363 37.8938 111.049 37.1328 110.44 36.6457C109.852 36.1384 109.091 35.8847 108.157 35.8847C107.142 35.8847 106.239 36.1486 105.448 36.6762C104.677 37.2038 104.078 37.9547 103.652 38.9288Z" fill="white"/>
</svg>
