<svg width="19" height="19" viewBox="0 0 19 19" fill="none" xmlns="http://www.w3.org/2000/svg">
<g clip-path="url(#clip0_380_22021)">
<path fill-rule="evenodd" clip-rule="evenodd" d="M8.94425 1.73746C9.30258 1.60314 9.69742 1.60314 10.0557 1.73746L15.5974 3.81558C15.8993 3.92874 16.1594 4.13134 16.343 4.39631C16.5267 4.66128 16.625 4.976 16.625 5.29837V9.54408C16.625 10.8673 16.2566 12.1644 15.5609 13.29C14.8653 14.4156 13.87 15.3252 12.6865 15.917L10.0312 17.2438C9.86628 17.3263 9.68441 17.3693 9.5 17.3693C9.31559 17.3693 9.13372 17.3263 8.96879 17.2438L6.31354 15.9162C5.13003 15.3244 4.13469 14.4148 3.43905 13.2892C2.74342 12.1636 2.37497 10.8665 2.375 9.54329V5.29917C2.3748 4.97665 2.47309 4.66177 2.65673 4.39664C2.84037 4.13151 3.10059 3.92879 3.40258 3.81558L8.94425 1.73746ZM10.2917 9.28758C10.5935 9.1133 10.8294 8.8443 10.9628 8.52229C11.0961 8.20029 11.1195 7.84327 11.0293 7.50661C10.9391 7.16996 10.7403 6.87247 10.4638 6.66029C10.1873 6.44811 9.84853 6.3331 9.5 6.33308C9.15147 6.3331 8.81268 6.44811 8.53617 6.66029C8.25967 6.87247 8.0609 7.16996 7.97069 7.50661C7.88048 7.84327 7.90388 8.20029 8.03724 8.52229C8.17061 8.8443 8.4065 9.1133 8.70833 9.28758V11.8747C8.70833 12.0847 8.79174 12.2861 8.94021 12.4345C9.08867 12.583 9.29004 12.6664 9.5 12.6664C9.70996 12.6664 9.91133 12.583 10.0598 12.4345C10.2083 12.2861 10.2917 12.0847 10.2917 11.8747V9.28758Z" fill="#2AA100"/>
</g>
<defs>
<clipPath id="clip0_380_22021">
<rect width="19" height="19" fill="white"/>
</clipPath>
</defs>
</svg>
