<svg width="272" height="50" viewBox="0 0 272 50" fill="none" xmlns="http://www.w3.org/2000/svg">
<path d="M239.59 25.1232C238.193 24.2001 236.67 23.5847 235.147 22.7847C234.195 22.2924 233.179 21.8001 232.354 21.1232C230.958 20.0155 231.211 17.8001 232.735 16.8155C234.829 15.4617 238.32 16.2001 238.701 18.9694C238.701 19.0309 238.765 19.0924 238.828 19.0924H242.002C242.065 19.0924 242.129 19.0309 242.129 18.9694C241.938 17.0617 241.177 15.4617 239.78 14.4155C238.447 13.4309 236.924 12.9386 235.274 12.9386C226.895 12.9386 226.134 21.554 230.64 24.2617C231.148 24.5693 235.591 26.7232 237.178 27.7078C238.765 28.6309 239.209 30.354 238.574 31.7078C237.939 32.9386 236.353 33.8001 234.766 33.677C232.989 33.554 231.656 32.6309 231.148 31.2155C231.084 30.9693 231.021 30.477 231.021 30.2309C231.021 30.1693 230.958 30.1078 230.894 30.1078H227.467C227.403 30.1078 227.34 30.1693 227.34 30.2309C227.34 32.6309 227.974 33.9847 229.625 35.2155C231.211 36.3847 232.925 36.877 234.766 36.877C239.463 36.877 241.875 34.2924 242.382 31.6463C242.763 29.0616 242.002 26.7232 239.59 25.1232Z" fill="#8F9CA9"/>
<path d="M89.9869 13.4307H88.4636H86.8133C86.7498 13.4307 86.6864 13.4923 86.6864 13.4923L83.8301 22.5384C83.7667 22.6615 83.6397 22.6615 83.5763 22.5384L80.72 13.4923C80.72 13.4307 80.6566 13.4307 80.5931 13.4307H78.9428H77.4195H75.3884C75.325 13.4307 75.2615 13.4923 75.2615 13.5538V36.6308C75.2615 36.6923 75.325 36.7539 75.3884 36.7539H78.8159C78.8794 36.7539 78.9428 36.6923 78.9428 36.6308V19.0923C78.9428 18.9692 79.1333 18.9077 79.1967 19.0307L82.0529 28.1385L82.2434 28.7539C82.2434 28.8154 82.3068 28.8154 82.3703 28.8154H85.0361C85.0996 28.8154 85.1631 28.7539 85.1631 28.7539L85.3535 28.1385L88.2097 19.0307C88.2732 18.9077 88.4636 18.9077 88.4636 19.0923V36.6308C88.4636 36.6923 88.527 36.7539 88.5905 36.7539H92.018C92.0815 36.7539 92.1449 36.6923 92.1449 36.6308V13.5538C92.1449 13.4923 92.0815 13.4307 92.018 13.4307H89.9869Z" fill="#8F9CA9"/>
<path d="M186.845 13.4308C186.781 13.4308 186.718 13.4923 186.718 13.4923L183.861 22.5385C183.798 22.6616 183.671 22.6616 183.608 22.5385L180.751 13.4923C180.751 13.4308 180.688 13.4308 180.624 13.4308H175.356C175.293 13.4308 175.229 13.4924 175.229 13.5539V36.6309C175.229 36.6924 175.293 36.754 175.356 36.754H178.784C178.847 36.754 178.911 36.6924 178.911 36.6309V19.0924C178.911 18.9693 179.101 18.9078 179.164 19.0308L182.021 28.1386L182.211 28.7539C182.211 28.8155 182.275 28.8155 182.338 28.8155H185.004C185.067 28.8155 185.131 28.7539 185.131 28.7539L185.321 28.1386L188.177 19.0308C188.241 18.9078 188.431 18.9078 188.431 19.0924V36.6309C188.431 36.6924 188.495 36.754 188.558 36.754H191.986C192.049 36.754 192.113 36.6924 192.113 36.6309V13.5539C192.113 13.4924 192.049 13.4308 191.986 13.4308H186.845Z" fill="#8F9CA9"/>
<path d="M142.415 13.4307H136.004H132.577H126.103C126.039 13.4307 125.976 13.4923 125.976 13.5538V16.4461C125.976 16.5077 126.039 16.5692 126.103 16.5692H132.386V36.6308C132.386 36.6923 132.45 36.7539 132.513 36.7539H135.941C136.004 36.7539 136.068 36.6923 136.068 36.6308V16.5692H142.351C142.415 16.5692 142.478 16.5077 142.478 16.4461V13.5538C142.542 13.4923 142.478 13.4307 142.415 13.4307Z" fill="#8F9CA9"/>
<path d="M162.725 36.7536H165.836C165.899 36.7536 165.963 36.692 165.963 36.569L159.488 13.4304C159.488 13.3689 159.425 13.3689 159.361 13.3689H158.156H156.061H154.855C154.792 13.3689 154.728 13.4304 154.728 13.4304L148.254 36.569C148.254 36.6305 148.317 36.7536 148.381 36.7536H151.491C151.554 36.7536 151.618 36.692 151.618 36.692L153.522 29.9228C153.522 29.8612 153.586 29.8613 153.649 29.8613H160.567C160.631 29.8613 160.694 29.9228 160.694 29.9228L162.599 36.692C162.599 36.692 162.662 36.7536 162.725 36.7536ZM154.474 26.5382L157.013 17.492C157.077 17.3689 157.203 17.3689 157.267 17.492L159.806 26.5382C159.806 26.5997 159.742 26.7228 159.679 26.7228H154.665C154.538 26.7228 154.474 26.5997 154.474 26.5382Z" fill="#8F9CA9"/>
<path d="M216.168 36.7536H219.278C219.341 36.7536 219.405 36.692 219.405 36.569L212.931 13.4304C212.931 13.3689 212.867 13.3689 212.804 13.3689H211.598H209.503H208.297C208.234 13.3689 208.17 13.4304 208.17 13.4304L201.696 36.569C201.696 36.6305 201.76 36.7536 201.823 36.7536H204.933C204.997 36.7536 205.06 36.692 205.06 36.692L206.964 29.9228C206.964 29.8612 207.028 29.8613 207.091 29.8613H214.01C214.073 29.8613 214.137 29.9228 214.137 29.9228L216.041 36.692C216.041 36.692 216.104 36.7536 216.168 36.7536ZM207.917 26.5382L210.455 17.492C210.519 17.3689 210.646 17.3689 210.709 17.492L213.248 26.5382C213.248 26.5997 213.185 26.7228 213.121 26.7228H208.107C207.98 26.7228 207.917 26.5997 207.917 26.5382Z" fill="#8F9CA9"/>
<path d="M106.108 33.3078V26.1693C106.108 26.1078 106.171 26.0462 106.235 26.0462H115.438C115.502 26.0462 115.565 25.9847 115.565 25.9232V23.0308C115.565 22.9693 115.502 22.9078 115.438 22.9078H106.235C106.171 22.9078 106.108 22.8462 106.108 22.7847V16.6924C106.108 16.6308 106.171 16.5693 106.235 16.5693H116.644C116.708 16.5693 116.771 16.5077 116.771 16.4462V13.5539C116.771 13.4924 116.708 13.4308 116.644 13.4308H106.108H102.553C102.49 13.4308 102.427 13.4924 102.427 13.5539V16.5693V22.9693V26.1078V33.4924V36.6309C102.427 36.6924 102.49 36.754 102.553 36.754H106.108H117.089C117.152 36.754 117.215 36.6924 117.215 36.6309V33.6155C117.215 33.554 117.152 33.4924 117.089 33.4924H106.171C106.171 33.4309 106.108 33.3693 106.108 33.3078Z" fill="#8F9CA9"/>
<path d="M271.073 36.5074L259.14 24.5689C259.076 24.5074 259.076 24.4458 259.14 24.3843L269.867 13.5535C269.93 13.492 269.867 13.3689 269.803 13.3689H265.424C265.36 13.3689 265.36 13.3689 265.36 13.4304L256.22 22.6612C256.157 22.7228 256.03 22.6612 256.03 22.5997V13.615C256.03 13.5535 255.966 13.492 255.903 13.492H252.412C252.348 13.492 252.285 13.5535 252.285 13.615V36.692C252.285 36.7536 252.348 36.8151 252.412 36.8151H255.839C255.903 36.8151 255.966 36.7536 255.966 36.692V26.5381C255.966 26.4151 256.093 26.3535 256.157 26.4766L266.439 36.8151L266.503 36.8766H270.882C271.073 36.7536 271.136 36.5689 271.073 36.5074Z" fill="#8F9CA9"/>
<path d="M51.7136 1L30.8948 16.0154L34.7666 7.15387L51.7136 1Z" fill="#E17726" stroke="#E17726" stroke-width="0.385345" stroke-linecap="round" stroke-linejoin="round"/>
<path d="M3.60132 1L24.2931 16.1385L20.6117 7.15386L3.60132 1Z" fill="#E27625" stroke="#E27625" stroke-width="0.385345" stroke-linecap="round" stroke-linejoin="round"/>
<path d="M44.2247 35.7692L38.6392 44.0154L50.572 47.2154L53.936 35.9538L44.2247 35.7692Z" fill="#E27625" stroke="#E27625" stroke-width="0.385345" stroke-linecap="round" stroke-linejoin="round"/>
<path d="M1.44434 35.9538L4.80836 47.2154L16.6776 44.0154L11.1556 35.7692L1.44434 35.9538Z" fill="#E27625" stroke="#E27625" stroke-width="0.385345" stroke-linecap="round" stroke-linejoin="round"/>
<path d="M16.0432 21.8618L12.7427 26.7233L24.485 27.2156L24.1042 14.9079L16.0432 21.8618Z" fill="#E27625" stroke="#E27625" stroke-width="0.385345" stroke-linecap="round" stroke-linejoin="round"/>
<path d="M39.3371 21.8616L31.1492 14.7846L30.8953 27.2154L42.6376 26.7231L39.3371 21.8616Z" fill="#E27625" stroke="#E27625" stroke-width="0.385345" stroke-linecap="round" stroke-linejoin="round"/>
<path d="M16.6777 44.0154L23.7866 40.6923L17.6298 36.0154L16.6777 44.0154Z" fill="#E27625" stroke="#E27625" stroke-width="0.385345" stroke-linecap="round" stroke-linejoin="round"/>
<path d="M31.5938 40.6923L38.6392 44.0154L37.6871 36.0154L31.5938 40.6923Z" fill="#E27625" stroke="#E27625" stroke-width="0.385345" stroke-linecap="round" stroke-linejoin="round"/>
<path d="M38.6399 44.0155L31.5945 40.6924L32.1657 45.1232L32.1023 47.0308L38.6399 44.0155Z" fill="#D5BFB2" stroke="#D5BFB2" stroke-width="0.385345" stroke-linecap="round" stroke-linejoin="round"/>
<path d="M16.6785 44.0155L23.2795 47.0308L23.2161 45.1232L23.7873 40.6924L16.6785 44.0155Z" fill="#D5BFB2" stroke="#D5BFB2" stroke-width="0.385345" stroke-linecap="round" stroke-linejoin="round"/>
<path d="M23.4048 33.0614L17.502 31.3998L21.6276 29.5536L23.4048 33.0614Z" fill="#233447" stroke="#233447" stroke-width="0.385345" stroke-linecap="round" stroke-linejoin="round"/>
<path d="M31.9741 33.0619L33.6879 29.554L37.877 31.4003L31.9741 33.0619Z" fill="#233447" stroke="#233447" stroke-width="0.385345" stroke-linecap="round" stroke-linejoin="round"/>
<path d="M16.6768 44.0157L17.6923 35.7694L11.1548 35.9541L16.6768 44.0157Z" fill="#CC6228" stroke="#CC6228" stroke-width="0.385345" stroke-linecap="round" stroke-linejoin="round"/>
<path d="M37.686 35.7694L38.6381 44.0157L44.2236 35.9541L37.686 35.7694Z" fill="#CC6228" stroke="#CC6228" stroke-width="0.385345" stroke-linecap="round" stroke-linejoin="round"/>
<path d="M42.6366 26.7231L30.8943 27.2154L31.9733 33.0616L33.6871 29.5539L37.8762 31.4001L42.6366 26.7231Z" fill="#CC6228" stroke="#CC6228" stroke-width="0.385345" stroke-linecap="round" stroke-linejoin="round"/>
<path d="M17.5011 31.3998L21.6268 29.5537L23.404 33.0614L24.483 27.2153L12.7407 26.723L17.5011 31.3998Z" fill="#CC6228" stroke="#CC6228" stroke-width="0.385345" stroke-linecap="round" stroke-linejoin="round"/>
<path d="M12.7424 26.7233L17.6297 36.0156L17.5027 31.4002L12.7424 26.7233Z" fill="#E27525" stroke="#E27525" stroke-width="0.385345" stroke-linecap="round" stroke-linejoin="round"/>
<path d="M37.8765 31.4002L37.686 36.0156L42.6368 26.7233L37.8765 31.4002Z" fill="#E27525" stroke="#E27525" stroke-width="0.385345" stroke-linecap="round" stroke-linejoin="round"/>
<path d="M24.4843 27.2155L23.4053 33.0617L24.7382 40.0155L25.0555 30.8463L24.4843 27.2155Z" fill="#E27525" stroke="#E27525" stroke-width="0.385345" stroke-linecap="round" stroke-linejoin="round"/>
<path d="M30.895 27.2154L30.3237 30.8462L30.5776 40.0154L31.974 33.0616L30.895 27.2154Z" fill="#E27525" stroke="#E27525" stroke-width="0.385345" stroke-linecap="round" stroke-linejoin="round"/>
<path d="M31.9743 33.0614L30.5779 40.0152L31.5934 40.6921L37.6867 36.0152L37.8771 31.3998L31.9743 33.0614Z" fill="#F5841F" stroke="#F5841F" stroke-width="0.385345" stroke-linecap="round" stroke-linejoin="round"/>
<path d="M17.502 31.4002L17.6289 36.0156L23.7856 40.6925L24.7377 40.0156L23.4048 33.0618L17.502 31.4002Z" fill="#F5841F" stroke="#F5841F" stroke-width="0.385345" stroke-linecap="round" stroke-linejoin="round"/>
<path d="M32.1021 47.0305L32.1656 45.1229L31.5943 44.6921H23.7238L23.2161 45.1229L23.2795 47.0305L16.6785 44.0152L18.9634 45.8613L23.6604 48.9997H31.6578L36.3547 45.8613L38.6397 44.0152L32.1021 47.0305Z" fill="#C0AC9D" stroke="#C0AC9D" stroke-width="0.385345" stroke-linecap="round" stroke-linejoin="round"/>
<path d="M31.5939 40.6929L30.5783 40.016H24.7389L23.7868 40.6929L23.2156 45.1236L23.7233 44.6928H31.5939L32.1651 45.1236L31.5939 40.6929Z" fill="#8F9CA9" stroke="#8F9CA9" stroke-width="0.385345" stroke-linecap="round" stroke-linejoin="round"/>
<path d="M52.6037 17L54.3809 8.69235L51.7151 1.00009L31.5945 15.5231L39.3381 21.8615L50.2552 24.9384L52.6671 22.2307L51.6516 21.4923L53.3019 20.0154L52.0324 19.0308L53.6827 17.8L52.6037 17Z" fill="#763E1A" stroke="#763E1A" stroke-width="0.385345" stroke-linecap="round" stroke-linejoin="round"/>
<path d="M1 8.69232L2.77721 17L1.63472 17.8L3.28499 19.0307L2.01555 20.0153L3.72929 21.4922L2.65027 22.2307L5.0622 24.9384L16.0428 21.8615L23.7864 15.5231L3.60235 1.00006L1 8.69232Z" fill="#763E1A" stroke="#763E1A" stroke-width="0.385345" stroke-linecap="round" stroke-linejoin="round"/>
<path d="M50.2535 24.9389L39.3363 21.862L42.6368 26.7236L37.686 36.016L44.2236 35.9544H53.9348L50.2535 24.9389Z" fill="#F5841F" stroke="#F5841F" stroke-width="0.385345" stroke-linecap="round" stroke-linejoin="round"/>
<path d="M16.0423 21.862L5.06173 24.9389L1.44385 35.9544H11.155L17.6291 36.016L12.7418 26.7236L16.0423 21.862Z" fill="#F5841F" stroke="#F5841F" stroke-width="0.385345" stroke-linecap="round" stroke-linejoin="round"/>
<path d="M30.8954 27.2149L31.5936 15.5227L34.7672 7.15347H20.613L23.7866 15.5227L24.4848 27.2149L24.7387 30.9072V40.0149H30.5781V30.9072L30.8954 27.2149Z" fill="#F5841F" stroke="#F5841F" stroke-width="0.385345" stroke-linecap="round" stroke-linejoin="round"/>
</svg>
