<svg width="85" height="85" viewBox="0 0 85 85" fill="none" xmlns="http://www.w3.org/2000/svg">
<path fill-rule="evenodd" clip-rule="evenodd" d="M42.5 84.875C48.0648 84.875 53.575 83.7789 58.7162 81.6494C63.8574 79.5199 68.5288 76.3985 72.4636 72.4636C76.3985 68.5288 79.5199 63.8574 81.6494 58.7162C83.7789 53.575 84.875 48.0648 84.875 42.5C84.875 36.9352 83.7789 31.425 81.6494 26.2838C79.5199 21.1426 76.3985 16.4712 72.4636 12.5363C68.5288 8.60147 63.8574 5.48015 58.7162 3.3506C53.575 1.22106 48.0648 0.125 42.5 0.125C31.2615 0.125 20.4832 4.5895 12.5364 12.5363C4.5895 20.4832 0.125 31.2615 0.125 42.5C0.125 53.7386 4.5895 64.5168 12.5364 72.4636C20.4832 80.4105 31.2615 84.875 42.5 84.875ZM41.4077 59.6383L64.9493 31.3883L57.7173 25.3617L37.4715 49.652L26.9955 39.1712L20.3379 45.8288L34.4629 59.9538L38.1071 63.598L41.4077 59.6383Z" fill="#2AA100"/>
</svg>
