<svg width="21" height="17" viewBox="0 0 21 17" fill="none" xmlns="http://www.w3.org/2000/svg">
<path d="M0.669659 16.0641V11.5082C0.669659 10.2146 0.922764 8.89281 1.42897 7.54292C1.93518 6.19303 2.6031 4.92047 3.43272 3.72526C4.26234 2.53004 5.16227 1.53168 6.1325 0.730185L10.0978 3.0714C9.31037 4.3088 8.66355 5.60245 8.15734 6.95234C7.66519 8.30223 7.41912 9.8068 7.41912 11.466V16.0641H0.669659ZM11.3211 16.0641V11.5082C11.3211 10.2146 11.5743 8.89281 12.0805 7.54292C12.5867 6.19303 13.2546 4.92047 14.0842 3.72526C14.9138 2.53004 15.8138 1.53168 16.784 0.730185L20.7493 3.0714C19.9619 4.3088 19.315 5.60245 18.8088 6.95234C18.3167 8.30223 18.0706 9.8068 18.0706 11.466V16.0641H11.3211Z" fill="white"/>
</svg>
