<svg width="25" height="25" viewBox="0 0 25 25" fill="none" xmlns="http://www.w3.org/2000/svg">
<path d="M16.5 5.8877H18.5C19.0304 5.8877 19.5391 6.09841 19.9142 6.47348C20.2893 6.84855 20.5 7.35726 20.5 7.8877V9.8877H4.5V7.8877C4.5 7.35726 4.71071 6.84855 5.08579 6.47348C5.46086 6.09841 5.96957 5.8877 6.5 5.8877H8.5M16.5 5.8877V3.8877M16.5 5.8877H8.5M8.5 5.8877V3.8877M4.5 10.3877V19.8877C4.5 20.4181 4.71071 20.9268 5.08579 21.3019C5.46086 21.677 5.96957 21.8877 6.5 21.8877H18.5C19.0304 21.8877 19.5391 21.677 19.9142 21.3019C20.2893 20.9268 20.5 20.4181 20.5 19.8877V10.3877" stroke="white" stroke-width="2" stroke-linecap="round" stroke-linejoin="round"/>
</svg>
