<svg width="25" height="24" viewBox="0 0 25 24" fill="none" xmlns="http://www.w3.org/2000/svg">
<path d="M7.69961 4.8001C7.06309 4.8001 6.45264 5.05295 6.00255 5.50304C5.55247 5.95313 5.29961 6.56358 5.29961 7.2001V16.8001C5.29961 17.4366 5.55247 18.0471 6.00255 18.4972C6.45264 18.9472 7.06309 19.2001 7.69961 19.2001H17.2996C17.9361 19.2001 18.5466 18.9472 18.9967 18.4972C19.4468 18.0471 19.6996 17.4366 19.6996 16.8001V13.8001C19.6996 13.641 19.7628 13.4884 19.8753 13.3758C19.9879 13.2633 20.1405 13.2001 20.2996 13.2001C20.4587 13.2001 20.6114 13.2633 20.7239 13.3758C20.8364 13.4884 20.8996 13.641 20.8996 13.8001V16.8001C20.8996 17.7549 20.5203 18.6706 19.8452 19.3457C19.1701 20.0208 18.2544 20.4001 17.2996 20.4001H7.69961C6.74483 20.4001 5.82916 20.0208 5.15403 19.3457C4.47889 18.6706 4.09961 17.7549 4.09961 16.8001V7.2001C4.09961 6.24532 4.47889 5.32964 5.15403 4.65451C5.82916 3.97938 6.74483 3.6001 7.69961 3.6001H10.6996C10.8587 3.6001 11.0114 3.66331 11.1239 3.77583C11.2364 3.88836 11.2996 4.04097 11.2996 4.2001C11.2996 4.35923 11.2364 4.51184 11.1239 4.62436C11.0114 4.73688 10.8587 4.8001 10.6996 4.8001H7.69961ZM13.6996 4.2001C13.6996 4.04097 13.7628 3.88836 13.8753 3.77583C13.9879 3.66331 14.1405 3.6001 14.2996 3.6001H20.2996C20.4587 3.6001 20.6114 3.66331 20.7239 3.77583C20.8364 3.88836 20.8996 4.04097 20.8996 4.2001V10.2001C20.8996 10.3592 20.8364 10.5118 20.7239 10.6244C20.6114 10.7369 20.4587 10.8001 20.2996 10.8001C20.1405 10.8001 19.9879 10.7369 19.8753 10.6244C19.7628 10.5118 19.6996 10.3592 19.6996 10.2001V5.6485L14.7244 10.6249C14.6117 10.7376 14.4589 10.8009 14.2996 10.8009C14.1403 10.8009 13.9875 10.7376 13.8748 10.6249C13.7621 10.5122 13.6989 10.3594 13.6989 10.2001C13.6989 10.0408 13.7621 9.88796 13.8748 9.7753L18.8512 4.8001H14.2996C14.1405 4.8001 13.9879 4.73688 13.8753 4.62436C13.7628 4.51184 13.6996 4.35923 13.6996 4.2001Z" fill="black"/>
</svg>
