<svg width="237" height="48" viewBox="0 0 237 48" fill="none" xmlns="http://www.w3.org/2000/svg">
<path d="M78.8392 27.8706C78.8048 26.7039 79.0455 25.5705 79.5612 24.5371C80.0081 23.4704 80.6958 22.5371 81.5553 21.737C82.4149 20.937 83.4119 20.3037 84.5121 19.9037C86.7813 19.037 89.2912 19.037 91.5604 19.9037C92.695 20.337 93.692 21.0037 94.5172 21.837C95.3767 22.6371 96.0644 23.6038 96.5113 24.6705C97.4397 26.8039 97.474 29.2039 96.5457 31.3373C96.0988 32.404 95.4111 33.3374 94.5516 34.1374C92.7981 35.8041 90.4258 36.7375 87.9503 36.7042C86.7469 36.7042 85.578 36.5042 84.4434 36.0708C83.3432 35.6375 82.3117 35.0041 81.4866 34.1708C80.627 33.3707 79.9738 32.404 79.4924 31.3373C79.0798 30.2373 78.8735 29.0706 78.8392 27.8706ZM93.2451 27.9372C93.2795 26.5038 92.7637 25.1371 91.7323 24.1038C90.804 23.1037 89.4631 22.5371 88.0535 22.5704C86.6438 22.5704 85.3373 23.1371 84.3746 24.1038C82.3461 26.2705 82.3461 29.5706 84.3746 31.7374C86.2656 33.7041 89.4631 33.8041 91.4916 31.9707C91.5604 31.904 91.6635 31.8374 91.7323 31.7374C92.7637 30.704 93.2795 29.3373 93.2451 27.9372Z" fill="#007EA4"/>
<path d="M118.037 27.8706C118.003 26.7039 118.243 25.5705 118.759 24.5371C119.206 23.4704 119.894 22.5371 120.753 21.737C121.613 20.937 122.61 20.3037 123.71 19.9037C125.979 19.037 128.489 19.037 130.758 19.9037C131.893 20.337 132.89 21.0037 133.715 21.837C134.574 22.6371 135.262 23.6038 135.709 24.6705C136.637 26.8039 136.672 29.2039 135.743 31.3373C135.297 32.404 134.609 33.3374 133.749 34.1374C131.996 35.8041 129.624 36.7375 127.148 36.7042C125.945 36.7042 124.776 36.5042 123.641 36.0708C122.541 35.6375 121.509 35.0041 120.684 34.1708C119.825 33.3707 119.172 32.404 118.69 31.3373C118.278 30.2373 118.037 29.0706 118.037 27.8706ZM132.408 27.9372C132.443 26.5038 131.927 25.1371 130.896 24.1038C129.967 23.1037 128.626 22.5371 127.217 22.5704C125.807 22.5704 124.501 23.1371 123.538 24.1038C121.544 26.2705 121.544 29.5706 123.538 31.7374C125.429 33.7041 128.626 33.8041 130.655 31.9707C130.724 31.904 130.827 31.8374 130.896 31.7374C131.927 30.704 132.477 29.3373 132.408 27.9372Z" fill="#007EA4"/>
<path d="M153.001 24.4036C152.451 23.7702 151.763 23.3035 150.972 23.0035C150.182 22.6702 149.322 22.4702 148.463 22.5035C146.915 22.5035 145.609 22.9702 144.681 23.9702C143.752 24.9703 143.271 26.237 143.271 27.8704C143.271 29.5038 143.752 30.8705 144.681 31.8705C145.609 32.8705 146.95 33.3372 148.635 33.3372C149.494 33.3706 150.354 33.1706 151.11 32.8372C151.866 32.4705 152.52 31.9372 153.001 31.3038V35.604C152.279 36.004 151.523 36.2707 150.732 36.4707C149.907 36.6707 149.013 36.7707 148.153 36.7707C145.54 36.7707 143.409 35.9373 141.724 34.3373C140.039 32.7372 139.283 30.6038 139.283 28.0037C139.283 25.4036 140.142 23.2702 141.861 21.7035C143.58 20.1367 145.815 19.3034 148.566 19.3034C149.391 19.3034 150.182 19.3701 150.972 19.5701C151.694 19.7367 152.382 20.0034 153.001 20.3367V24.4036ZM160.737 22.3368C161.046 21.4035 161.596 20.6034 162.387 19.9701C163.109 19.4367 164.003 19.17 164.897 19.2034C165.447 19.2034 165.963 19.27 166.479 19.37C167.029 19.5034 167.544 19.7034 168.026 19.9367L166.651 23.0702C166.341 22.8368 165.963 22.6702 165.585 22.5702C165.172 22.4368 164.725 22.3702 164.313 22.4035C163.04 22.4035 162.147 22.8702 161.562 23.8702C160.978 24.8703 160.702 26.537 160.702 28.8704V36.004H156.886V19.7701H160.702V22.3368H160.737Z" fill="#1AA64A"/>
<path d="M23.4161 28.8374H20.3217C18.4651 28.8374 24.7913 37.4377 29.3641 38.4044C30.3956 38.6044 30.9113 39.1045 30.9113 40.0712V46.3714C30.8769 47.5714 30.1549 48.1381 28.9516 47.9715C20.2186 46.5714 13.8579 42.0379 9.90402 34.3376C9.31953 33.2376 8.87256 32.1042 8.52874 30.9041C7.87549 28.9374 7.80673 28.8374 5.64067 28.7707C2.95889 28.704 1.20541 27.3707 0.620922 25.0039C-0.0323333 22.3371 2.13372 19.537 5.0218 19.3704C5.43438 19.337 5.81258 19.337 6.22516 19.3704C7.46291 19.4704 8.11616 18.8037 8.4256 17.737C9.182 15.0702 10.3854 12.5368 12.0013 10.27C13.3422 8.36995 14.0298 8.30328 15.7145 9.87001C16.9867 11.0701 18.2244 12.3368 19.4965 13.5368C20.3217 14.3035 20.528 15.1369 19.806 16.0702C19.4278 16.5703 19.1183 17.1036 18.8433 17.6703C18.2588 18.837 18.5682 19.337 19.9091 19.337C22.2471 19.3704 24.5507 19.337 26.923 19.337C29.3985 19.3704 31.2208 20.8371 31.8052 23.2372C32.2522 25.1706 31.152 27.5373 29.0203 28.304C27.7826 28.7707 26.3042 28.7041 24.9289 28.8041C24.4475 28.8707 23.9318 28.8374 23.4161 28.8374Z" fill="#007EA4"/>
<path d="M33.7319 0.00410467C41.8116 0.337449 48.9286 4.20424 53.8108 11.7712C55.4955 14.4046 55.0142 16.838 52.6075 18.2714C50.0288 19.8714 47.1408 19.2047 45.5248 16.6713C43.0837 12.8379 39.6455 10.4044 35.0728 9.57109C31.4283 8.93773 27.6463 9.60442 24.4832 11.5045C23.0391 12.3712 22.5922 12.2712 21.3888 11.1045L17.5381 7.37102C16.4378 6.23765 16.4722 5.47095 17.7787 4.53759C21.8702 1.63749 27.4744 -0.0958986 33.7319 0.00410467ZM34.0757 43.2055V40.0054C34.0069 39.2721 34.5227 38.6387 35.2791 38.5387C39.8862 37.6054 43.29 35.1053 45.6967 31.2385C46.7626 29.5051 48.4473 28.8384 50.4414 29.1384C52.2637 29.4051 53.6733 30.3051 54.4641 31.9718C54.9798 33.0719 54.9111 34.3386 54.3266 35.4053C50.6477 42.1722 43.8745 46.8057 36.0698 47.9057C34.7289 48.0724 34.1101 47.6057 34.0757 46.3056C34.0413 45.3056 34.0757 44.2722 34.0757 43.2055Z" fill="#1AA64A"/>
<path d="M72.034 14.3712V35.9385H67.8051V14.3712H60.9287V10.9378H78.8416V14.3712H72.034V14.3712Z" fill="#007EA4"/>
<path d="M101.36 36.0041V9.50311H105.176V26.5037L112.19 19.7701H116.9L109.336 26.9037L117.657 35.9707H112.671L105.142 27.6038V35.9707H101.325V36.0041H101.36Z" fill="#007EA4"/>
<path d="M173.115 43.6046H169.161L173.768 34.571L167.614 19.7371H171.877L174.937 28.1041L175.418 29.6375C175.556 30.1708 175.659 30.7042 175.728 31.2708C176.037 30.3375 176.381 29.4375 176.828 28.5708L176.931 28.3708L181.057 19.7371H185.217L173.115 43.6046ZM187.246 43.6046V19.7704H191.062V22.4372C191.475 21.4372 192.231 20.6038 193.194 20.0705C194.26 19.4704 195.463 19.2038 196.701 19.2038C198.798 19.1371 200.792 20.0371 202.099 21.6038C203.474 23.2039 204.162 25.304 204.162 27.8707C204.162 30.5708 203.508 32.7376 202.133 34.3043C200.758 35.871 198.901 36.6377 196.563 36.6377C194.328 36.7377 192.231 35.671 191.028 33.8709V43.6046H187.246V43.6046ZM190.959 27.8374C190.959 29.5041 191.406 30.8375 192.231 31.8709C193.056 32.8376 194.328 33.4043 195.635 33.3709C197.079 33.3709 198.214 32.9042 199.004 31.9709C199.795 31.0375 200.208 29.7041 200.208 27.9707C200.208 26.2373 199.795 24.9373 198.97 23.9706C198.11 23.0039 196.873 22.4705 195.566 22.5039C194.122 22.5039 192.988 22.9706 192.197 23.9373C191.406 24.904 190.959 26.1707 190.959 27.8374ZM209.181 36.0043V23.0372H206.259V19.7704H209.181V13.6369H212.998V19.7704H215.92V23.0372H212.998V36.0043H209.181ZM218.018 27.8707C217.983 26.704 218.258 25.5707 218.74 24.5373C219.668 22.4039 221.456 20.7372 223.656 19.9038C225.925 19.0371 228.435 19.0371 230.704 19.9038C231.839 20.3371 232.836 21.0038 233.661 21.8372C234.521 22.6372 235.208 23.6039 235.655 24.6706C236.584 26.804 236.618 29.2041 235.69 31.3375C235.243 32.4042 234.555 33.3376 233.696 34.1376C231.942 35.8043 229.57 36.7044 227.094 36.7044C225.891 36.7044 224.722 36.5044 223.587 36.071C222.487 35.6377 221.456 35.0043 220.631 34.171C219.771 33.3709 219.118 32.4042 218.636 31.3375C218.224 30.2041 217.983 29.0374 218.018 27.8707ZM232.424 27.9374C232.458 26.504 231.908 25.1373 230.876 24.1039C229.948 23.1039 228.607 22.5372 227.197 22.5706C225.788 22.5706 224.481 23.1372 223.519 24.1039C221.524 26.2707 221.524 29.5708 223.519 31.7375C225.41 33.7043 228.607 33.8043 230.636 31.9709C230.704 31.9042 230.808 31.8375 230.876 31.7375C231.873 30.7042 232.424 29.3374 232.424 27.9374Z" fill="#1AA64A"/>
</svg>
