<svg width="27" height="26" viewBox="0 0 27 26" fill="none" xmlns="http://www.w3.org/2000/svg">
<path d="M13.3241 26.0005C20.6828 26.0005 26.6483 20.1801 26.6483 13.0002C26.6483 5.8204 20.6828 0 13.3241 0C5.96542 0 0 5.8204 0 13.0002C0 20.1801 5.96542 26.0005 13.3241 26.0005Z" fill="#1E50FF"/>
<path d="M13.343 6.30219L13.2665 6.24609L13.1899 6.30219C13.1899 6.30219 9.28687 8.46766 7.52637 9.28917C7.52637 9.28917 8.36834 13.9189 8.98036 16.01C9.59238 18.1011 11.9652 19.2207 13.2665 19.9675C14.5674 19.2207 16.9399 18.1008 17.5526 16.01C18.1652 13.9192 19.0066 9.28917 19.0066 9.28917C17.2461 8.46766 13.343 6.30219 13.343 6.30219Z" fill="white"/>
<path d="M12.8659 15.2547L10.2775 13.0902C10.2184 13.0407 10.1698 12.9804 10.1345 12.9126C10.0993 12.8448 10.078 12.7709 10.0721 12.695C10.0661 12.6192 10.0755 12.543 10.0997 12.4708C10.1239 12.3985 10.1624 12.3316 10.2132 12.2738C10.2639 12.2161 10.3257 12.1687 10.3952 12.1343C10.4647 12.0999 10.5405 12.0792 10.6182 12.0734C10.6959 12.0675 10.774 12.0767 10.8481 12.1003C10.9221 12.1239 10.9907 12.1615 11.0499 12.211L12.7476 13.6306L15.6517 10.4016C15.7025 10.3427 15.7649 10.2942 15.8352 10.259C15.9055 10.2239 15.9823 10.2028 16.0611 10.197C16.1399 10.1911 16.219 10.2007 16.294 10.2251C16.3689 10.2495 16.4381 10.2883 16.4974 10.3391C16.5568 10.39 16.6052 10.4519 16.6398 10.5212C16.6743 10.5905 16.6943 10.6658 16.6987 10.7428C16.703 10.8197 16.6915 10.8968 16.665 10.9693C16.6384 11.0419 16.5972 11.1086 16.5439 11.1655L12.8659 15.2547Z" fill="#1E50FF"/>
</svg>
