<svg width="197" height="50" viewBox="0 0 197 50" fill="none" xmlns="http://www.w3.org/2000/svg">
<path d="M65.8387 20.0324H60.4641V16.9613H75.0997V20.0324H69.7251V33.2455H65.8387V20.0324ZM78.7818 22.3819C79.2294 21.7769 79.8295 21.3193 80.5811 21.009C81.3487 20.6992 82.2284 20.5438 83.2201 20.5438V23.894C82.8046 23.8628 82.5246 23.8472 82.3804 23.8472C81.3088 23.8472 80.469 24.1419 79.8611 24.7313C79.2532 25.3051 78.9493 26.1736 78.9493 27.3367V33.2455H75.2065V20.7299H78.7818V22.3819ZM97.1046 20.7299V33.2455H93.5532V31.7565C93.0574 32.2991 92.4656 32.718 91.7778 33.0127C91.09 33.2918 90.3462 33.4316 89.5464 33.4316C87.8509 33.4316 86.5075 32.9584 85.5158 32.0125C84.5241 31.0666 84.0282 29.663 84.0282 27.8019V20.7299H87.771V27.2668C87.771 29.2828 88.6429 30.2911 90.3862 30.2911C91.2819 30.2911 92.0019 30.012 92.5459 29.4533C93.0895 28.8795 93.3613 28.0347 93.3613 26.9178V20.7299H97.1046ZM103.476 33.4316C102.403 33.4316 101.356 33.3074 100.332 33.0595C99.3085 32.7955 98.4926 32.4701 97.8847 32.0824L99.1326 29.477C99.7084 29.8335 100.404 30.1282 101.22 30.3605C102.036 30.5778 102.835 30.6864 103.619 30.6864C105.203 30.6864 105.995 30.3067 105.995 29.5464C105.995 29.1898 105.778 28.9339 105.347 28.779C104.915 28.6241 104.251 28.4918 103.355 28.3832C102.3 28.2283 101.428 28.0498 100.74 27.8486C100.052 27.647 99.4527 27.2899 98.9407 26.7785C98.4449 26.2666 98.1969 25.5379 98.1969 24.5915C98.1969 23.801 98.4288 23.103 98.8925 22.498C99.3723 21.8775 100.06 21.3967 100.956 21.0558C101.868 20.7148 102.939 20.5438 104.171 20.5438C105.083 20.5438 105.986 20.6449 106.882 20.8466C107.794 21.0326 108.546 21.2961 109.138 21.6371L107.89 24.2194C106.755 23.5993 105.515 23.289 104.171 23.289C103.371 23.289 102.772 23.3977 102.372 23.6144C101.972 23.8317 101.772 24.1107 101.772 24.4522C101.772 24.8399 101.988 25.111 102.42 25.2664C102.852 25.4212 103.539 25.5686 104.483 25.7084C105.539 25.8789 106.402 26.0649 107.074 26.2666C107.746 26.4527 108.33 26.8017 108.826 27.3136C109.322 27.825 109.57 28.5386 109.57 29.4533C109.57 30.2288 109.33 30.9192 108.85 31.5237C108.37 32.1286 107.666 32.6018 106.739 32.9428C105.827 33.2687 104.739 33.4316 103.476 33.4316ZM118.765 32.6406C118.397 32.9041 117.942 33.1057 117.397 33.2455C116.87 33.3692 116.31 33.4316 115.718 33.4316C114.183 33.4316 112.991 33.0514 112.143 32.2916C111.311 31.5317 110.895 30.4148 110.895 28.9419V23.801H108.904V21.009H110.895V17.9621H114.638V21.009H117.853V23.801H114.638V28.8951C114.638 29.4226 114.774 29.8335 115.046 30.1282C115.334 30.4073 115.734 30.5471 116.246 30.5471C116.838 30.5471 117.341 30.3917 117.757 30.0814L118.765 32.6406ZM150.431 16.9613L144.937 33.2455H140.762L137.067 22.2189L133.252 33.2455H129.101L123.583 16.9613H127.613L131.404 28.4068L135.363 16.9613H138.962L142.801 28.4999L146.712 16.9613H150.431ZM155.143 20.5438C157.143 20.5438 158.679 21.009 159.75 21.9398C160.822 22.8546 161.358 24.2425 161.358 26.1037V33.2455H157.854V31.6866C157.151 32.8498 155.839 33.4316 153.92 33.4316C152.928 33.4316 152.064 33.2687 151.328 32.9428C150.608 32.6174 150.057 32.1674 149.673 31.5936C149.289 31.0198 149.097 30.3686 149.097 29.6394C149.097 28.4767 149.545 27.5615 150.441 26.8947C151.352 26.2279 152.752 25.8945 154.64 25.8945H157.615C157.615 25.1034 157.367 24.4985 156.871 24.0801C156.375 23.6456 155.631 23.4283 154.64 23.4283C153.952 23.4283 153.272 23.537 152.6 23.7542C151.944 23.9559 151.384 24.235 150.921 24.5915L149.577 22.056C150.281 21.5752 151.12 21.2031 152.096 20.9396C153.088 20.6756 154.104 20.5438 155.143 20.5438ZM154.855 30.9886C155.495 30.9886 156.063 30.8493 156.559 30.5702C157.055 30.2755 157.407 29.8491 157.615 29.2909V28.0111H155.047C153.512 28.0111 152.744 28.4999 152.744 29.477C152.744 29.9421 152.928 30.3143 153.296 30.5934C153.68 30.8569 154.2 30.9886 154.855 30.9886ZM163.306 15.9847H167.048V33.2455H163.306V15.9847ZM169.083 15.9847H172.826V33.2455H169.083V15.9847ZM187.505 27.034C187.505 27.0807 187.481 27.4066 187.433 28.0111H177.667C177.843 28.7865 178.259 29.399 178.915 29.8491C179.571 30.2987 180.386 30.5234 181.362 30.5234C182.034 30.5234 182.626 30.4304 183.138 30.2444C183.665 30.0427 184.153 29.7329 184.601 29.314L186.593 31.4075C185.377 32.7567 183.602 33.4316 181.266 33.4316C179.811 33.4316 178.523 33.16 177.403 32.6174C176.284 32.0587 175.42 31.2913 174.812 30.3143C174.204 29.3372 173.9 28.2283 173.9 26.9877C173.9 25.7627 174.196 24.6614 174.788 23.6843C175.396 22.6921 176.22 21.9242 177.259 21.3816C178.315 20.8229 179.491 20.5438 180.786 20.5438C182.05 20.5438 183.194 20.8078 184.217 21.3349C185.241 21.8624 186.041 22.6222 186.617 23.6144C187.208 24.5915 187.505 25.7315 187.505 27.034ZM180.811 23.289C179.963 23.289 179.251 23.5214 178.675 23.987C178.099 24.4522 177.747 25.0878 177.619 25.8945H183.978C183.849 25.1034 183.498 24.4753 182.922 24.0102C182.346 23.5294 181.642 23.289 180.811 23.289ZM196.882 32.6406C196.515 32.9041 196.059 33.1057 195.515 33.2455C194.987 33.3692 194.427 33.4316 193.836 33.4316C192.3 33.4316 191.108 33.0514 190.26 32.2916C189.428 31.5317 189.013 30.4148 189.013 28.9419V23.801H187.021V21.009H189.013V17.9621H192.756V21.009H195.971V23.801H192.756V28.8951C192.756 29.4226 192.892 29.8335 193.163 30.1282C193.451 30.4073 193.851 30.5471 194.363 30.5471C194.955 30.5471 195.459 30.3917 195.875 30.0814L196.882 32.6406Z" fill="#3375BB"/>
<path d="M33.1021 1H16.8397C7.65911 1 0.216797 8.2156 0.216797 17.1165V32.8835C0.216797 41.7844 7.65911 49 16.8397 49H33.1021C42.2826 49 49.7249 41.7844 49.7249 32.8835V17.1165C49.7249 8.2156 42.2826 1 33.1021 1Z" fill="white" stroke="#DFE5EC" stroke-width="0.366284"/>
<path d="M2.10864 25.3466C2.10864 13.0286 12.408 3.04318 25.1128 3.04318C37.8178 3.04318 48.1172 13.0286 48.1172 25.3466C48.1172 37.6647 37.8178 47.6503 25.1128 47.6503C12.408 47.6503 2.10864 37.6647 2.10864 25.3466Z" fill="white"/>
<path d="M25.126 12.0166C29.7682 15.7756 35.0919 15.5438 36.6127 15.5438C36.2802 36.9212 33.7449 32.682 25.126 38.6763C16.5073 32.682 13.9882 36.9212 13.6555 15.5438C15.1606 15.5438 20.484 15.7756 25.126 12.0166Z" stroke="#3375BB" stroke-width="2.22079" stroke-miterlimit="10" stroke-linecap="round" stroke-linejoin="round"/>
</svg>
