<svg width="29" height="14" viewBox="0 0 29 14" fill="none" xmlns="http://www.w3.org/2000/svg">
<path d="M28.976 6.76223C28.9761 8.09964 28.5795 9.40705 27.8366 10.5191C27.0936 11.6312 26.0375 12.4979 24.8019 13.0097C23.5663 13.5215 22.2067 13.6554 20.8949 13.3945C19.5832 13.1336 18.3784 12.4895 17.4327 11.5437L17.3929 11.5015L10.1542 3.32702C9.47649 2.65724 8.61582 2.20288 7.68049 2.02111C6.74516 1.83934 5.77696 1.9383 4.89773 2.30551C4.01851 2.67273 3.26755 3.29181 2.73935 4.08483C2.21115 4.87786 1.92932 5.8094 1.92932 6.76223C1.92932 7.71506 2.21115 8.6466 2.73935 9.43962C3.26755 10.2326 4.01851 10.8517 4.89773 11.2189C5.77696 11.5862 6.74516 11.6851 7.68049 11.5033C8.61582 11.3216 9.47649 10.8672 10.1542 10.1974L11.1829 9.03586C11.3528 8.84372 11.5921 8.72693 11.8481 8.7112C12.1041 8.69546 12.3558 8.78206 12.548 8.95194C12.7401 9.12183 12.8569 9.36108 12.8726 9.61707C12.8884 9.87307 12.8018 10.1248 12.6319 10.317L11.5826 11.5015L11.5428 11.5437C10.5971 12.4893 9.39226 13.1332 8.08063 13.3941C6.769 13.6549 5.40948 13.521 4.17397 13.0092C2.93847 12.4974 1.88247 11.6307 1.13951 10.5188C0.396552 9.40683 0 8.09954 0 6.76223C0 5.42491 0.396552 4.11763 1.13951 3.00568C1.88247 1.89373 2.93847 1.02706 4.17397 0.515263C5.40948 0.00346301 6.769 -0.130482 8.08063 0.130365C9.39226 0.391213 10.5971 1.03514 11.5428 1.98071L11.5826 2.02297L18.8213 10.1974C19.499 10.8672 20.3597 11.3216 21.295 11.5033C22.2303 11.6851 23.1985 11.5862 24.0777 11.2189C24.957 10.8517 25.7079 10.2326 26.2361 9.43962C26.7643 8.6466 27.0462 7.71506 27.0462 6.76223C27.0462 5.8094 26.7643 4.87786 26.2361 4.08483C25.7079 3.29181 24.957 2.67273 24.0777 2.30551C23.1985 1.9383 22.2303 1.83934 21.295 2.02111C20.3597 2.20288 19.499 2.65724 18.8213 3.32702L17.7925 4.48859C17.6227 4.68074 17.3834 4.79752 17.1274 4.81326C16.8714 4.829 16.6197 4.7424 16.4275 4.57251C16.2354 4.40263 16.1186 4.16337 16.1028 3.90738C16.0871 3.65139 16.1737 3.39963 16.3436 3.20749L17.3929 2.02297L17.4327 1.98071C18.3784 1.03497 19.5832 0.390898 20.8949 0.129955C22.2067 -0.130989 23.5663 0.00291708 24.8019 0.514737C26.0375 1.02656 27.0936 1.8933 27.8366 3.00535C28.5795 4.1174 28.9761 5.42481 28.976 6.76223Z" fill="white"/>
</svg>
