<svg width="114" height="112" viewBox="0 0 114 112" fill="none" xmlns="http://www.w3.org/2000/svg">
<g id="Group 1000004847">
<g id="Group">
<path id="Vector_6" d="M33.8112 107.203C62.4748 119.708 95.9868 106.921 108.662 78.6431C121.338 50.3646 108.378 17.3027 79.7139 4.79726C51.0505 -7.70815 17.5384 5.07842 4.86261 33.3569C-7.81315 61.6354 5.1476 94.6974 33.8112 107.203Z" fill="url(#paint0_radial_381_20451)"/>
</g>
<path id="Vector_7" d="M69.0418 53.002C69.5633 49.5173 66.9088 47.6441 63.2788 46.3944L64.456 41.6741L61.5813 40.9581L60.4349 45.554C59.6791 45.3657 58.9028 45.1882 58.1315 45.0122L59.2861 40.386L56.4127 39.6699L55.2344 44.3887C54.6088 44.2462 53.9946 44.1055 53.3985 43.9573L53.4018 43.9426L49.4369 42.9533L48.6721 46.0221C48.6721 46.0221 50.8052 46.5107 50.7602 46.541C51.9246 46.8314 52.1351 47.6015 52.0998 48.2121L50.7585 53.5895C50.8388 53.61 50.9428 53.6395 51.0574 53.6853C50.9616 53.6616 50.8593 53.6354 50.7536 53.61L48.8735 61.143C48.7311 61.4966 48.3699 62.0269 47.556 61.8256C47.5847 61.8673 45.4663 61.3043 45.4663 61.3043L44.0391 64.5935L47.7804 65.5255C48.4764 65.6999 49.1585 65.8825 49.8299 66.0538L48.6402 70.8286L51.5119 71.5446L52.6902 66.8207C53.4747 67.0335 54.2362 67.23 54.9814 67.4151L53.8071 72.1163L56.6821 72.8329L57.8719 68.0675C62.7744 68.9944 66.4607 68.6203 68.0123 64.1893C69.2627 60.621 67.9504 58.5627 65.3712 57.2206C67.2496 56.7877 68.6646 55.5528 69.0418 53.002ZM62.473 62.2078C61.5845 65.7761 55.5734 63.8467 53.6245 63.3632L55.2033 57.0382C57.1521 57.5243 63.4016 58.4867 62.473 62.2078ZM63.3623 52.9504C62.5516 56.196 57.5485 54.547 55.9255 54.1428L57.3568 48.406C58.9798 48.8103 64.2064 49.5648 63.3623 52.9504Z" fill="url(#paint1_linear_381_20451)"/>
</g>
<defs>
<radialGradient id="paint0_radial_381_20451" cx="0" cy="0" r="1" gradientUnits="userSpaceOnUse" gradientTransform="translate(103.164 50.0639) rotate(172.885) scale(111.669 100.161)">
<stop stop-color="#FF994F"/>
<stop offset="0.71875" stop-color="#EB6E53"/>
<stop offset="0.895833" stop-color="#DEFFFB"/>
</radialGradient>
<linearGradient id="paint1_linear_381_20451" x1="44.2536" y1="45.2688" x2="68.4858" y2="73.4253" gradientUnits="userSpaceOnUse">
<stop stop-color="#6F3500" stop-opacity="0.34"/>
<stop offset="1" stop-color="#B55700" stop-opacity="0.72"/>
</linearGradient>
</defs>
</svg>
