<svg width="50" height="49" viewBox="0 0 50 49" fill="none" xmlns="http://www.w3.org/2000/svg">
<path d="M8.80876 0H40.9348C45.8056 0 49.7436 3.93803 49.7436 8.80876V39.6912C49.7436 44.562 45.8056 48.5 40.9348 48.5H8.80876C3.93803 48.5 0 44.562 0 39.6912V8.80876C0 3.93803 3.93803 0 8.80876 0Z" fill="#49021F"/>
<path d="M18.0732 12.6846V34.0329C18.0732 34.2609 17.9695 34.3646 17.783 34.3646H13.7206C13.5341 34.3646 13.4512 34.2609 13.4512 34.0329V12.6846C13.4512 12.4981 13.5548 12.4152 13.7413 12.4152H17.783C17.9074 12.3945 18.0317 12.4774 18.0525 12.6225C18.0732 12.6432 18.0732 12.6639 18.0732 12.6846Z" fill="#FF3366"/>
<path d="M30.0528 34.6133C28.519 34.634 26.9853 34.3231 25.5966 33.6806C24.2908 33.0795 23.2131 32.0846 22.4669 30.8618C21.7 29.5975 21.3269 28.0222 21.3269 26.1361C21.3062 24.6024 21.7 23.0893 22.4669 21.7628C23.2545 20.4156 24.3945 19.2964 25.7624 18.5502C27.2133 17.7419 28.9543 17.3481 31.0062 17.3481C31.1099 17.3481 31.2549 17.3481 31.4415 17.3688C31.628 17.3895 31.8353 17.3895 32.084 17.4103V10.8607C32.084 10.7156 32.1462 10.6327 32.2913 10.6327H36.4987C36.6024 10.612 36.6853 10.6949 36.706 10.7778V10.8192V30.5509C36.706 30.9239 36.7267 31.3385 36.7475 31.7945C36.7889 32.2297 36.8096 32.6442 36.8304 32.9966C36.8304 33.1417 36.7682 33.266 36.6231 33.3282C35.5453 33.7842 34.4054 34.1158 33.2447 34.3231C32.2084 34.5096 31.1306 34.6133 30.0528 34.6133ZM32.084 30.468V21.3483C31.8975 21.3069 31.7109 21.2654 31.5244 21.2447C31.2964 21.2239 31.0684 21.2032 30.8404 21.2032C30.0321 21.2032 29.2237 21.369 28.4983 21.7421C27.7936 22.0945 27.1925 22.6126 26.7366 23.2759C26.2806 23.9391 26.0526 24.8304 26.0526 25.9081C26.0319 26.6336 26.1562 27.359 26.4049 28.043C26.6122 28.6026 26.9231 29.1 27.3376 29.5145C27.7314 29.8876 28.2081 30.1778 28.747 30.3436C29.3066 30.5301 29.887 30.613 30.4673 30.613C30.7782 30.613 31.0684 30.5923 31.3378 30.5716C31.6073 30.5923 31.856 30.5509 32.084 30.468Z" fill="#FF3366"/>
</svg>
