<svg width="49" height="48" viewBox="0 0 49 48" fill="none" xmlns="http://www.w3.org/2000/svg">
<path d="M8.90839 0H40.3721C45.1424 0 48.9992 3.85684 48.9992 8.62714V38.8729C48.9992 43.6432 45.1424 47.5 40.3721 47.5H8.90839C4.13809 47.5 0.28125 43.6432 0.28125 38.8729V8.62714C0.28125 3.85684 4.13809 0 8.90839 0Z" fill="#330000"/>
<path d="M23.8891 28.5H16.3378L14.7951 33.2703C14.7545 33.4529 14.5921 33.5747 14.4094 33.5544H10.5932C10.3699 33.5544 10.309 33.4327 10.3699 33.1891L16.9062 14.3718C16.9671 14.1688 17.028 13.9455 17.1092 13.7019C17.1904 13.2756 17.231 12.829 17.231 12.3824C17.2107 12.2809 17.2919 12.1794 17.3934 12.1591C17.4137 12.1591 17.434 12.1591 17.4543 12.1591H22.6509C22.8133 12.1591 22.8945 12.22 22.9148 12.3215L30.324 33.2297C30.3849 33.453 30.324 33.5544 30.121 33.5544H25.8784C25.7363 33.5747 25.5943 33.4732 25.5537 33.3312L23.8891 28.5ZM17.5152 24.3792H22.6712C22.5494 23.953 22.387 23.4455 22.2043 22.9177C22.0216 22.3696 21.8389 21.7809 21.6562 21.172C21.4532 20.5427 21.2705 19.9337 21.0675 19.3044C20.8646 18.6752 20.6819 18.0865 20.5195 17.4978C20.3571 16.9294 20.215 16.4017 20.0729 15.9145H20.0323C19.8496 16.7874 19.6263 17.6602 19.3421 18.5331C19.0376 19.5074 18.7331 20.5224 18.4084 21.5374C18.1242 22.5726 17.8197 23.5267 17.5152 24.3792Z" fill="#FF9A00"/>
<path d="M34.7499 15.6303C34.0801 15.6506 33.4305 15.3867 32.9433 14.9199C32.4764 14.4124 32.2328 13.7425 32.2531 13.0523C32.2328 12.3622 32.4967 11.7126 32.9839 11.2457C33.4711 10.7788 34.1206 10.5352 34.7905 10.5352C35.5822 10.5352 36.1912 10.7788 36.6377 11.2457C37.0843 11.7329 37.3279 12.3825 37.3076 13.0523C37.3279 13.7425 37.0843 14.4124 36.5971 14.9199C36.1303 15.407 35.4401 15.6709 34.7499 15.6303ZM32.4764 33.25V17.6196C32.4764 17.4167 32.5576 17.3355 32.7403 17.3355H36.7595C36.9422 17.3355 37.0234 17.437 37.0234 17.6196V33.25C37.0234 33.4733 36.9422 33.5748 36.7595 33.5748H32.7809C32.5779 33.5748 32.4764 33.453 32.4764 33.25Z" fill="#FF9A00"/>
</svg>
