<svg width="49" height="48" viewBox="0 0 49 48" fill="none" xmlns="http://www.w3.org/2000/svg">
<path d="M8.59981 0.48526H39.914C44.6616 0.48526 48.5001 4.32377 48.5001 9.0714V39.1734C48.5001 43.921 44.6616 47.7596 39.914 47.7596H8.59981C3.85218 47.7596 0.0136719 43.921 0.0136719 39.1734V9.0714C0.0136719 4.32377 3.85218 0.48526 8.59981 0.48526Z" fill="#001E36"/>
<path d="M10.9219 33.6378V12.8493C10.9219 12.7079 10.9825 12.627 11.1239 12.627C11.4673 12.627 11.7906 12.627 12.2553 12.6068C12.7401 12.5866 13.2452 12.5866 13.7907 12.5664C14.3361 12.5462 14.922 12.5462 15.5483 12.526C16.1746 12.5058 16.7807 12.5058 17.3867 12.5058C19.0434 12.5058 20.4171 12.7079 21.5485 13.1321C22.5586 13.4756 23.4879 14.0412 24.2556 14.7887C24.9021 15.4352 25.4072 16.2231 25.7304 17.0918C26.0335 17.9404 26.1951 18.8091 26.1951 19.7182C26.1951 21.4556 25.7911 22.89 24.9829 24.0214C24.1748 25.1527 23.0435 26.0012 21.7303 26.4861C20.3565 26.9912 18.8413 27.173 17.1847 27.173C16.6998 27.173 16.3766 27.173 16.1746 27.1528C15.9725 27.1326 15.6897 27.1326 15.3059 27.1326V33.6176C15.3261 33.7591 15.225 33.8803 15.0836 33.9005C15.0634 33.9005 15.0432 33.9005 15.0028 33.9005H11.1643C11.0027 33.9005 10.9219 33.8197 10.9219 33.6378ZM15.3261 16.5262V23.3143C15.6089 23.3345 15.8715 23.3547 16.114 23.3547H17.1847C17.9726 23.3547 18.7605 23.2335 19.508 22.991C20.1545 22.8092 20.7202 22.4253 21.1646 21.9203C21.5889 21.4152 21.7909 20.7283 21.7909 19.8394C21.8111 19.2131 21.6495 18.5868 21.3263 18.0414C20.9828 17.5161 20.4979 17.112 19.9121 16.8898C19.1646 16.5868 18.3565 16.4656 17.5282 16.4858C17.0029 16.4858 16.5382 16.4858 16.1544 16.506C15.7503 16.4858 15.4675 16.506 15.3261 16.5262Z" fill="#31A8FF"/>
<path d="M38.8028 22.0819C38.1968 21.7587 37.5503 21.5364 36.8634 21.395C36.1159 21.2334 35.3684 21.1324 34.6007 21.1324C34.1966 21.1122 33.7724 21.1728 33.3885 21.2738C33.1259 21.3344 32.9036 21.4758 32.7622 21.6779C32.6612 21.8395 32.6006 22.0415 32.6006 22.2233C32.6006 22.4052 32.6814 22.587 32.8026 22.7486C32.9845 22.9708 33.2269 23.1527 33.4895 23.2941C33.9542 23.5365 34.4391 23.7587 34.9239 23.9608C36.0149 24.3244 37.0654 24.8295 38.0351 25.4356C38.7018 25.8598 39.2473 26.4255 39.6311 27.1124C39.9544 27.7589 40.116 28.466 40.0958 29.1933C40.116 30.1428 39.8332 31.0923 39.3079 31.8802C38.7422 32.6883 37.9543 33.3146 37.0452 33.6783C36.0553 34.1025 34.8431 34.3248 33.3885 34.3248C32.4592 34.3248 31.5501 34.2439 30.6409 34.0621C29.9339 33.9409 29.2268 33.7187 28.5803 33.4156C28.4389 33.3348 28.3378 33.1934 28.358 33.0318V29.5165C28.358 29.4559 28.3782 29.3751 28.4389 29.3347C28.4995 29.2943 28.5601 29.3145 28.6207 29.3549C29.4086 29.8195 30.2369 30.1428 31.1258 30.3448C31.8935 30.5468 32.7016 30.6479 33.5097 30.6479C34.2774 30.6479 34.8229 30.5468 35.1866 30.365C35.5098 30.2236 35.732 29.8802 35.732 29.5165C35.732 29.2337 35.5704 28.971 35.2472 28.7084C34.9239 28.4458 34.2572 28.1427 33.2673 27.7589C32.237 27.3952 31.2874 26.9104 30.3985 26.3043C29.7722 25.8598 29.247 25.2739 28.8631 24.5871C28.5399 23.9406 28.3782 23.2335 28.3984 22.5264C28.3984 21.6577 28.6409 20.8294 29.0853 20.0819C29.5904 19.2737 30.3379 18.6273 31.2066 18.2232C32.1561 17.7383 33.3481 17.5161 34.7825 17.5161C35.6108 17.5161 36.4593 17.5767 37.2876 17.6979C37.8937 17.7787 38.4796 17.9404 39.0251 18.1626C39.1059 18.1828 39.1867 18.2636 39.2271 18.3444C39.2473 18.4252 39.2675 18.506 39.2675 18.5869V21.8799C39.2675 21.9607 39.2271 22.0415 39.1665 22.0819C38.9847 22.1223 38.8836 22.1223 38.8028 22.0819Z" fill="#31A8FF"/>
</svg>
