<svg width="48" height="48" viewBox="0 0 48 48" fill="none" xmlns="http://www.w3.org/2000/svg">
<path d="M8.50016 0.699127H39.5007C44.2008 0.699127 48.0009 4.4992 48.0009 9.19929V38.9998C48.0009 43.6999 44.2008 47.5 39.5007 47.5H8.50016C3.80007 47.5 0 43.6999 0 38.9998V9.19929C0 4.4992 3.80007 0.699127 8.50016 0.699127Z" fill="#00005B"/>
<path d="M19.2816 28.6996H11.8415L10.3214 33.4197C10.2814 33.5997 10.1214 33.7197 9.94144 33.6997H6.18137C5.96136 33.6997 5.90136 33.5797 5.96136 33.3397L12.4015 14.8794C12.4615 14.6794 12.5215 14.4994 12.6015 14.2593C12.6815 13.8393 12.7215 13.3993 12.7215 12.9593C12.7015 12.8593 12.7815 12.7593 12.8815 12.7393H12.9415H18.0616C18.2016 12.7393 18.3016 12.7993 18.3216 12.8993L25.6217 33.2997C25.6817 33.5197 25.6217 33.6197 25.4217 33.6197H21.2417C21.1016 33.6397 20.9616 33.5397 20.9216 33.3997L19.2816 28.5996V28.6996ZM13.0015 24.7195H18.0816C17.9616 24.2995 17.8016 23.7995 17.6216 23.2795C17.4416 22.7395 17.2616 22.1595 17.0816 21.5595C16.8816 20.9395 16.7016 20.3395 16.5016 19.7195C16.3016 19.0994 16.1216 18.5194 15.9616 17.9394C15.8016 17.3794 15.6615 16.8594 15.5215 16.3794H15.4815C15.3015 17.2394 15.0815 18.0994 14.8015 18.9594C14.5015 19.9195 14.2015 20.9195 13.8815 21.9195C13.6215 22.9395 13.3015 23.8795 13.0015 24.7195Z" fill="#9999FF"/>
<path d="M37.3993 26.8996H31.0591C31.1392 27.5196 31.3392 28.1396 31.6792 28.6796C32.0392 29.2197 32.5392 29.6397 33.1392 29.8797C33.9392 30.2197 34.8192 30.3997 35.6992 30.3797C36.3992 30.3597 37.0993 30.2997 37.7793 30.1597C38.3993 30.0797 38.9993 29.9197 39.5593 29.6997C39.6593 29.6197 39.7193 29.6597 39.7193 29.8597V32.9197C39.7193 32.9997 39.6993 33.0797 39.6793 33.1597C39.6393 33.2197 39.5993 33.2597 39.5393 33.2997C38.8993 33.5797 38.2393 33.7797 37.5393 33.8997C36.5993 34.0797 35.6592 34.1597 34.6992 34.1397C33.1792 34.1397 31.8992 33.8997 30.8591 33.4397C29.8791 33.0197 29.0191 32.3597 28.3391 31.5397C27.6991 30.7597 27.2391 29.8797 26.9591 28.9196C26.6791 27.9796 26.5391 26.9996 26.5391 25.9996C26.5391 24.9196 26.6991 23.8596 27.0391 22.8195C27.3591 21.8195 27.8591 20.8995 28.5391 20.0795C29.1991 19.2795 30.0191 18.6395 30.9591 18.1794C31.8992 17.7194 33.0192 17.5594 34.2992 17.5594C35.3592 17.5394 36.4192 17.7394 37.3993 18.1794C38.2193 18.5395 38.9393 19.0795 39.4993 19.7795C40.0193 20.4595 40.4393 21.2195 40.6993 22.0595C40.9593 22.8595 41.0793 23.6796 41.0793 24.4996C41.0793 24.9796 41.0593 25.3996 41.0393 25.7796C40.9993 26.1596 40.9793 26.4396 40.9593 26.6196C40.9393 26.7596 40.8193 26.8796 40.6793 26.8796C40.5593 26.8796 40.3393 26.8996 40.0193 26.9196C39.6993 26.9596 39.3193 26.9796 38.8593 26.9796C38.3993 26.9796 37.9193 26.8996 37.3993 26.8996ZM31.0591 23.9796H35.2792C35.7992 23.9796 36.1792 23.9796 36.4192 23.9596C36.5793 23.9396 36.7393 23.8996 36.8793 23.7996V23.5995C36.8793 23.3395 36.8393 23.0995 36.7593 22.8595C36.3992 21.7395 35.3392 20.9795 34.1592 21.0195C33.0592 20.9595 32.0192 21.5395 31.4992 22.5395C31.2592 22.9995 31.1191 23.4795 31.0591 23.9796Z" fill="#9999FF"/>
</svg>
