<svg width="50" height="48" viewBox="0 0 50 48" fill="none" xmlns="http://www.w3.org/2000/svg">
<path d="M9.26192 0.48526H40.5761C45.3237 0.48526 49.1622 4.32377 49.1622 9.0714V39.1734C49.1622 43.921 45.3237 47.7596 40.5761 47.7596H9.26192C4.51429 47.7596 0.675781 43.921 0.675781 39.1734V9.0714C0.675781 4.32377 4.51429 0.48526 9.26192 0.48526Z" fill="#470137"/>
<path d="M26.173 12.9099L20.1122 22.9102L26.5771 33.5167C26.6175 33.5975 26.6377 33.6783 26.6175 33.7591C26.5973 33.8399 26.5165 33.7793 26.3952 33.7995H21.7688C21.4456 33.7995 21.2234 33.7793 21.0819 33.5773C20.6577 32.7288 20.2132 31.9004 19.789 31.0519C19.3647 30.2236 18.9 29.3751 18.4152 28.5064C17.9303 27.6377 17.4455 26.769 16.9606 25.88H16.9202C16.4959 26.7488 16.0313 27.6175 15.5666 28.4862C15.1019 29.3549 14.6373 30.2236 14.1928 31.0721C13.7282 31.9206 13.2635 32.7894 12.7988 33.6177C12.718 33.8197 12.5564 33.8399 12.3342 33.8399H7.88958C7.80877 33.8399 7.74816 33.8803 7.74816 33.7793C7.72796 33.6985 7.74816 33.6177 7.78857 33.5571L14.0716 23.2537L7.95019 12.8897C7.88958 12.8089 7.86938 12.7281 7.90978 12.6877C7.95019 12.6271 8.031 12.6069 8.11181 12.6069H12.6978C12.7988 12.6069 12.8998 12.6271 12.9807 12.6473C13.0615 12.6877 13.1221 12.7483 13.1827 12.8291C13.5665 13.6978 14.011 14.5665 14.4757 15.4352C14.9605 16.304 15.4252 17.1525 15.9302 18.001C16.4151 18.8495 16.8596 19.698 17.2838 20.5667H17.3242C17.7485 19.6778 18.193 18.8091 18.6374 17.9606C19.0819 17.1121 19.5465 16.2636 20.0112 15.415C20.4759 14.5665 20.9203 13.6978 21.3648 12.8695C21.385 12.7887 21.4254 12.7079 21.486 12.6675C21.5668 12.6271 21.6476 12.6069 21.7486 12.6271H26.0114C26.1124 12.6069 26.2134 12.6675 26.2336 12.7685C26.2538 12.7887 26.2134 12.8695 26.173 12.9099Z" fill="#FF61F6"/>
<path d="M35.5041 34.2238C34.0091 34.244 32.5141 33.9409 31.1606 33.3146C29.8878 32.7288 28.8372 31.759 28.11 30.5671C27.3625 29.3347 26.9988 27.7993 26.9988 25.9609C26.9786 24.4659 27.3625 22.9911 28.11 21.6981C28.8777 20.3849 29.9888 19.294 31.3222 18.5667C32.7364 17.7788 34.4334 17.3949 36.4335 17.3949C36.5345 17.3949 36.6759 17.3949 36.8577 17.4151C37.0395 17.4353 37.2416 17.4353 37.484 17.4555V11.0715C37.484 10.9301 37.5446 10.8492 37.686 10.8492H41.7872C41.8882 10.829 41.969 10.9098 41.9892 10.9907C41.9892 11.0109 41.9892 11.0311 41.9892 11.0311V30.264C41.9892 30.6277 42.0094 31.0317 42.0296 31.4762C42.07 31.9004 42.0902 32.3045 42.1104 32.6479C42.1104 32.7894 42.0498 32.9106 41.9084 32.9712C40.8579 33.4156 39.7467 33.7389 38.6154 33.9409C37.585 34.1227 36.5547 34.2238 35.5041 34.2238ZM37.484 30.1832V21.294C37.3022 21.2536 37.1204 21.2132 36.9385 21.193C36.7163 21.1728 36.4941 21.1526 36.2718 21.1526C35.4839 21.1526 34.696 21.3142 33.9889 21.6779C33.302 22.0213 32.7162 22.5264 32.2717 23.1729C31.8272 23.8194 31.605 24.6881 31.605 25.7386C31.5848 26.4457 31.706 27.1528 31.9485 27.8195C32.1505 28.365 32.4535 28.8498 32.8576 29.2539C33.2414 29.6175 33.7061 29.9004 34.2314 30.062C34.7768 30.2438 35.3425 30.3246 35.9082 30.3246C36.2112 30.3246 36.4941 30.3044 36.7567 30.2842C37.0193 30.3044 37.2416 30.264 37.484 30.1832Z" fill="#FF61F6"/>
</svg>
