<svg width="41" height="48" viewBox="0 0 41 48" fill="none" xmlns="http://www.w3.org/2000/svg">
<g clip-path="url(#clip0_1450_12205)">
<path d="M33.3041 15.2344C33.3041 10.9375 30.861 7.16404 27.2098 5.07811L29.2284 1.39451C29.2895 1.28723 29.3287 1.16863 29.3436 1.04574C29.3586 0.922848 29.3491 0.798163 29.3156 0.679064C29.2822 0.559964 29.2254 0.448869 29.1488 0.352355C29.0722 0.255841 28.9772 0.175867 28.8694 0.117169C28.6575 -0.00175902 28.4076 -0.0307119 28.1746 0.0366665C27.9416 0.104045 27.7445 0.262248 27.6267 0.476544L25.5579 4.25779C22.3081 2.96617 18.6958 2.96617 15.4459 4.25779L13.3733 0.476544C13.3154 0.370056 13.2371 0.276231 13.1432 0.200469C13.0492 0.124707 12.9414 0.068507 12.8259 0.0351039C12.7103 0.00170093 12.5894 -0.00824478 12.4701 0.00583952C12.3508 0.0199238 12.2354 0.0577599 12.1306 0.117169C12.0254 0.175857 11.9327 0.25503 11.8578 0.35013C11.7829 0.44523 11.7274 0.554378 11.6944 0.671289C11.6614 0.788199 11.6516 0.910563 11.6655 1.03133C11.6794 1.1521 11.7168 1.26889 11.7755 1.37498L13.794 5.07811C10.139 7.16404 7.71911 10.9375 7.71911 15.2344H33.3041ZM37.6268 15.2344C38.0701 15.2344 38.509 15.3228 38.9185 15.4946C39.3281 15.6664 39.7001 15.9183 40.0134 16.2357C40.3267 16.5531 40.575 16.93 40.7443 17.3446C40.9136 17.7593 41.0005 18.2037 41 18.6523V30.7617C41.0005 31.2104 40.9136 31.6547 40.7443 32.0694C40.575 32.4841 40.3267 32.8609 40.0134 33.1783C39.7001 33.4958 39.3281 33.7476 38.9185 33.9194C38.509 34.0912 38.0701 34.1797 37.6268 34.1797C36.7311 34.1797 35.8721 33.8196 35.2388 33.1786C34.6055 32.5376 34.2497 31.6682 34.2497 30.7617V18.6523C34.2497 17.7458 34.6055 16.8764 35.2388 16.2355C35.8721 15.5945 36.7311 15.2344 37.6268 15.2344ZM3.37711 15.2344C4.27278 15.2344 5.13176 15.5945 5.76509 16.2355C6.39842 16.8764 6.75422 17.7458 6.75422 18.6523V30.7617C6.75422 31.6682 6.39842 32.5376 5.76509 33.1786C5.13176 33.8196 4.27278 34.1797 3.37711 34.1797C2.48279 34.1797 1.62497 33.8206 0.991865 33.1813C0.358756 32.542 0.002053 31.6747 8.82263e-06 30.7695V18.6601C-0.00100635 18.2106 0.0855959 17.7653 0.254857 17.3497C0.424118 16.9341 0.672713 16.5564 0.986407 16.2382C1.3001 15.92 1.67273 15.6675 2.08297 15.4953C2.4932 15.323 2.93298 15.2344 3.37711 15.2344ZM19.0932 38.1758V44.582C19.0932 45.4885 18.7374 46.3579 18.1041 46.9989C17.4707 47.6399 16.6118 48 15.7161 48C14.8221 47.9979 13.9655 47.6368 13.3345 46.9959C12.7034 46.355 12.3495 45.4868 12.3506 44.582V38.1758H10.8067C9.98786 38.1758 9.2025 37.8465 8.62346 37.2605C8.04441 36.6744 7.71911 35.8796 7.71911 35.0508V16.2617H33.3041V35.043C33.3041 35.8718 32.9788 36.6666 32.3997 37.2527C31.8207 37.8387 31.0353 38.168 30.2164 38.168H28.6726V44.5742C28.6726 45.4807 28.3168 46.3501 27.6835 46.9911C27.0501 47.6321 26.1912 47.9922 25.2955 47.9922C24.3998 47.9922 23.5409 47.6321 22.9075 46.9911C22.2742 46.3501 21.9184 45.4807 21.9184 44.5742V38.1758H19.0932Z" fill="#A4C639"/>
<path d="M15.1526 9.41014C15.1526 9.29718 15.1195 9.18676 15.0574 9.09289C14.9953 8.99902 14.9071 8.92593 14.8039 8.88288C14.7007 8.83983 14.5872 8.82877 14.4778 8.85109C14.3684 8.87342 14.268 8.92812 14.1893 9.00827C14.1107 9.08842 14.0573 9.19041 14.036 9.30129C14.0147 9.41218 14.0264 9.52697 14.0696 9.63111C14.1129 9.73525 14.1857 9.82405 14.2789 9.88625C14.3721 9.94844 14.4814 9.98123 14.593 9.98046C14.6668 9.98046 14.7399 9.96568 14.808 9.93697C14.8762 9.90826 14.9381 9.86619 14.9901 9.81318C15.0421 9.76017 15.0832 9.69727 15.1111 9.6281C15.139 9.55893 15.1531 9.48485 15.1526 9.41014Z" fill="white"/>
<path d="M14.6663 9.41011C14.6708 9.39747 14.6708 9.38369 14.6663 9.37105C14.6545 9.36247 14.6404 9.35785 14.6258 9.35785C14.6113 9.35785 14.5971 9.36247 14.5853 9.37105C14.5816 9.38381 14.5816 9.39735 14.5853 9.41011C14.5847 9.41796 14.5858 9.42583 14.5885 9.43321C14.5912 9.44058 14.5955 9.44728 14.601 9.45284C14.6065 9.4584 14.6131 9.4627 14.6204 9.46544C14.6277 9.46817 14.6354 9.46929 14.6432 9.46871C14.6558 9.4724 14.6692 9.4724 14.6818 9.46871C14.6872 9.4549 14.6872 9.43954 14.6818 9.42574L14.6663 9.41011ZM15.3649 8.62886C15.4642 8.72902 15.543 8.84804 15.5968 8.97909C15.6506 9.11014 15.6782 9.25064 15.6782 9.39253C15.6782 9.53443 15.6506 9.67493 15.5968 9.80598C15.543 9.93703 15.4642 10.056 15.3649 10.1562C15.1639 10.3585 14.8919 10.472 14.6084 10.472C14.325 10.472 14.053 10.3585 13.852 10.1562C13.7469 10.0573 13.6626 9.93791 13.604 9.80528C13.5455 9.67265 13.514 9.52944 13.5113 9.38421C13.5086 9.23897 13.5349 9.09468 13.5885 8.95993C13.6421 8.82517 13.7219 8.70273 13.8233 8.59988C13.9246 8.49703 14.0454 8.4159 14.1784 8.3613C14.3114 8.30671 14.4539 8.27978 14.5974 8.28212C14.7409 8.28446 14.8825 8.31602 15.0137 8.37492C15.1449 8.43382 15.263 8.51886 15.3611 8.62496L15.3649 8.62886Z" fill="white"/>
<path d="M26.9744 9.41016C26.9744 9.29736 26.9414 9.1871 26.8794 9.09331C26.8175 8.99952 26.7295 8.92642 26.6265 8.88326C26.5236 8.84009 26.4103 8.8288 26.301 8.8508C26.1917 8.87281 26.0913 8.92713 26.0125 9.00688C25.9336 9.08664 25.88 9.18826 25.8582 9.29889C25.8365 9.40952 25.8477 9.52419 25.8903 9.62841C25.933 9.73262 26.0052 9.82169 26.0978 9.88435C26.1905 9.94702 26.2995 9.98047 26.4109 9.98047C26.5604 9.98047 26.7037 9.92038 26.8094 9.81343C26.915 9.70647 26.9744 9.56141 26.9744 9.41016Z" fill="white"/>
<path d="M26.4649 9.41011C26.4693 9.39748 26.4693 9.38369 26.4649 9.37105C26.4531 9.36247 26.4389 9.35785 26.4244 9.35785C26.4099 9.35785 26.3957 9.36247 26.3839 9.37105C26.3802 9.38381 26.3802 9.39735 26.3839 9.41011C26.3833 9.41796 26.3844 9.42583 26.3871 9.43321C26.3898 9.44058 26.3941 9.44728 26.3996 9.45284C26.4051 9.4584 26.4117 9.4627 26.419 9.46544C26.4262 9.46817 26.434 9.46929 26.4418 9.46871C26.4544 9.4724 26.4678 9.4724 26.4804 9.46871C26.4857 9.4549 26.4857 9.43954 26.4804 9.42574L26.4649 9.41011ZM27.1635 8.62886C27.3523 8.8342 27.4549 9.10568 27.4497 9.38609C27.4445 9.6665 27.332 9.93393 27.1358 10.132C26.9396 10.33 26.6751 10.4433 26.398 10.4478C26.1209 10.4523 25.853 10.3478 25.6506 10.1562C25.5455 10.0573 25.4612 9.93791 25.4026 9.80528C25.3441 9.67265 25.3126 9.52944 25.3099 9.38421C25.3072 9.23897 25.3334 9.09468 25.387 8.95993C25.4406 8.82517 25.5205 8.70273 25.6219 8.59988C25.7232 8.49703 25.844 8.4159 25.977 8.3613C26.11 8.30671 26.2525 8.27978 26.396 8.28212C26.5395 8.28446 26.6811 8.31602 26.8123 8.37492C26.9435 8.43382 27.0616 8.51886 27.1596 8.62496L27.1635 8.62886Z" fill="white"/>
</g>
<defs>
<clipPath id="clip0_1450_12205">
<rect width="41" height="48" fill="white"/>
</clipPath>
</defs>
</svg>
