<svg width="164" height="82" viewBox="0 0 164 82" fill="none" xmlns="http://www.w3.org/2000/svg">
<path d="M51.0527 50.9769V32.49H53.4307L64.7331 47.3771V32.49H66.9935V50.9769H64.6155L53.2995 35.9436V50.9769H51.0391H51.0527ZM85.4066 50.243C83.8655 50.8125 82.2348 51.1009 80.5919 51.0944C73.8979 51.0944 70.5496 47.8937 70.5496 41.4635C70.5496 35.386 73.779 32.3315 80.2529 32.3315C82.1034 32.3315 83.8336 32.5952 85.4189 33.0968V35.1523C83.8336 34.5373 82.1895 34.2421 80.5153 34.2421C75.4655 34.2421 72.9399 36.6501 72.9399 41.4061C72.9399 46.5448 75.4354 49.1005 80.3978 49.1005C81.1905 49.1005 82.072 48.9829 83.0409 48.7779V42.5828H85.4189V50.2457L85.4066 50.243ZM89.2237 43.8415V32.4791H91.6017V43.8415C91.6017 47.3949 93.3784 49.1715 96.9317 49.1715C100.455 49.1715 102.262 47.3949 102.262 43.8415V32.4791H104.64V43.8415C104.64 48.6864 102.084 51.1231 96.9454 51.1231C91.8067 51.1231 89.2511 48.6864 89.2511 43.8415H89.2237ZM111.246 32.49V49.0636H120.95V51.0015H108.882V32.49H111.26H111.246ZM124.372 50.9878H121.876L131.063 30.0669L140.254 51.0015H137.611L135.233 45.1877H129.124L129.77 43.2498H134.439L130.974 34.8817L124.366 51.0015L124.372 50.9878ZM142.811 50.9878V32.49H150.71C154.233 32.49 155.995 33.9578 155.995 36.9235C155.995 39.3315 154.262 41.1219 150.829 42.2535L157.17 50.9728H154.027L148.154 42.6635V41.1369C151.678 40.5793 153.484 39.229 153.484 37.056C153.484 35.3532 152.528 34.5004 150.549 34.5004H145.264V50.9769H142.827L142.811 50.9878Z" fill="#B52E31"/>
<path d="M6.83301 27.5575L25.7709 20.8062L45.209 27.4413L42.0657 52.4869L25.7709 61.5L9.73991 52.6167L6.83301 27.5575Z" fill="#E23237"/>
<path d="M45.2096 27.4399L25.7715 20.8047V61.4999L42.0676 52.4854L45.2096 27.4399Z" fill="#B52E31"/>
<path d="M25.8023 25.5605L13.9971 51.7964L18.4018 51.709L20.7798 45.7776H31.3209L33.9176 51.7677L38.116 51.8552L25.8133 25.5469L25.8023 25.5605ZM25.8297 33.9874L29.8231 42.3268H22.3337L25.8297 33.9901V33.9874Z" fill="white"/>
</svg>
