<svg width="49" height="49" viewBox="0 0 49 49" fill="none" xmlns="http://www.w3.org/2000/svg">
<path d="M14.5134 22.6243C14.2886 22.3309 13.9568 22.1385 13.5905 22.0892C13.2243 22.0398 12.8534 22.1376 12.559 22.3611C12.3858 22.4976 12.2462 22.672 12.1506 22.8707L0.151226 46.8763C-0.0187259 47.2165 -0.0466412 47.6102 0.0736163 47.971C0.193874 48.3318 0.452462 48.6301 0.792543 48.8002C0.991327 48.9008 1.21109 48.9528 1.43386 48.9521H18.152C18.4198 48.959 18.6837 48.8876 18.9115 48.7467C19.1393 48.6058 19.3211 48.4015 19.4346 48.1589C23.0429 40.7061 20.8556 29.3751 14.5134 22.6243Z" fill="url(#paint0_linear_1803_16622)"/>
<path d="M23.333 0.77895C20.3416 5.38209 18.5983 10.6838 18.2741 16.1639C17.9498 21.644 19.0557 27.1143 21.4833 32.0381L29.5436 48.1588C29.6627 48.3971 29.8458 48.5975 30.0723 48.7376C30.2989 48.8777 30.5599 48.9519 30.8263 48.952H47.5411C47.7296 48.9525 47.9163 48.9157 48.0906 48.8438C48.2648 48.7718 48.4231 48.6662 48.5564 48.5329C48.6897 48.3996 48.7954 48.2413 48.8673 48.067C48.9392 47.8928 48.976 47.706 48.9756 47.5175C48.9757 47.2952 48.9249 47.0758 48.8271 46.8762L25.7734 0.7722C25.6639 0.541178 25.4912 0.345967 25.2752 0.209268C25.0592 0.0725691 24.8088 0 24.5532 0C24.2975 0 24.0472 0.0725691 23.8312 0.209268C23.6152 0.345967 23.4424 0.541178 23.333 0.7722V0.77895Z" fill="#2684FF"/>
<defs>
<linearGradient id="paint0_linear_1803_16622" x1="21.1189" y1="26.2934" x2="8.44782" y2="48.2399" gradientUnits="userSpaceOnUse">
<stop stop-color="#0052CC"/>
<stop offset="0.92" stop-color="#2684FF"/>
</linearGradient>
</defs>
</svg>
