<svg width="81" height="48" viewBox="0 0 81 48" fill="none" xmlns="http://www.w3.org/2000/svg">
<path d="M22.6198 17.4327C22.6198 18.4205 22.7266 19.2214 22.9135 19.8087C23.1271 20.396 23.394 21.0367 23.7678 21.7308C23.9013 21.9444 23.9547 22.158 23.9547 22.3449C23.9547 22.6118 23.7945 22.8788 23.4474 23.1458L21.7655 24.267C21.5253 24.4272 21.285 24.5073 21.0714 24.5073C20.8045 24.5073 20.5375 24.3738 20.2706 24.1335C19.8968 23.7331 19.5764 23.3059 19.3095 22.8788C19.0425 22.425 18.7756 21.9177 18.4819 21.3037C16.3996 23.7598 13.7833 24.9878 10.6332 24.9878C8.39067 24.9878 6.60201 24.3471 5.29389 23.0657C3.98577 21.7842 3.31836 20.0757 3.31836 17.94C3.31836 15.6708 4.11925 13.8287 5.74773 12.4405C7.37621 11.0523 9.53861 10.3582 12.2883 10.3582C13.196 10.3582 14.1304 10.4383 15.1182 10.5718C16.1059 10.7052 17.1204 10.9188 18.1882 11.1591V9.21025C18.1882 7.18132 17.7611 5.76642 16.9335 4.93883C16.0792 4.11124 14.6376 3.7108 12.582 3.7108C11.6476 3.7108 10.6866 3.81758 9.69879 4.05785C8.71103 4.29812 7.74996 4.59178 6.81558 4.96553C6.38844 5.1524 6.06809 5.25919 5.88121 5.31258C5.69434 5.36597 5.56085 5.39267 5.45407 5.39267C5.08032 5.39267 4.89344 5.1257 4.89344 4.56508V3.25696C4.89344 2.82982 4.94684 2.50946 5.08032 2.32258C5.2138 2.13571 5.45407 1.94884 5.82782 1.76196C6.76219 1.28143 7.88344 0.88098 9.19156 0.560624C10.4997 0.213571 11.8879 0.0533927 13.3562 0.0533927C16.5331 0.0533927 18.8556 0.774195 20.3506 2.2158C21.8189 3.6574 22.5664 5.84651 22.5664 8.78311V17.4327H22.6198ZM11.7811 21.4906C12.6621 21.4906 13.5698 21.3304 14.5308 21.01C15.4919 20.6897 16.3462 20.1024 17.067 19.3015C17.4941 18.7942 17.8145 18.2336 17.9747 17.5929C18.1348 16.9522 18.2416 16.178 18.2416 15.2703V14.1491C17.4674 13.9622 16.6398 13.802 15.7856 13.6952C14.9313 13.5885 14.1037 13.5351 13.2761 13.5351C11.4874 13.5351 10.1793 13.8821 9.29835 14.6029C8.41737 15.3237 7.99022 16.3382 7.99022 17.673C7.99022 18.9277 8.31058 19.8621 8.97799 20.5028C9.6187 21.1702 10.5531 21.4906 11.7811 21.4906V21.4906ZM33.2183 24.3738C32.7378 24.3738 32.4174 24.2937 32.2038 24.1068C31.9903 23.9466 31.8034 23.5729 31.6432 23.0657L25.3696 2.42937C25.2094 1.89544 25.1293 1.54839 25.1293 1.36152C25.1293 0.934373 25.3429 0.694106 25.77 0.694106H28.3862C28.8935 0.694106 29.2405 0.774195 29.4274 0.961069C29.641 1.12125 29.8012 1.495 29.9613 2.00223L34.4463 19.6752L38.611 2.00223C38.7444 1.4683 38.9046 1.12125 39.1182 0.961069C39.3318 0.800891 39.7055 0.694106 40.186 0.694106H42.3217C42.829 0.694106 43.176 0.774195 43.3896 0.961069C43.6032 1.12125 43.7901 1.495 43.8968 2.00223L48.1149 19.8888L52.7333 2.00223C52.8935 1.4683 53.0804 1.12125 53.2673 0.961069C53.4808 0.800891 53.8279 0.694106 54.3084 0.694106H56.7912C57.2183 0.694106 57.4586 0.907677 57.4586 1.36152C57.4586 1.495 57.4319 1.62848 57.4052 1.78866C57.3785 1.94884 57.3251 2.16241 57.2183 2.45607L50.7845 23.0924C50.6243 23.6263 50.4374 23.9733 50.2239 24.1335C50.0103 24.2937 49.6632 24.4005 49.2094 24.4005H46.9135C46.4063 24.4005 46.0592 24.3204 45.8457 24.1335C45.6321 23.9466 45.4452 23.5996 45.3384 23.0657L41.2005 5.84651L37.0893 23.039C36.9558 23.5729 36.7956 23.92 36.582 24.1068C36.3685 24.2937 35.9947 24.3738 35.5142 24.3738H33.2183ZM67.5231 25.0946C66.1349 25.0946 64.7467 24.9344 63.4119 24.6141C62.0771 24.2937 61.0359 23.9466 60.3418 23.5462C59.9147 23.3059 59.621 23.039 59.5142 22.7987C59.4074 22.5584 59.354 22.2915 59.354 22.0512V20.6897C59.354 20.1291 59.5676 19.8621 59.968 19.8621C60.1282 19.8621 60.2884 19.8888 60.4486 19.9422C60.6088 19.9956 60.849 20.1024 61.116 20.2092C62.0237 20.6096 63.0114 20.93 64.0526 21.1435C65.1204 21.3571 66.1616 21.4639 67.2295 21.4639C68.9113 21.4639 70.2195 21.1702 71.1271 20.5829C72.0348 19.9956 72.5153 19.1413 72.5153 18.0467C72.5153 17.2993 72.2751 16.6852 71.7945 16.178C71.314 15.6708 70.4063 15.2169 69.0982 14.7898L65.2272 13.5885C63.2784 12.9744 61.8368 12.0668 60.9558 10.8654C60.0748 9.69078 59.621 8.38266 59.621 6.99445C59.621 5.8732 59.8613 4.88544 60.3418 4.03115C60.8223 3.17687 61.463 2.42937 62.2639 1.84205C63.0648 1.22803 63.9725 0.774195 65.0404 0.453838C66.1082 0.133482 67.2295 0 68.4041 0C68.9914 0 69.6054 0.0266964 70.1928 0.106785C70.8068 0.186875 71.3674 0.29366 71.928 0.400446C72.4619 0.533927 72.9692 0.667409 73.4497 0.827588C73.9302 0.987766 74.304 1.14794 74.571 1.30812C74.9447 1.52169 75.2117 1.73526 75.3718 1.97553C75.532 2.1891 75.6121 2.48276 75.6121 2.85651V4.11124C75.6121 4.67187 75.3985 4.96553 74.9981 4.96553C74.7845 4.96553 74.4375 4.85874 73.9836 4.64517C72.4619 3.95106 70.7534 3.60401 68.8579 3.60401C67.3362 3.60401 66.1349 3.84428 65.3073 4.35151C64.4797 4.85874 64.0526 5.63293 64.0526 6.72749C64.0526 7.47498 64.3196 8.1157 64.8535 8.62293C65.3874 9.13016 66.3752 9.63739 67.7901 10.0912L71.581 11.2926C73.5031 11.9066 74.8913 12.7609 75.7189 13.8554C76.5465 14.95 76.9469 16.2047 76.9469 17.5929C76.9469 18.7409 76.7067 19.782 76.2528 20.6897C75.7723 21.5974 75.1316 22.3983 74.304 23.039C73.4764 23.7064 72.4886 24.1869 71.3407 24.534C70.1394 24.9077 68.8846 25.0946 67.5231 25.0946V25.0946Z" fill="#fff"/>
<path fill-rule="evenodd" clip-rule="evenodd" d="M72.5692 38.0689C63.7861 44.5562 51.0253 48 40.0531 48C24.676 48 10.8206 42.3137 0.3556 32.8631C-0.471987 32.1156 0.275511 31.1012 1.26328 31.6885C12.5825 38.2558 26.5447 42.2336 40.9874 42.2336C50.7316 42.2336 61.4368 40.2047 71.2878 36.04C72.7561 35.3726 74.0108 37.0011 72.5692 38.0689V38.0689Z" fill="#FF9900"/>
<path fill-rule="evenodd" clip-rule="evenodd" d="M76.227 33.9043C75.1058 32.4627 68.8055 33.2102 65.949 33.5572C65.0947 33.664 64.9612 32.9165 65.7354 32.3559C70.7543 28.832 79.0034 29.8464 79.9645 31.0211C80.9255 32.2224 79.6975 40.4716 74.999 44.4227C74.2782 45.0367 73.5841 44.7163 73.9044 43.9154C74.9723 41.2725 77.3482 35.3192 76.227 33.9043V33.9043Z" fill="#FF9900"/>
</svg>
