<svg width="52" height="49" viewBox="0 0 52 49" fill="none" xmlns="http://www.w3.org/2000/svg">
<path d="M17.8619 0.00128036H33.0156L17.2844 46.6384C17.204 46.8766 17.0869 47.1007 16.9375 47.3029C16.7883 47.5052 16.6084 47.6825 16.4042 47.8291C16.2 47.9757 15.9746 48.0897 15.7352 48.1665C15.4958 48.2433 15.2461 48.283 14.9951 48.283H3.20173C2.8189 48.283 2.44119 48.1921 2.10062 48.0167C1.75968 47.8418 1.46538 47.5881 1.24214 47.2766C1.01875 46.9652 0.87261 46.6051 0.815775 46.2261C0.758799 45.8471 0.793369 45.4598 0.915643 45.0968L15.5719 1.64462C15.652 1.40647 15.7691 1.18241 15.9189 0.980115C16.0681 0.777818 16.2486 0.600489 16.4522 0.453887C16.6564 0.307286 16.8818 0.193334 17.1212 0.116513C17.3606 0.0396911 17.6103 0 17.8612 0V0.000640179L17.8619 0.00128036Z" fill="url(#paint0_linear_1812_22382)"/>
<path d="M45.7972 48.2831H32.1902C32.0385 48.2831 31.8868 48.269 31.737 48.2402C31.5878 48.212 31.4412 48.1698 31.2997 48.1141C31.1582 48.0584 31.0225 47.9892 30.8939 47.9086C30.7653 47.8274 30.6447 47.7343 30.5334 47.6307L15.0923 33.21C14.929 33.0575 14.8152 32.8595 14.7658 32.6415C14.7164 32.4236 14.7338 32.1959 14.8157 31.9879C14.8975 31.78 15.0401 31.6015 15.2248 31.4758C15.4098 31.3503 15.6281 31.2831 15.8515 31.2831H39.8813L45.796 48.2837L45.7972 48.2831Z" fill="#0078D4"/>
<path d="M33.0696 0.00128124L22.4618 31.2863L39.7941 31.2824L45.7394 48.2831H32.1836C32.0434 48.2818 31.9032 48.269 31.7649 48.244C31.6266 48.2191 31.4909 48.1826 31.359 48.1339C31.0946 48.0376 30.8486 47.8966 30.6318 47.7172L20.2084 37.989L17.2904 46.5943C17.2149 46.8094 17.1112 47.0136 16.9819 47.2012C16.7227 47.5785 16.3682 47.8805 15.9544 48.0763C15.7484 48.1738 15.5303 48.2433 15.3059 48.2831H3.20839C2.82172 48.2844 2.44017 48.1922 2.0964 48.0142C1.75257 47.8364 1.4566 47.5784 1.23352 47.2621C1.01045 46.9457 0.866809 46.5803 0.814756 46.1967C0.762892 45.813 0.803947 45.4224 0.93447 45.0579L15.5671 1.67727C15.6433 1.43465 15.7578 1.2061 15.9064 0.999963C16.0543 0.793825 16.2348 0.612014 16.4396 0.462211C16.6445 0.312409 16.8724 0.195896 17.1137 0.117794C17.3551 0.0396921 17.608 8.77273e-07 17.8621 0.00128124H33.0702H33.0696Z" fill="url(#paint1_linear_1812_22382)"/>
<path d="M51.8727 45.0969C51.995 45.4601 52.0295 45.8471 51.9732 46.2262C51.9163 46.6051 51.7704 46.9651 51.5475 47.2767C51.3242 47.588 51.03 47.8416 50.6892 48.0166C50.3485 48.1916 49.971 48.283 49.5879 48.2831H32.6986C33.0815 48.2831 33.4592 48.1916 33.8004 48.0168C34.141 47.842 34.4354 47.5879 34.6589 47.2767C34.8823 46.9656 35.0283 46.6052 35.0852 46.2262C35.1422 45.8472 35.1076 45.4599 34.9854 45.0969L20.3284 1.64338C20.1671 1.1647 19.8597 0.748692 19.4494 0.45392C19.2459 0.307319 19.0205 0.194007 18.7817 0.117185C18.543 0.0403633 18.2933 0.00131226 18.043 0.00131226H34.9316C35.1825 0.00131226 35.4316 0.0403633 35.671 0.117185C35.9098 0.194007 36.1351 0.307959 36.3393 0.45392C36.5429 0.600522 36.7228 0.777852 36.872 0.979509C37.0211 1.18117 37.1377 1.40523 37.2183 1.64338L51.8753 45.0969H51.8727Z" fill="url(#paint2_linear_1812_22382)"/>
<defs>
<linearGradient id="paint0_linear_1812_22382" x1="23.3924" y1="3.57988" x2="7.644" y2="50.1018" gradientUnits="userSpaceOnUse">
<stop stop-color="#114A8B"/>
<stop offset="1" stop-color="#0669BC"/>
</linearGradient>
<linearGradient id="paint1_linear_1812_22382" x1="28.3022" y1="25.2564" x2="24.6596" y2="26.492" gradientUnits="userSpaceOnUse">
<stop stop-opacity="0.3"/>
<stop offset="0.1" stop-opacity="0.2"/>
<stop offset="0.3" stop-opacity="0.1"/>
<stop offset="0.6" stop-opacity="0.1"/>
<stop offset="1" stop-opacity="0"/>
</linearGradient>
<linearGradient id="paint2_linear_1812_22382" x1="26.2917" y1="2.22274" x2="43.5766" y2="48.271" gradientUnits="userSpaceOnUse">
<stop stop-color="#3CCBF4"/>
<stop offset="1" stop-color="#2892DF"/>
</linearGradient>
</defs>
</svg>
