<svg width="159" height="160" viewBox="0 0 159 160" fill="none" xmlns="http://www.w3.org/2000/svg">
<g clip-path="url(#clip0_1621_249)">
<path d="M76.4741 0.0635707C74.9383 0.108922 71.7763 0.362893 69.843 0.59872C52.1724 2.70303 35.8207 10.6758 23.1729 23.3561C19.2792 27.2563 16.2167 30.9933 13.2174 35.4831C6.1256 46.0863 1.63566 58.3402 0.271513 70.821C0.172138 71.7008 0.0727628 72.6169 0.0456605 72.8527L-0.00854403 73.2881H52.9854H105.97V79.9547V86.6214H52.9764H-0.0175781L0.0366264 86.8754C0.0546946 87.0114 0.108899 87.4468 0.136001 87.8459C0.235376 89.0432 0.614808 91.9185 0.912933 93.6055C4.18327 112.599 14.0937 129.606 29.0361 141.896C32.7129 144.925 37.1758 147.937 41.4308 150.25C56.1835 158.295 73.2579 161.433 89.98 159.184C109.819 156.508 127.679 146.576 140.661 130.975C142.739 128.472 145.603 124.463 147.319 121.633C156.688 106.186 160.527 88.4173 158.404 70.3946C157.13 59.5647 153.643 49.1157 148.178 39.728C143.471 31.6373 137.427 24.4899 130.182 18.4128C127.652 16.2903 123.695 13.4513 120.877 11.728C107.434 3.51936 92.365 -0.444366 76.4741 0.0635707Z" fill="#4C6FFF"/>
</g>
<defs>
<clipPath id="clip0_1621_249">
<rect width="159" height="160" fill="white"/>
</clipPath>
</defs>
</svg>
