<svg width="57" height="52" viewBox="0 0 57 52" fill="none" xmlns="http://www.w3.org/2000/svg">
<path d="M1.84983 0.666443C1.58328 0.662996 1.3192 0.717947 1.07615 0.827436C0.833096 0.936925 0.616959 1.0983 0.442919 1.30022C0.268878 1.50214 0.141154 1.73972 0.0687165 1.99626C-0.00372137 2.25281 -0.0191163 2.5221 0.0236127 2.78523L7.77626 49.8485C7.87283 50.4245 8.16925 50.948 8.61345 51.3271C9.05766 51.7062 9.62124 51.9166 10.2052 51.9215H47.3976C47.8353 51.927 48.2604 51.7752 48.5956 51.4936C48.9307 51.2121 49.1536 50.8195 49.2236 50.3874L56.9765 2.79436C57.0191 2.53124 57.0037 2.26198 56.9312 2.00547C56.8587 1.74897 56.7309 1.51144 56.5569 1.30956C56.3828 1.10769 56.1667 0.946364 55.9236 0.836915C55.6806 0.727467 55.4165 0.672549 55.15 0.676017L1.84983 0.666443ZM34.4947 34.681H22.6238L19.4096 17.8884H37.3712L34.4947 34.681Z" fill="#2684FF"/>
<path d="M54.4644 17.8648H37.3387L34.4644 34.6441H22.6031L8.59766 51.2682C9.04157 51.652 9.60752 51.8654 10.1943 51.8703H47.3662C47.8036 51.8759 48.2284 51.7243 48.5634 51.4429C48.8983 51.1616 49.1211 50.7693 49.1911 50.3375L54.4644 17.8648Z" fill="url(#paint0_linear_1812_22386)"/>
<defs>
<linearGradient id="paint0_linear_1812_22386" x1="58.4241" y1="22.5637" x2="38.6411" y2="50.6533" gradientUnits="userSpaceOnUse">
<stop offset="0.18" stop-color="#0052CC"/>
<stop offset="1" stop-color="#2684FF"/>
</linearGradient>
</defs>
</svg>
