<svg width="47" height="47" viewBox="0 0 47 47" fill="none" xmlns="http://www.w3.org/2000/svg">
<g clip-path="url(#clip0_1450_12211)">
<path fill-rule="evenodd" clip-rule="evenodd" d="M0 40.9414C0 44.2882 2.71183 47 6.05859 47H40.9376C44.2843 47 46.9962 44.2882 46.9962 40.9414V6.05859C46.9962 2.71183 44.2843 0 40.9376 0H6.05859C2.71183 0 0 2.71183 0 6.05859V40.9414Z" fill="#563D7C"/>
<path fill-rule="evenodd" clip-rule="evenodd" d="M19.4915 20.7882V14.1329H25.3512C25.9096 14.1329 26.4489 14.1788 26.9653 14.2706C27.4816 14.3624 27.9406 14.5307 28.3422 14.7678C28.74 15.0088 29.0613 15.3377 29.2985 15.7661C29.5394 16.1907 29.658 16.7376 29.658 17.3993C29.658 18.5965 29.2985 19.4571 28.5832 19.9888C27.8641 20.5204 26.95 20.7843 25.8331 20.7843H19.4915V20.7882ZM13.234 9.27148V37.7285H27.0227C28.2963 37.7285 29.5394 37.5679 30.7481 37.2504C31.9567 36.9329 33.0315 36.4395 33.9763 35.774C34.921 35.1085 35.6707 34.2517 36.2291 33.2037C36.7876 32.1557 37.0668 30.9126 37.0668 29.4783C37.0668 27.6997 36.6346 26.1774 35.7701 24.9152C34.9057 23.653 33.5976 22.7695 31.8458 22.2646C33.1195 21.6526 34.0834 20.8685 34.7374 19.9123C35.3877 18.9561 35.7128 17.7589 35.7128 16.3245C35.7128 14.9973 35.4948 13.8805 35.0549 12.9778C34.615 12.0751 33.9992 11.3522 33.1998 10.8053C32.4043 10.2621 31.448 9.86816 30.3312 9.63102C29.2143 9.39006 27.9789 9.27148 26.6249 9.27148H13.234ZM19.4915 32.8671V25.0529H26.3074C27.6614 25.0529 28.7515 25.3665 29.5777 25.99C30.4 26.6134 30.8131 27.6576 30.8131 29.1187C30.8131 29.8646 30.6869 30.4727 30.4344 30.9508C30.182 31.429 29.8416 31.8076 29.417 32.0868C28.9925 32.366 28.4991 32.5649 27.9406 32.6835C27.3822 32.8021 26.797 32.8633 26.185 32.8633H19.4915V32.8671Z" fill="white"/>
</g>
<defs>
<clipPath id="clip0_1450_12211">
<rect width="47" height="47" fill="white"/>
</clipPath>
</defs>
</svg>
