<svg width="120" height="60" viewBox="0 0 120 60" fill="none" xmlns="http://www.w3.org/2000/svg">
<path d="M70.456 3.45996H49.0609C46.241 3.45996 43.9551 5.74592 43.9551 8.5658V30.0918C43.9551 32.9116 46.241 35.1976 49.0609 35.1976H70.456C73.2759 35.1976 75.5618 32.9116 75.5618 30.0918V8.5658C75.5618 5.74592 73.2759 3.45996 70.456 3.45996Z" fill="url(#paint0_linear_2526_1742)"/>
<path d="M59.9973 17.1228C60.8046 17.1228 61.4164 16.95 61.8334 16.5962C62.2505 16.2424 62.4588 15.7271 62.4588 15.0425C62.4588 14.3665 62.2505 13.8529 61.8334 13.5018C61.4137 13.1418 60.8044 12.9619 59.9973 12.9619H57.1629V17.1231L59.9973 17.1228ZM60.1701 25.7217C61.1989 25.7217 61.9707 25.5069 62.4853 25.0766C63.0087 24.6465 63.2704 23.9969 63.2704 23.1278C63.2704 22.276 63.0131 21.6398 62.4986 21.2186C61.984 20.7885 61.2081 20.5734 60.1703 20.5734H57.1631V25.7222H60.1703M64.9337 18.6511C66.0337 18.9671 66.8852 19.551 67.4884 20.4023C68.0915 21.2536 68.393 22.2985 68.3932 23.5365C68.3932 25.4326 67.7456 26.8461 66.4507 27.7767C65.1557 28.7072 63.1867 29.1724 60.5432 29.1724H52.041V9.51221H59.7319C62.4904 9.51221 64.4864 9.92453 65.7191 10.7499C66.961 11.575 67.5819 12.8964 67.5819 14.7136C67.5819 15.6706 67.3558 16.4868 66.9035 17.1628C66.4512 17.8299 65.7924 18.3232 64.9342 18.6509" fill="white"/>
<path d="M15.4273 45.7601V51.1001H18.5913C19.6513 51.1001 20.4373 50.8821 20.9453 50.4461C21.4593 50.0031 21.7153 49.3291 21.7153 48.4261C21.7153 47.5261 21.4583 46.8441 20.9453 46.4141C20.4373 45.9781 19.6533 45.7601 18.5913 45.7601H15.4273ZM15.4273 39.7641V44.1591H18.3473C19.3113 44.1591 20.0273 43.9791 20.4953 43.6221C20.9703 43.2571 21.2083 42.7041 21.2083 41.9621C21.2083 41.2261 20.9703 40.6761 20.4953 40.3121C20.0203 39.9481 19.3103 39.7651 18.3473 39.7651L15.4273 39.7641ZM13.4543 38.1451H18.4943C19.9983 38.1451 21.1573 38.4581 21.9713 39.0831C22.7853 39.7081 23.1913 40.5971 23.1913 41.7491C23.1913 42.6411 22.9833 43.3511 22.5663 43.8791C22.1493 44.4071 21.5363 44.7351 20.7303 44.8651C21.7003 45.0731 22.4523 45.5101 22.9863 46.1651C23.5263 46.8231 23.7863 47.6451 23.7863 48.6351C23.7863 49.9371 23.3433 50.9431 22.4583 51.6531C21.5733 52.3631 20.3133 52.7171 18.6783 52.7171H13.4443V38.1401" fill="white"/>
<path d="M31.2253 43.044C30.7804 43.029 30.3388 43.1247 29.94 43.3225C29.5412 43.5202 29.1977 43.8138 28.9403 44.177C28.3803 44.927 28.1003 45.954 28.1003 47.263C28.1003 48.572 28.3773 49.603 28.9303 50.359C29.4903 51.109 30.2553 51.482 31.2253 51.482C31.6686 51.4962 32.1086 51.4001 32.5056 51.2023C32.9027 51.0046 33.2444 50.7114 33.5003 50.349C34.0603 49.594 34.3403 48.565 34.3403 47.263C34.3403 45.967 34.0603 44.943 33.5003 44.187C32.9403 43.425 32.1823 43.044 31.2253 43.044ZM31.2253 41.521C32.7873 41.521 34.0253 42.029 34.9073 43.044C35.7893 44.059 36.2453 45.466 36.2453 47.264C36.2453 49.062 35.7993 50.461 34.9073 51.484C34.0153 52.5 32.7873 53.007 31.2253 53.007C29.6553 53.007 28.4253 52.499 27.5253 51.484C26.6403 50.462 26.1973 49.056 26.1973 47.264C26.1973 45.467 26.6403 44.061 27.5253 43.044C28.4173 42.028 29.6473 41.521 31.2253 41.521Z" fill="white"/>
<path d="M43.3522 43.044C42.9073 43.029 42.4657 43.1247 42.0669 43.3225C41.6681 43.5202 41.3246 43.8138 41.0672 44.177C40.5072 44.927 40.2272 45.954 40.2272 47.263C40.2272 48.572 40.5042 49.603 41.0572 50.359C41.6172 51.109 42.3822 51.482 43.3522 51.482C43.7956 51.4962 44.2355 51.4001 44.6326 51.2023C45.0296 51.0046 45.3714 50.7114 45.6272 50.349C46.1872 49.594 46.4672 48.565 46.4672 47.263C46.4672 45.967 46.1872 44.943 45.6272 44.187C45.0672 43.425 44.3092 43.044 43.3522 43.044ZM43.3522 41.521C44.9142 41.521 46.1522 42.029 47.0342 43.044C47.9162 44.059 48.3722 45.466 48.3722 47.264C48.3722 49.062 47.9262 50.461 47.0342 51.484C46.1422 52.5 44.9142 53.007 43.3522 53.007C41.7822 53.007 40.5522 52.499 39.6522 51.484C38.7672 50.462 38.3242 49.056 38.3242 47.264C38.3242 45.467 38.7672 44.061 39.6522 43.044C40.5442 42.028 41.7742 41.521 43.3522 41.521Z" fill="white"/>
<path d="M53.0178 38.6782V41.7832H56.7178V43.1792H53.0178V49.1172C53.0178 50.0092 53.1378 50.5822 53.3778 50.8372C53.6248 51.0912 54.1228 51.2172 54.8718 51.2172H56.7178V52.7212H54.8708C53.4838 52.7212 52.5268 52.4642 52.0008 51.9512C51.4738 51.4312 51.2008 50.4862 51.2008 49.1192V43.1792H49.8828V41.7832H51.2008V38.6802H53.0078M65.9538 42.1072V43.8072C65.452 43.549 64.9208 43.3523 64.3718 43.2212C63.8248 43.0912 63.2588 43.0262 62.6718 43.0262C61.7798 43.0262 61.1088 43.1632 60.6598 43.4262C60.2168 43.6992 59.9958 44.1102 59.9958 44.6562C59.9958 45.0732 60.1558 45.4012 60.4758 45.6422C60.7958 45.8762 61.4358 46.1022 62.3998 46.3162L63.0148 46.4532C64.2908 46.7262 65.1948 47.1132 65.7298 47.6152C66.2698 48.1102 66.5298 48.8032 66.5298 49.6952C66.5442 50.1651 66.4422 50.6312 66.2328 51.052C66.0234 51.4728 65.7132 51.8353 65.3298 52.1072C64.5298 52.6992 63.4258 53.0072 62.0298 53.0072C61.4438 53.0072 60.8318 52.9472 60.1938 52.8312C59.5618 52.7312 58.8938 52.5512 58.1918 52.3232V50.4682C58.8558 50.8132 59.5098 51.0732 60.1548 51.2482C60.7792 51.4149 61.4225 51.5003 62.0688 51.5022C62.9148 51.5022 63.5658 51.3592 64.0218 51.0722C64.4778 50.7792 64.7058 50.3692 64.7058 49.8422C64.7058 49.3542 64.5398 48.9792 64.2078 48.7192C63.8818 48.4592 63.1628 48.2192 62.0498 47.9672L61.4248 47.8212C60.3118 47.5872 59.5078 47.2292 59.0128 46.7472C58.5178 46.2592 58.2708 45.5912 58.2708 44.7452C58.2708 43.7152 58.6358 42.9222 59.3648 42.3622C60.0938 41.8022 61.1288 41.5222 62.4698 41.5222C63.0978 41.5192 63.7249 41.5681 64.3448 41.6682C64.8991 41.7572 65.4424 41.9043 65.9658 42.1072M71.0988 38.6772V41.7822H74.7988V43.1782H71.0988V49.1162C71.0988 50.0082 71.2188 50.5812 71.4588 50.8362C71.7058 51.0902 72.2038 51.2162 72.9528 51.2162H74.8008V52.7202H72.9548C71.5678 52.7202 70.6108 52.4632 70.0848 51.9502C69.5578 51.4302 69.2848 50.4852 69.2848 49.1182V43.1782H67.9668V41.7822H69.2848V38.6802H71.1008M83.4008 43.4652C83.1942 43.3462 82.9701 43.2605 82.7368 43.2112C82.4815 43.1495 82.2195 43.1199 81.9568 43.1232C80.9408 43.1232 80.1598 43.4552 79.6128 44.1192C79.0728 44.7772 78.8128 45.7242 78.8128 46.9612V52.7232H77.0058V41.7832H78.8128V43.4832C79.1908 42.8192 79.6828 42.3272 80.2878 42.0082C80.8928 41.6822 81.6278 41.5202 82.4948 41.5202C82.632 41.5211 82.7689 41.5308 82.9048 41.5492L83.4028 41.6172L83.4128 43.4632M90.1868 47.2232C88.7348 47.2232 87.7288 47.3892 87.1688 47.7212C86.6088 48.0532 86.3288 48.6192 86.3288 49.4212C86.3288 50.0592 86.5368 50.5672 86.9538 50.9442C87.3768 51.3142 87.9498 51.5012 88.6738 51.5012C89.6698 51.5012 90.4678 51.1492 91.0668 50.4462C91.6718 49.7462 91.9748 48.7962 91.9748 47.6242V47.2242H90.1878M93.7718 46.4822V52.7222H91.9748V51.0622C91.5748 51.7262 91.0548 52.2182 90.4418 52.5372C89.8298 52.8492 89.0818 53.0072 88.1958 53.0072C87.0758 53.0072 86.1838 52.6952 85.5198 52.0702C84.8618 51.4382 84.5338 50.5952 84.5338 49.5402C84.5338 48.3102 84.9338 47.3822 85.7638 46.7572C86.5938 46.1322 87.8208 45.8202 89.4638 45.8202H91.9838V45.6442C91.9838 44.8172 91.7108 44.1792 91.1638 43.7302C90.6238 43.2742 89.8618 43.0462 88.8788 43.0462C88.2538 43.0462 87.6448 43.1212 87.0528 43.2712C86.4568 43.4224 85.8825 43.6489 85.3438 43.9452V42.2852C86.0018 42.0312 86.6398 41.8422 87.2578 41.7192C87.8518 41.5918 88.4574 41.5264 89.0648 41.5242C90.6468 41.5242 91.8288 41.9242 92.6098 42.7542C93.3908 43.5842 93.7818 44.8182 93.7818 46.4842M99.1318 51.0802V56.8802H97.3248V41.7842H99.1318V43.4442C99.5098 42.7942 99.9848 42.3112 100.558 41.9992C101.138 41.6792 101.828 41.5192 102.628 41.5192C103.254 41.5049 103.874 41.641 104.437 41.9164C104.999 42.1917 105.487 42.598 105.86 43.1012C106.693 44.1562 107.11 45.5412 107.11 47.2612C107.11 48.9812 106.693 50.3662 105.86 51.4212C105.487 51.9245 104.999 52.3308 104.437 52.6061C103.874 52.8814 103.254 53.0176 102.628 53.0032C101.828 53.0032 101.128 52.8472 100.558 52.5332C99.9848 52.2132 99.5098 51.7292 99.1318 51.0782M105.245 47.2602C105.245 45.9382 104.972 44.9032 104.425 44.1552C103.885 43.4002 103.139 43.0222 102.189 43.0222C101.749 43.0075 101.313 43.1036 100.921 43.3016C100.528 43.4996 100.192 43.7931 99.9428 44.1552C99.4028 44.9052 99.1428 45.9392 99.1428 47.2602C99.1428 48.5812 99.4128 49.6202 99.9428 50.3752C100.49 51.1252 101.239 51.4982 102.189 51.4982C103.139 51.4982 103.885 51.1242 104.425 50.3752C104.972 49.6202 105.245 48.5812 105.245 47.2602Z" fill="white"/>
<defs>
<linearGradient id="paint0_linear_2526_1742" x1="45.7784" y1="33.5518" x2="73.6168" y2="5.22725" gradientUnits="userSpaceOnUse">
<stop stop-color="#070135"/>
<stop offset="1" stop-color="#612D50"/>
</linearGradient>
</defs>
</svg>
