<svg width="48" height="48" viewBox="0 0 48 48" fill="none" xmlns="http://www.w3.org/2000/svg">
<path d="M24 35.9948C30.6274 35.9948 36 30.6222 36 23.9948C36 17.3673 30.6274 11.9948 24 11.9948C17.3726 11.9948 12 17.3673 12 23.9948C12 30.6222 17.3726 35.9948 24 35.9948Z" fill="white"/>
<path d="M23.9995 12H44.7807C42.6749 8.35143 39.6456 5.32154 35.9974 3.21505C32.3491 1.10855 28.2106 -0.00029387 23.9979 5.84198e-08C19.7852 0.000293987 15.6468 1.10972 11.9989 3.21672C8.35099 5.32373 5.32209 8.35403 3.2168 12.0029L13.6074 30L13.6167 29.9976C12.5597 28.1749 12.0019 26.1057 11.9995 23.9987C11.9972 21.8917 12.5503 19.8212 13.6032 17.9961C14.6561 16.171 16.1715 14.6558 17.9968 13.6031C19.822 12.5504 21.8925 11.9974 23.9995 12Z" fill="url(#paint0_linear_1812_22375)"/>
<path d="M24 33.5001C29.2467 33.5001 33.5 29.2468 33.5 24.0001C33.5 18.7534 29.2467 14.5001 24 14.5001C18.7533 14.5001 14.5 18.7534 14.5 24.0001C14.5 29.2468 18.7533 33.5001 24 33.5001Z" fill="#1A73E8"/>
<path d="M34.391 30.0029L24.0004 48C28.2131 48.0006 32.3517 46.8921 36 44.7858C39.6484 42.6796 42.6779 39.65 44.784 36.0015C46.8901 32.3531 47.9984 28.2144 47.9977 24.0018C47.9969 19.7891 46.8871 15.6508 44.7797 12.0031H23.9986L23.9961 12.0124C26.1031 12.0084 28.174 12.5599 29.9999 13.6113C31.8259 14.6628 33.3424 16.177 34.3965 18.0014C35.4506 19.8258 36.0052 21.8959 36.0042 24.0029C36.0032 26.11 35.4468 28.1795 34.391 30.0029Z" fill="url(#paint1_linear_1812_22375)"/>
<path d="M13.6089 30.0031L3.21827 12.006C1.1114 15.654 0.00211014 19.7925 0.00195314 24.0051C0.00179615 28.2178 1.11077 32.3563 3.21738 36.0045C5.32398 39.6527 8.35396 42.6819 12.0026 44.7876C15.6513 46.8933 19.7901 48.0012 24.0028 48L34.3934 30.0029L34.3867 29.9961C33.3366 31.8229 31.8236 33.3406 30 34.3961C28.1765 35.4517 26.1068 36.0079 23.9998 36.0086C21.8928 36.0093 19.8228 35.4545 17.9985 34.4002C16.1742 33.3458 14.6601 31.8292 13.6089 30.0031Z" fill="url(#paint2_linear_1812_22375)"/>
<defs>
<linearGradient id="paint0_linear_1812_22375" x1="3.2168" y1="15" x2="44.7807" y2="15" gradientUnits="userSpaceOnUse">
<stop stop-color="#D93025"/>
<stop offset="1" stop-color="#EA4335"/>
</linearGradient>
<linearGradient id="paint1_linear_1812_22375" x1="20.7216" y1="47.6791" x2="41.5036" y2="11.6837" gradientUnits="userSpaceOnUse">
<stop stop-color="#FCC934"/>
<stop offset="1" stop-color="#FBBC04"/>
</linearGradient>
<linearGradient id="paint2_linear_1812_22375" x1="26.5984" y1="46.5015" x2="5.81637" y2="10.506" gradientUnits="userSpaceOnUse">
<stop stop-color="#1E8E3E"/>
<stop offset="1" stop-color="#34A853"/>
</linearGradient>
</defs>
</svg>
