<svg width="108" height="50" viewBox="0 0 108 50" fill="none" xmlns="http://www.w3.org/2000/svg">
<path d="M85.3689 21.22L83.1283 20.3239C72.598 44.018 30.7064 29.6131 28.1853 36.6618C27.7651 41.423 51.0622 37.5671 67.7173 38.3742C72.7962 38.6201 75.3431 42.4541 73.1865 48.7033L77.4343 48.7164C82.3344 33.4408 97.9723 41.2366 98.6258 36.1952C97.5522 32.8805 80.654 36.1952 85.3689 21.22Z" fill="white"/>
<path d="M74.3897 46.0911C75.0617 43.8509 74.8377 41.6099 73.7176 40.2654C72.5971 38.9209 71.0286 38.0253 69.0121 37.8008L30.0247 37.3524C29.8007 37.3524 29.5767 37.1288 29.3526 37.1288C29.1286 36.9044 29.1286 36.6804 29.3526 36.4563C29.5767 36.0083 29.8007 35.7839 30.2487 35.7839L69.4601 35.3358C74.1657 35.1122 79.0953 31.3027 80.8874 26.8216L83.1284 20.996C83.1284 20.7715 83.3524 20.5475 83.1284 20.3235C80.6634 8.89623 70.3566 0.381989 58.2568 0.381989C47.0536 0.381989 37.4189 7.55172 34.0578 17.6349C31.8172 16.0664 29.1286 15.1699 25.9916 15.3948C20.614 15.8424 16.3569 20.3235 15.6844 25.7011C15.4604 27.0456 15.6844 28.3901 15.9088 29.7342C7.17015 29.9582 0 37.1284 0 46.0911C0 46.9871 0 47.6596 0.224014 48.5557C0.224014 49.0041 0.672043 49.2281 0.89648 49.2281H72.8212C73.2692 49.2281 73.7176 49.0045 73.7176 48.5557L74.3897 46.0911Z" fill="#F4811F"/>
<path d="M86.7134 20.9959H85.5929C85.3689 20.9959 85.1449 21.2195 84.9209 21.444L83.3524 26.8216C82.6803 29.0617 82.9043 31.3031 84.0248 32.6472C85.1449 33.9917 86.7134 34.8874 88.73 35.1122L97.0206 35.5603C97.2442 35.5603 97.4687 35.7839 97.6927 35.7839C97.9163 36.0083 97.9163 36.2323 97.6927 36.4563C97.4687 36.9048 97.2446 37.1288 96.7962 37.1288L88.282 37.5768C83.5764 37.8004 78.6472 41.6099 76.8547 46.091L76.4062 48.1076C76.1822 48.332 76.4062 48.7801 76.8547 48.7801H106.431C106.879 48.7801 107.103 48.5561 107.103 48.108C107.551 46.3151 107.999 44.2985 107.999 42.282C107.999 30.6307 98.3647 20.9959 86.7134 20.9959Z" fill="#FAAD3F"/>
</svg>
