<svg width="48" height="49" viewBox="0 0 48 49" fill="none" xmlns="http://www.w3.org/2000/svg">
<path fill-rule="evenodd" clip-rule="evenodd" d="M24.0021 48.025V38.7179C33.8534 38.7179 41.5006 28.9485 37.7175 18.5798C37.0227 16.675 35.9199 14.9451 34.4862 13.5113C33.0526 12.0775 31.3229 10.9745 29.4181 10.2795C19.0495 6.52433 9.28005 14.1436 9.28005 23.9949H0C0 8.29402 15.1854 -3.95223 31.6493 1.1902C38.834 3.45024 44.5756 9.16394 46.8077 16.3497C51.9511 32.8395 39.7318 48.025 24.0021 48.025Z" fill="#0080FF"/>
<path fill-rule="evenodd" clip-rule="evenodd" d="M14.7757 38.745H24.0278V29.4928H14.7767L14.7757 38.745ZM7.64586 45.8748H14.7747V38.7459H7.64586V45.8748ZM1.68555 38.7459H7.64586V32.7846H1.68555V38.7459Z" fill="#0080FF"/>
</svg>
