<svg width="40" height="49" viewBox="0 0 40 49" fill="none" xmlns="http://www.w3.org/2000/svg">
<path d="M6.67861 38.3211L2.00391 39.3876V9.11319L6.67861 10.1818V38.3211Z" fill="#F68536"/>
<path d="M12.5122 40.108L6.67969 41.7655V6.77679L12.5122 8.43227V40.108V40.108ZM19.9941 41.9439L12.5122 44.682V3.86022L19.9941 6.59711V41.9439ZM39.9995 38.4123L19.9941 48.415V0.118652L39.9995 10.1213V38.4123Z" fill="#F68536"/>
<path d="M16.0069 2.11288L19.9947 0.118652V48.415L16.0069 46.4214V2.11288V2.11288ZM9.4258 5.40304L12.5128 3.8596V44.6741L9.4258 43.1306V5.40304ZM4.22126 8.0057L6.68033 6.77617V41.7575L4.22126 40.5272V8.0057ZM2.00563 9.11321L0 10.116V38.4183L2.00563 39.4205V9.11321Z" fill="#9D5025"/>
</svg>
