<svg width="46" height="46" viewBox="0 0 46 46" fill="none" xmlns="http://www.w3.org/2000/svg">
<path d="M41.5163 34.2337C40.9031 34.5544 40.2706 34.837 39.6226 35.0799C37.56 35.8517 35.3749 36.2449 33.1726 36.2406C24.6708 36.2406 17.2649 30.3924 17.2649 22.8878C17.2758 21.8812 17.5551 20.8958 18.074 20.0332C18.593 19.1707 19.3327 18.4623 20.2168 17.9811C12.5271 18.3045 10.5508 26.3176 10.5508 31.0123C10.5508 44.2861 22.7843 45.6318 25.42 45.6318C26.8411 45.6318 28.9846 45.2185 30.271 44.8125L30.5063 44.7334C35.4566 43.0221 39.6767 39.6764 42.4721 35.247C42.5578 35.1121 42.596 34.9526 42.5808 34.7935C42.5656 34.6345 42.4978 34.485 42.3882 34.3688C42.2785 34.2526 42.1333 34.1762 41.9754 34.1517C41.8175 34.1273 41.656 34.1561 41.5163 34.2337V34.2337Z" fill="url(#paint0_linear_1812_22383)"/>
<path opacity="0.35" d="M41.5163 34.2337C40.9031 34.5544 40.2706 34.837 39.6226 35.0799C37.56 35.8517 35.3749 36.2449 33.1726 36.2406C24.6708 36.2406 17.2649 30.3924 17.2649 22.8878C17.2758 21.8812 17.5551 20.8958 18.074 20.0332C18.593 19.1707 19.3327 18.4623 20.2168 17.9811C12.5271 18.3045 10.5508 26.3176 10.5508 31.0123C10.5508 44.2861 22.7843 45.6318 25.42 45.6318C26.8411 45.6318 28.9846 45.2185 30.271 44.8125L30.5063 44.7334C35.4566 43.0221 39.6767 39.6764 42.4721 35.247C42.5578 35.1121 42.596 34.9526 42.5808 34.7935C42.5656 34.6345 42.4978 34.485 42.3882 34.3688C42.2785 34.2526 42.1333 34.1762 41.9754 34.1517C41.8175 34.1273 41.656 34.1561 41.5163 34.2337V34.2337Z" fill="url(#paint1_radial_1812_22383)"/>
<path d="M18.9969 43.3752C17.3944 42.3805 16.0056 41.0773 14.9112 39.5411C13.664 37.8322 12.8057 35.8712 12.3966 33.7955C11.9874 31.7198 12.0374 29.5798 12.5429 27.5255C13.0485 25.4711 13.9973 23.5523 15.323 21.9035C16.6486 20.2547 18.319 18.9159 20.2168 17.981C20.7774 17.7169 21.735 17.239 23.0088 17.2624C23.9063 17.2689 24.79 17.4832 25.5908 17.8884C26.3916 18.2936 27.0877 18.8788 27.6245 19.598C28.35 20.5668 28.75 21.7404 28.7671 22.9506C28.7671 22.9129 33.1618 8.64914 14.3938 8.64914C6.50644 8.64914 0.0204691 16.1341 0.0204691 22.7009C-0.0106421 26.1747 0.73262 29.6117 2.19623 32.7623C4.58819 37.8658 8.77106 41.9133 13.9506 44.1361C19.13 46.3588 24.9455 46.6021 30.2925 44.8197C28.4203 45.41 26.4423 45.5872 24.495 45.339C22.5477 45.0909 20.6774 44.4233 19.013 43.3824L18.9969 43.3752Z" fill="url(#paint2_linear_1812_22383)"/>
<path opacity="0.41" d="M18.9969 43.3752C17.3944 42.3805 16.0056 41.0773 14.9112 39.5411C13.664 37.8322 12.8057 35.8712 12.3966 33.7955C11.9874 31.7198 12.0374 29.5798 12.5429 27.5255C13.0485 25.4711 13.9973 23.5523 15.323 21.9035C16.6486 20.2547 18.319 18.9159 20.2168 17.981C20.7774 17.7169 21.735 17.239 23.0088 17.2624C23.9063 17.2689 24.79 17.4832 25.5908 17.8884C26.3916 18.2936 27.0877 18.8788 27.6245 19.598C28.35 20.5668 28.75 21.7404 28.7671 22.9506C28.7671 22.9129 33.1618 8.64914 14.3938 8.64914C6.50644 8.64914 0.0204691 16.1341 0.0204691 22.7009C-0.0106421 26.1747 0.73262 29.6117 2.19623 32.7623C4.58819 37.8658 8.77106 41.9133 13.9506 44.1361C19.13 46.3588 24.9455 46.6021 30.2925 44.8197C28.4203 45.41 26.4423 45.5872 24.495 45.339C22.5477 45.0909 20.6774 44.4233 19.013 43.3824L18.9969 43.3752Z" fill="url(#paint3_radial_1812_22383)"/>
<path d="M27.3686 26.7452C27.2231 26.9338 26.7757 27.1943 26.7757 27.7621C26.7757 28.231 27.0812 28.682 27.6238 29.0611C30.2074 30.8577 35.0781 30.6206 35.0907 30.6206C37.0051 30.616 38.8832 30.0979 40.5292 29.1204C42.1897 28.1508 43.5678 26.7639 44.5269 25.0974C45.4859 23.4308 45.9925 21.5424 45.9965 19.6196C46.0432 15.5933 44.5591 12.9162 43.9591 11.7304C40.1519 4.28325 31.934 1.12587e-07 22.9973 1.12587e-07C16.9537 -0.000597494 11.1527 2.37788 6.84904 6.62102C2.54538 10.8642 0.0849888 16.6309 0 22.6739C0.08624 16.1089 6.61174 10.8069 14.3733 10.8069C15.0022 10.8069 18.5883 10.868 21.9193 12.6162C24.8551 14.1577 26.393 16.0191 27.4621 17.8643C28.5724 19.7813 28.77 22.2032 28.77 23.168C28.77 24.1328 28.2777 25.563 27.3686 26.7452V26.7452Z" fill="url(#paint4_radial_1812_22383)"/>
<path d="M27.3686 26.7452C27.2231 26.9338 26.7757 27.1943 26.7757 27.7621C26.7757 28.231 27.0812 28.682 27.6238 29.0611C30.2074 30.8577 35.0781 30.6206 35.0907 30.6206C37.0051 30.616 38.8832 30.0979 40.5292 29.1204C42.1897 28.1508 43.5678 26.7639 44.5269 25.0974C45.4859 23.4308 45.9925 21.5424 45.9965 19.6196C46.0432 15.5933 44.5591 12.9162 43.9591 11.7304C40.1519 4.28325 31.934 1.12587e-07 22.9973 1.12587e-07C16.9537 -0.000597494 11.1527 2.37788 6.84904 6.62102C2.54538 10.8642 0.0849888 16.6309 0 22.6739C0.08624 16.1089 6.61174 10.8069 14.3733 10.8069C15.0022 10.8069 18.5883 10.868 21.9193 12.6162C24.8551 14.1577 26.393 16.0191 27.4621 17.8643C28.5724 19.7813 28.77 22.2032 28.77 23.168C28.77 24.1328 28.2777 25.563 27.3686 26.7452V26.7452Z" fill="url(#paint5_radial_1812_22383)"/>
<defs>
<linearGradient id="paint0_linear_1812_22383" x1="10.5508" y1="31.81" x2="42.5925" y2="31.81" gradientUnits="userSpaceOnUse">
<stop stop-color="#0C59A4"/>
<stop offset="1" stop-color="#114A8B"/>
</linearGradient>
<radialGradient id="paint1_radial_1812_22383" cx="0" cy="0" r="1" gradientUnits="userSpaceOnUse" gradientTransform="translate(28.2479 32.0625) scale(17.1366 16.2798)">
<stop offset="0.72" stop-opacity="0"/>
<stop offset="0.95" stop-opacity="0.53"/>
<stop offset="1"/>
</radialGradient>
<linearGradient id="paint2_linear_1812_22383" x1="27.443" y1="17.911" x2="7.42989" y2="39.7099" gradientUnits="userSpaceOnUse">
<stop stop-color="#1B9DE2"/>
<stop offset="0.16" stop-color="#1595DF"/>
<stop offset="0.67" stop-color="#0680D7"/>
<stop offset="1" stop-color="#0078D4"/>
</linearGradient>
<radialGradient id="paint3_radial_1812_22383" cx="0" cy="0" r="1" gradientUnits="userSpaceOnUse" gradientTransform="translate(12.6842 35.7552) rotate(-81.3844) scale(25.7689 20.8187)">
<stop offset="0.76" stop-opacity="0"/>
<stop offset="0.95" stop-opacity="0.5"/>
<stop offset="1"/>
</radialGradient>
<radialGradient id="paint4_radial_1812_22383" cx="0" cy="0" r="1" gradientUnits="userSpaceOnUse" gradientTransform="translate(4.64663 8.51203) rotate(92.2906) scale(36.399 77.5224)">
<stop stop-color="#35C1F1"/>
<stop offset="0.11" stop-color="#34C1ED"/>
<stop offset="0.23" stop-color="#2FC2DF"/>
<stop offset="0.31" stop-color="#2BC3D2"/>
<stop offset="0.67" stop-color="#36C752"/>
</radialGradient>
<radialGradient id="paint5_radial_1812_22383" cx="0" cy="0" r="1" gradientUnits="userSpaceOnUse" gradientTransform="translate(43.133 13.9073) rotate(73.7398) scale(17.4887 14.2219)">
<stop stop-color="#66EB6E"/>
<stop offset="1" stop-color="#66EB6E" stop-opacity="0"/>
</radialGradient>
</defs>
</svg>
