<svg width="56" height="45" viewBox="0 0 56 45" fill="none" xmlns="http://www.w3.org/2000/svg">
<path d="M35.8009 12.2464H37.4874L42.2918 7.44191L42.5281 5.40337C33.5887 -2.4867 19.942 -1.63654 12.052 7.30292C9.85822 9.78623 8.26677 12.7398 7.40039 15.9366C7.93551 15.7165 8.52854 15.6818 9.08682 15.8347L18.6934 14.2502C18.6934 14.2502 19.1822 13.4417 19.4347 13.4927C23.7087 8.79939 30.9015 8.25269 35.8357 12.2464H35.8009Z" fill="#EA4335"/>
<path d="M49.1351 15.9366C48.0301 11.8711 45.7646 8.21563 42.6118 5.41959L35.8708 12.1607C38.7178 14.4864 40.3393 17.9913 40.2698 21.6677V22.8653C43.5847 22.8653 46.2696 25.5525 46.2696 28.8651C46.2696 32.18 43.5824 34.8649 40.2698 34.8649H28.2679L27.0703 36.0787V43.2762L28.2679 44.4738H40.2698C47.1499 44.5271 53.2539 40.0678 55.297 33.4981C57.3356 26.9262 54.8337 19.7913 49.1351 15.9366Z" fill="#4285F4"/>
<path d="M16.2498 44.4066H28.2517V34.8H16.2498C15.395 34.8 14.5494 34.617 13.7711 34.2603L12.0847 34.7815L7.24778 39.5859L6.82617 41.2724C9.53881 43.3202 12.8491 44.4205 16.2498 44.4066Z" fill="#34A853"/>
<path d="M16.2493 13.2402C9.58238 13.2795 3.67756 17.5489 1.551 23.866C-0.575568 30.1832 1.54405 37.1559 6.82803 41.2191L13.7892 34.2579C10.7684 32.8935 9.42717 29.34 10.7916 26.3192C12.156 23.2985 15.7096 21.9572 18.7303 23.3217C20.06 23.9239 21.1256 24.9895 21.7279 26.3192L28.689 19.3581C25.7262 15.4872 21.1233 13.224 16.2493 13.2402Z" fill="#FBBC05"/>
</svg>
