<svg width="32" height="32" viewBox="0 0 32 32" fill="none" xmlns="http://www.w3.org/2000/svg">
<path d="M30.2559 0.444336H15.2744C15.2744 2.23797 15.9869 3.95813 17.2552 5.22642C18.5235 6.49471 20.2437 7.20722 22.0373 7.20722H24.7971V9.87183C24.7995 13.6035 27.8239 16.628 31.5555 16.6305V1.74398C31.5555 1.02641 30.9738 0.444336 30.2559 0.444336Z" fill="#2684FF"/>
<path d="M22.8427 7.90918H7.86133C7.86364 11.6408 10.8881 14.6654 14.6198 14.6678H17.3796V17.3409C17.3844 21.0726 20.4109 24.095 24.1425 24.095V9.20907C24.1425 8.49125 23.5605 7.9093 22.8427 7.9093V7.90918Z" fill="url(#paint0_linear_2804_16800)"/>
<path d="M15.4258 15.3696H0.444336C0.444336 19.1047 3.47229 22.1325 7.20722 22.1325H9.97564V24.797C9.97807 28.5252 12.9973 31.5484 16.7256 31.5555V16.6694C16.7256 15.9516 16.1437 15.3696 15.4258 15.3696Z" fill="url(#paint1_linear_2804_16800)"/>
<defs>
<linearGradient id="paint0_linear_2804_16800" x1="23.8219" y1="7.93524" x2="17.4878" y2="14.5447" gradientUnits="userSpaceOnUse">
<stop offset="0.18" stop-color="#0052CC"/>
<stop offset="1" stop-color="#2684FF"/>
</linearGradient>
<linearGradient id="paint1_linear_2804_16800" x1="16.8339" y1="15.4433" x2="9.50683" y2="22.6521" gradientUnits="userSpaceOnUse">
<stop offset="0.18" stop-color="#0052CC"/>
<stop offset="1" stop-color="#2684FF"/>
</linearGradient>
</defs>
</svg>
