<svg width="56" height="56" viewBox="0 0 56 56" fill="none" xmlns="http://www.w3.org/2000/svg">
<path d="M28 52.5C41.531 52.5 52.5 41.531 52.5 28C52.5 14.469 41.531 3.5 28 3.5C14.469 3.5 3.5 14.469 3.5 28C3.5 41.531 14.469 52.5 28 52.5Z" fill="#0769AD"/>
<path d="M39.6503 23.4869C41.85 23.4869 43.8641 22.7533 45.4212 21.5365C43.8046 23.6666 41.1262 25.0593 38.0956 25.0593C33.1585 25.0593 29.1562 21.3635 29.1562 16.8045C29.1562 14.2767 30.3866 12.0142 32.3246 10.5C31.3077 11.8399 30.7109 13.4717 30.7109 15.2321C30.7109 19.7911 34.7132 23.4869 39.6503 23.4869Z" fill="#78CFF5"/>
<path d="M45.3362 29.1525C42.9646 31.0128 39.8944 32.1349 36.5409 32.1349C29.028 32.1349 22.9374 26.5032 22.9374 19.556C22.9374 16.8616 23.8537 14.365 25.4137 12.3181C22.4723 14.6255 20.6054 18.0684 20.6054 21.9145C20.6054 28.8617 26.6959 34.4935 34.2088 34.4935C38.808 34.4935 42.874 32.3832 45.3362 29.1525Z" fill="#78CFF5"/>
<path d="M45.5 36.3476C42.1206 39.5725 37.439 41.5691 32.2656 41.5691C21.962 41.5691 13.6094 33.6495 13.6094 23.8801C13.6094 20.7844 14.4481 17.8745 15.9217 15.3434C12.5706 18.5412 10.5 22.9468 10.5 27.811C10.5 37.5803 18.8526 45.5 29.1562 45.5C36.1947 45.5 42.323 41.8041 45.5 36.3476Z" fill="#78CFF5"/>
</svg>
