<svg width="32" height="32" viewBox="0 0 32 32" fill="none" xmlns="http://www.w3.org/2000/svg">
<path d="M31.6756 0.444336H16.0983L1.22363 15.9999H16.0058L16.0748 15.9299L31.6756 0.444336Z" fill="url(#paint0_linear_2804_16506)"/>
<path d="M31.6756 31.5552H0.390625H31.6756ZM16.0748 15.9297L16.0057 15.9997H16.1452L16.0748 15.9297Z" fill="url(#paint1_linear_2804_16506)"/>
<path d="M16.0983 0.444336H0.390625V16.871V15.9999H1.22359L16.0983 0.444336Z" fill="url(#paint2_linear_2804_16506)"/>
<path d="M16.0057 16H1.22359L0.390625 16.8711V31.5556L16.0057 16Z" fill="url(#paint3_linear_2804_16506)"/>
<path d="M16.1452 16H16.0057L0.390625 31.5556H31.6756L16.1452 16Z" fill="url(#paint4_linear_2804_16506)"/>
<path d="M1.22359 16H0.390625V16.8711L1.22359 16Z" fill="url(#paint5_linear_2804_16506)"/>
<defs>
<linearGradient id="paint0_linear_2804_16506" x1="-5.19305" y1="28.8756" x2="23.757" y2="-0.236186" gradientUnits="userSpaceOnUse">
<stop stop-color="#C757BC"/>
<stop offset="0.108" stop-color="#C757BC"/>
<stop offset="0.173" stop-color="#CD5CA9"/>
<stop offset="0.492" stop-color="#E8744F"/>
<stop offset="0.716" stop-color="#F88316"/>
<stop offset="0.823" stop-color="#FF8900"/>
<stop offset="1" stop-color="#FF8900"/>
</linearGradient>
<linearGradient id="paint1_linear_2804_16506" x1="10.4969" y1="37.1593" x2="24.6077" y2="22.9697" gradientUnits="userSpaceOnUse">
<stop stop-color="#00AFFF"/>
<stop offset="0.296" stop-color="#00AFFF"/>
<stop offset="0.694" stop-color="#5282FF"/>
<stop offset="1" stop-color="#945DFF"/>
</linearGradient>
<linearGradient id="paint2_linear_2804_16506" x1="0.0606762" y1="9.04227" x2="9.95956" y2="-0.912177" gradientUnits="userSpaceOnUse">
<stop stop-color="#00AFFF"/>
<stop offset="0.296" stop-color="#00AFFF"/>
<stop offset="0.694" stop-color="#5282FF"/>
<stop offset="1" stop-color="#945DFF"/>
</linearGradient>
<linearGradient id="paint3_linear_2804_16506" x1="-5.01843" y1="29.0494" x2="23.9316" y2="-0.0624007" gradientUnits="userSpaceOnUse">
<stop stop-color="#AD4CA4"/>
<stop offset="0.108" stop-color="#AD4CA4"/>
<stop offset="0.173" stop-color="#B25093"/>
<stop offset="0.492" stop-color="#CA6545"/>
<stop offset="0.716" stop-color="#D87213"/>
<stop offset="0.823" stop-color="#DE7700"/>
<stop offset="1" stop-color="#DE7700"/>
</linearGradient>
<linearGradient id="paint4_linear_2804_16506" x1="10.4969" y1="37.1596" x2="24.6077" y2="22.97" gradientUnits="userSpaceOnUse">
<stop stop-color="#0098DE"/>
<stop offset="0.296" stop-color="#0098DE"/>
<stop offset="0.694" stop-color="#4771DE"/>
<stop offset="1" stop-color="#8151DE"/>
</linearGradient>
<linearGradient id="paint5_linear_2804_16506" x1="3.97283" y1="12.9327" x2="13.8717" y2="2.97826" gradientUnits="userSpaceOnUse">
<stop stop-color="#0098DE"/>
<stop offset="0.296" stop-color="#0098DE"/>
<stop offset="0.694" stop-color="#4771DE"/>
<stop offset="1" stop-color="#8151DE"/>
</linearGradient>
</defs>
</svg>
