<svg width="31" height="32" viewBox="0 0 31 32" fill="none" xmlns="http://www.w3.org/2000/svg">
<path d="M30.7182 7.54269C30.7294 7.58391 30.7351 7.62642 30.7352 7.66912V14.3064C30.7352 14.3916 30.7126 14.4753 30.6697 14.549C30.6267 14.6227 30.565 14.6838 30.4907 14.7262L24.8888 17.9336V24.2908C24.8888 24.4638 24.7963 24.6235 24.6454 24.7106L12.9519 31.4047C12.9252 31.4199 12.896 31.4295 12.8668 31.4398C12.8558 31.4435 12.8455 31.4501 12.8339 31.4531C12.7522 31.4745 12.6663 31.4745 12.5845 31.4531C12.5711 31.4495 12.559 31.4422 12.5462 31.4374C12.5194 31.4277 12.4914 31.4193 12.4659 31.4047L0.774813 24.7106C0.700543 24.6682 0.638833 24.607 0.595901 24.5333C0.552968 24.4596 0.530332 24.3759 0.530273 24.2908V4.37891C0.530273 4.33535 0.536357 4.29301 0.547306 4.25187C0.550956 4.23796 0.559472 4.22526 0.564339 4.21134C0.573463 4.18594 0.58198 4.15992 0.595362 4.13633C0.604487 4.1206 0.61787 4.1079 0.628819 4.09338C0.642811 4.07402 0.655585 4.05406 0.672009 4.03712C0.686 4.02321 0.70425 4.01293 0.720066 4.00083C0.737707 3.98631 0.753523 3.97058 0.773597 3.95909H0.774205L6.62005 0.612013C6.69407 0.569656 6.77797 0.547363 6.86337 0.547363C6.94877 0.547363 7.03268 0.569656 7.1067 0.612013L12.9525 3.95909H12.9538C12.9732 3.97119 12.9896 3.98631 13.0073 4.00022C13.0231 4.01232 13.0407 4.02321 13.0547 4.03652C13.0718 4.05406 13.0839 4.07402 13.0985 4.09338C13.1089 4.1079 13.1229 4.1206 13.1314 4.13633C13.1454 4.16053 13.1533 4.18594 13.163 4.21134C13.1679 4.22526 13.1764 4.23796 13.18 4.25248C13.1912 4.2937 13.197 4.33621 13.1971 4.37891V16.8157L18.0684 14.0263V7.66852C18.0684 7.62617 18.0745 7.58322 18.0854 7.54269C18.0897 7.52817 18.0976 7.51547 18.1025 7.50156C18.1122 7.47615 18.1207 7.45014 18.1341 7.42654C18.1432 7.41082 18.1566 7.39811 18.167 7.38359C18.1816 7.36424 18.1937 7.34427 18.2108 7.32734C18.2248 7.31342 18.2424 7.30314 18.2582 7.29104C18.2765 7.27652 18.2923 7.26079 18.3117 7.2493H18.3123L24.1588 3.90222C24.2328 3.85981 24.3167 3.83748 24.4021 3.83748C24.4875 3.83748 24.5714 3.85981 24.6454 3.90222L30.4913 7.2493C30.512 7.2614 30.5278 7.27652 30.546 7.29044C30.5612 7.30253 30.5789 7.31342 30.5929 7.32673C30.6099 7.34427 30.6221 7.36424 30.6367 7.38359C30.6476 7.39811 30.661 7.41082 30.6695 7.42654C30.6835 7.45014 30.6914 7.47615 30.7012 7.50156C30.7066 7.51547 30.7145 7.52817 30.7182 7.54269ZM29.7607 14.0263V8.50695L27.715 9.67809L24.8888 11.2963V16.8157L29.7613 14.0263H29.7607ZM23.9149 24.0107V18.4877L21.1349 20.0665L13.1965 24.5721V30.1471L23.9149 24.0107ZM1.50478 5.21674V24.0107L12.222 30.1465V24.5727L6.62309 21.4216L6.62127 21.4204L6.61883 21.4192C6.59998 21.4083 6.58416 21.3926 6.56652 21.3792C6.55131 21.3671 6.53367 21.3575 6.52029 21.3442L6.51907 21.3423C6.50325 21.3272 6.49231 21.3085 6.47892 21.2915C6.46676 21.2752 6.45216 21.2613 6.44242 21.2443L6.44182 21.2425C6.43087 21.2244 6.42417 21.2026 6.41627 21.182C6.40836 21.1639 6.39802 21.147 6.39315 21.1276V21.127C6.38707 21.104 6.38585 21.0798 6.38342 21.0562C6.38098 21.0381 6.37612 21.0199 6.37612 21.0018V8.00607L3.55053 6.38728L1.50478 5.21734V5.21674ZM6.86398 1.59079L1.99326 4.37891L6.86276 7.16703L11.7329 4.3783L6.86276 1.59079H6.86398ZM9.39698 18.991L12.2226 17.3734V5.21674L10.1768 6.38788L7.35063 8.00607V20.1627L9.39698 18.991ZM24.4021 4.881L19.532 7.66912L24.4021 10.4572L29.2716 7.66852L24.4021 4.881ZM23.9149 11.2963L21.0887 9.67809L19.0429 8.50695V14.0263L21.8685 15.6439L23.9149 16.8157V11.2963ZM12.7086 23.7342L19.852 19.6788L23.4227 17.6523L18.5563 14.866L12.9531 18.0739L7.8464 20.9975L12.7086 23.7342Z" fill="#FF2D20"/>
</svg>
