<svg width="50" height="50" viewBox="0 0 50 50" fill="none" xmlns="http://www.w3.org/2000/svg">
<path d="M8.85335 0.751953H41.1466C46.0413 0.751953 50 4.71061 50 9.60531V40.6506C50 45.5452 46.0413 49.5039 41.1466 49.5039H8.85335C3.95866 49.5039 0 45.5452 0 40.6506V9.60531C0 4.71061 3.95866 0.751953 8.85335 0.751953Z" fill="#001E36"/>
<path d="M26.2489 35.2098H13.0469C12.8129 35.2098 12.7154 35.0928 12.7154 34.8393V13.5445C12.6959 13.408 12.7934 13.2714 12.9494 13.2519C12.9689 13.2519 12.9884 13.2519 13.0274 13.2519H17.103C17.2005 13.2324 17.337 13.3105 17.337 13.4275C17.337 13.447 17.337 13.4665 17.337 13.486V30.9782H26.9704C27.1849 30.9782 27.2434 31.0757 27.2044 31.2707L26.5999 34.8978C26.5999 34.9953 26.5414 35.0928 26.4829 35.1513C26.4049 35.1903 26.3269 35.2098 26.2489 35.2098Z" fill="#31A8FF"/>
<path d="M29.5834 18.5367H33.2301C33.4446 18.5367 33.6006 18.6732 33.6591 18.8682C33.7371 19.0047 33.7956 19.1802 33.8346 19.3557C33.8736 19.5702 33.9126 19.7847 33.9321 19.9992C33.9516 20.2332 33.9711 20.4867 33.9711 20.7402C34.5951 20.0187 35.3557 19.4142 36.1942 18.9462C37.1498 18.4196 38.2223 18.1661 39.2948 18.2051C39.4313 18.1856 39.5678 18.2831 39.5874 18.4391C39.5874 18.4586 39.5874 18.4781 39.5874 18.5172V22.5928C39.5874 22.7683 39.4898 22.8268 39.2558 22.8268C37.9103 22.7488 36.5452 23.0023 35.3167 23.5289C34.9072 23.7239 34.4976 23.9579 34.1856 24.3089V34.9368C34.1856 35.1513 34.1076 35.2293 33.9126 35.2293H29.8565C29.681 35.2488 29.5444 35.1513 29.5249 34.9758C29.5249 34.9563 29.5249 34.9173 29.5249 34.8978V23.3533C29.5249 22.8463 29.5249 22.3393 29.5054 21.7933C29.4859 21.2473 29.4859 20.7012 29.4664 20.1747C29.4469 19.7067 29.4079 19.2582 29.3494 18.7902C29.3299 18.6927 29.3884 18.5757 29.4859 18.5562C29.5249 18.5172 29.5444 18.5172 29.5834 18.5367Z" fill="#31A8FF"/>
</svg>
