<svg width="32" height="32" viewBox="0 0 32 32" fill="none" xmlns="http://www.w3.org/2000/svg">
<path d="M29.5208 24.4762C27.8186 24.4333 26.4994 24.6052 25.3929 25.0776C25.0737 25.2064 24.563 25.2065 24.5204 25.6147C24.6907 25.7865 24.712 26.0658 24.8609 26.3019C25.1165 26.7314 25.563 27.3114 25.9674 27.6123C26.4141 27.9558 26.8611 28.2994 27.329 28.6002C28.159 29.1157 29.0953 29.4163 29.9038 29.9318C30.3721 30.2323 30.8399 30.6192 31.3081 30.9413C31.5421 31.1129 31.691 31.3924 31.989 31.4997V31.4354C31.8399 31.2419 31.7974 30.9628 31.6485 30.748C31.436 30.5332 31.2229 30.3399 31.0101 30.1251C30.3931 29.2875 29.6272 28.5572 28.7974 27.9558C28.1165 27.4833 26.6269 26.839 26.3504 26.0442C26.3504 26.0442 26.329 26.0228 26.3078 26.0013C26.7759 25.9584 27.329 25.7865 27.776 25.6576C28.4994 25.4642 29.159 25.5073 29.9038 25.3139C30.2442 25.228 30.5847 25.1206 30.925 25.0132V24.82C30.5422 24.4333 30.2656 23.9179 29.8612 23.5527C28.7761 22.6075 27.5844 21.684 26.3504 20.9108C25.6907 20.4812 24.8395 20.202 24.1374 19.8369C23.8823 19.7079 23.4565 19.6436 23.3077 19.4288C22.9245 18.9563 22.7117 18.3335 22.4352 17.775C21.8183 16.5935 21.2224 15.2834 20.6904 14.0378C20.3076 13.2 20.0735 12.3623 19.6053 11.5892C17.4137 7.93783 15.0306 5.72554 11.3709 3.55609C10.5835 3.10511 9.64733 2.91178 8.64729 2.67561C8.11553 2.65401 7.58341 2.61117 7.05153 2.58957C6.71104 2.4392 6.37056 2.03119 6.07264 1.83786C4.86004 1.06454 1.73198 -0.610599 0.838342 1.60169C0.263778 2.99771 1.68955 4.37224 2.17874 5.08123C2.54075 5.57517 3.00867 6.13355 3.26403 6.69206C3.41299 7.05699 3.45543 7.44389 3.60439 7.83042C3.945 8.77522 4.26395 9.82791 4.71096 10.7086C4.94504 11.1596 5.20028 11.6321 5.4982 12.0402C5.66844 12.2764 5.96624 12.3839 6.0302 12.7704C5.7324 13.2 5.711 13.8445 5.54064 14.3814C4.77468 16.8085 5.07272 19.8154 6.15776 21.5981C6.49812 22.1349 7.30677 23.3166 8.39193 22.8654C9.34953 22.4788 9.13673 21.2545 9.41313 20.1806C9.47722 19.9226 9.43466 19.751 9.56221 19.5791V19.6222C9.86014 20.2234 10.1579 20.8036 10.4346 21.4049C11.0943 22.4572 12.2431 23.5527 13.2006 24.2831C13.7115 24.6695 14.1157 25.3354 14.7541 25.5717V25.5071H14.7114C14.5837 25.3138 14.3922 25.228 14.2221 25.0775C13.8392 24.6911 13.4134 24.2185 13.1156 23.7889C12.2221 22.586 11.4346 21.2544 10.7325 19.8798C10.3921 19.2141 10.0941 18.4837 9.81758 17.818C9.68977 17.5599 9.68977 17.1735 9.47709 17.0448C9.15789 17.5172 8.68985 17.9254 8.45577 18.5052C8.05169 19.4288 8.00901 20.5671 7.86005 21.7483C7.77493 21.7701 7.81737 21.7483 7.77481 21.7916C7.09409 21.6195 6.86001 20.9108 6.60452 20.3094C5.96612 18.7845 5.85972 16.3359 6.41312 14.5747C6.56208 14.1236 7.20049 12.7061 6.94513 12.2765C6.81745 11.8683 6.39172 11.6321 6.15776 11.31C5.88124 10.9018 5.5832 10.3865 5.3918 9.93531C4.88108 8.7325 4.62571 7.40081 4.07255 6.198C3.81719 5.63949 3.37055 5.05975 3.00867 4.54421C2.60447 3.96435 2.15759 3.55609 1.83839 2.86882C1.73211 2.63265 1.58302 2.246 1.75326 1.98822C1.79582 1.81638 1.88082 1.75206 2.05119 1.7091C2.32783 1.47268 3.11519 1.77342 3.39159 1.9023C4.17895 2.22427 4.83852 2.52525 5.4982 2.97622C5.796 3.19103 6.1152 3.59917 6.49812 3.70658H6.945C7.62597 3.85682 8.39181 3.74954 9.03021 3.94274C10.1581 4.3078 11.1793 4.84482 12.0943 5.42481C14.8818 7.20748 17.1795 9.74198 18.733 12.7704C18.9883 13.2642 19.0946 13.7156 19.3287 14.2309C19.7757 15.2834 20.3289 16.3574 20.7755 17.3883C21.2224 18.3977 21.6479 19.4288 22.2863 20.2665C22.6055 20.7174 23.882 20.9538 24.4566 21.1901C24.8822 21.3833 25.5419 21.5553 25.9248 21.7914C26.6482 22.2423 27.3716 22.7581 28.0526 23.2519C28.393 23.5097 29.4568 24.0467 29.5208 24.4762Z" fill="#00546B"/>
<path d="M7.81755 5.81104C7.45591 5.81104 7.20067 5.85424 6.94531 5.91856V5.96153H6.98787C7.15824 6.30522 7.45591 6.54151 7.66859 6.84212C7.83895 7.18569 7.98779 7.52951 8.15816 7.87321C8.17931 7.8516 8.20059 7.83024 8.20059 7.83024C8.49864 7.61531 8.64747 7.27174 8.64747 6.7562C8.51979 6.60595 8.49851 6.45559 8.39211 6.30522C8.26456 6.09029 7.98779 5.98301 7.81755 5.81104Z" fill="#00546B"/>
</svg>
