<svg width="49" height="48" viewBox="0 0 49 48" fill="none" xmlns="http://www.w3.org/2000/svg">
<g clip-path="url(#clip0_1450_12218)">
<path fill-rule="evenodd" clip-rule="evenodd" d="M28.852 0C28.5157 0.00517596 28.1825 0.0640732 27.8654 0.174388C28.4507 0.550854 28.8707 1.12992 29.0422 1.79672C29.054 1.88339 29.0798 1.94575 29.0927 2.03241C29.1072 2.1063 29.1155 2.18124 29.1174 2.25647C29.1679 3.35142 28.8262 3.48881 28.5865 4.13564C28.413 4.52815 28.3385 4.95609 28.3694 5.38302C28.4002 5.80995 28.5356 6.22322 28.7638 6.58763C28.8042 6.68395 28.855 6.77572 28.9154 6.86137C28.4339 3.71288 31.1045 3.24044 31.6021 2.25647C31.6397 1.39827 30.9186 0.825436 30.349 0.426986C29.902 0.150142 29.3845 0.00355709 28.8563 0.00422758L28.852 0ZM32.8756 0.709177C32.852 0.828177 32.8437 0.949607 32.8508 1.07064C32.8379 1.16998 32.8379 1.2947 32.825 1.39405C32.8016 1.49501 32.7722 1.59453 32.7369 1.69209C32.7088 1.79351 32.675 1.89336 32.6359 1.99119C32.5854 2.09054 32.5467 2.17826 32.4962 2.27761C32.4586 2.32729 32.4328 2.37696 32.3952 2.42663L32.3189 2.53655C32.2555 2.62427 32.1931 2.71094 32.1297 2.78598C32.0598 2.86637 31.9836 2.94128 31.9019 3.01004V3.02167C31.8256 3.08402 31.7493 3.15906 31.6612 3.22142C31.3957 3.42012 31.0916 3.56914 30.8132 3.75621C30.7238 3.81136 30.6393 3.87394 30.5607 3.94328C30.4748 4.00254 30.3942 4.06902 30.32 4.14198C30.2371 4.21522 30.1605 4.29512 30.0911 4.38083C30.0206 4.45813 29.9569 4.54122 29.9008 4.62921C29.8374 4.71693 29.7751 4.80359 29.7235 4.89132C29.6719 4.97904 29.6365 5.0731 29.586 5.17879C29.5467 5.27228 29.513 5.36791 29.4849 5.46521C29.4463 5.57724 29.4215 5.67659 29.3957 5.78228C29.3839 5.83195 29.3839 5.89431 29.371 5.94398C29.3581 5.99366 29.3581 6.04333 29.3452 6.09301C29.3452 6.19236 29.3323 6.30439 29.3323 6.40373C29.3302 6.47865 29.3345 6.5536 29.3452 6.6278C29.3457 6.7346 29.3587 6.84099 29.3839 6.94486C29.3985 7.04537 29.4193 7.14491 29.4463 7.24291C29.4849 7.3486 29.5097 7.44266 29.5483 7.54201C29.5731 7.60437 29.6118 7.66673 29.6365 7.7164L26.7262 6.59609C26.233 6.45869 25.7515 6.33504 25.2582 6.22301L24.4608 6.03593C23.7021 5.88691 22.9294 5.77488 22.1578 5.69984C22.1331 5.69984 22.1202 5.68716 22.0944 5.68716C21.3356 5.61318 20.5898 5.57513 19.8289 5.57513C19.2723 5.57513 18.7156 5.60049 18.1718 5.63748C17.4002 5.68716 16.6275 5.78651 15.8559 5.91122C15.6656 5.93659 15.4765 5.97358 15.2863 6.01057C14.894 6.08561 14.5147 6.17227 14.1471 6.26L13.5786 6.40902C13.3884 6.48406 13.2111 6.57072 13.0337 6.64576L12.6168 6.83178C12.591 6.84446 12.5663 6.84446 12.5534 6.85714C12.4266 6.9195 12.3126 6.96917 12.1987 7.03153C12.1684 7.04153 12.1389 7.0539 12.1106 7.06852C11.9709 7.13088 11.8323 7.20592 11.7183 7.26827C11.6291 7.30527 11.541 7.35494 11.4647 7.39193C11.4281 7.41509 11.3901 7.43592 11.3508 7.45429C11.2369 7.51665 11.123 7.579 11.0219 7.64136C10.9174 7.69824 10.8159 7.76033 10.7178 7.82737C10.6297 7.88973 10.5416 7.9394 10.4653 8.00176C10.4524 8.01444 10.4395 8.01444 10.4277 8.02713C10.3444 8.0811 10.264 8.13931 10.1869 8.20151L10.1611 8.22582L9.97199 8.3759C9.9462 8.38753 9.92148 8.41289 9.89569 8.42558C9.83228 8.47525 9.76887 8.53761 9.70547 8.58728C9.69365 8.61159 9.66785 8.62427 9.65496 8.63696C9.57973 8.712 9.50343 8.7733 9.42713 8.84834C9.4153 8.84834 9.4153 8.86102 9.40241 8.8737C9.32611 8.935 9.25088 9.01004 9.17458 9.08508C9.16168 9.09776 9.16168 9.10939 9.14878 9.10939C9.08538 9.17175 9.02305 9.2341 8.95964 9.30914C8.93385 9.33345 8.89623 9.35882 8.87044 9.38312C8.80704 9.45816 8.73181 9.5332 8.65551 9.60719C8.64261 9.63255 8.61789 9.64523 8.605 9.66954C8.50398 9.76889 8.41478 9.8693 8.31376 9.96865L8.27614 10.0056C8.07348 10.2211 7.85818 10.4247 7.63134 10.6155C7.4071 10.8123 7.17056 10.9951 6.92312 11.1629C6.6695 11.3373 6.42984 11.4863 6.16332 11.6364C5.90528 11.7755 5.6394 11.9001 5.36699 12.0095C5.10047 12.1215 4.82212 12.2209 4.54378 12.3076C4.01289 12.4196 3.4691 12.632 3.00054 12.669C2.89421 12.6751 2.78834 12.6874 2.68351 12.706C2.5696 12.7314 2.46858 12.7557 2.36756 12.781L2.06235 12.8941C1.95896 12.9343 1.8578 12.9798 1.75929 13.0305C1.67009 13.0928 1.56907 13.1425 1.48095 13.2049C1.39092 13.2687 1.30612 13.3394 1.22732 13.4162C1.13743 13.4845 1.053 13.5594 0.974773 13.6403C0.898471 13.728 0.822168 13.802 0.759837 13.8897C0.697506 13.9775 0.620129 14.0768 0.569619 14.1761C0.502801 14.2668 0.443502 14.3626 0.392297 14.4626C0.341787 14.5746 0.291277 14.6739 0.252588 14.786C0.2139 14.898 0.177361 14.9974 0.145121 15.1094C0.117316 15.2073 0.0961348 15.3068 0.0817144 15.4074C0.0817144 15.4201 0.0688183 15.4328 0.0688183 15.4455C0.043026 15.5575 0.043026 15.7065 0.0312045 15.7816C0.0144868 15.8631 0.00406847 15.9458 3.88216e-05 16.0289C-0.00209076 16.0831 0.00223739 16.1374 0.012935 16.1906C0.022253 16.2709 0.0391629 16.3501 0.0634449 16.4273C0.0871707 16.5041 0.116625 16.5789 0.151569 16.6514V16.6641C0.194047 16.7412 0.240683 16.816 0.291277 16.8881C0.342061 16.9656 0.396945 17.0404 0.455703 17.1122C0.519109 17.1746 0.594336 17.2485 0.670639 17.3109C0.74461 17.3842 0.825183 17.4507 0.911367 17.5096C1.21443 17.7717 1.29073 17.8584 1.68299 18.0581C1.74639 18.0951 1.8098 18.1194 1.8861 18.1575C1.89792 18.1575 1.91082 18.1702 1.92371 18.1702C1.92162 18.1914 1.92612 18.2128 1.93661 18.2315C1.95092 18.3324 1.9721 18.4324 2.00002 18.5306C2.0236 18.6333 2.05744 18.7335 2.10104 18.8297C2.13865 18.9036 2.16444 18.9787 2.20206 19.0537C2.21165 19.0758 2.22431 19.0964 2.23967 19.115C2.29018 19.2154 2.34069 19.3021 2.39227 19.3888C2.44386 19.4754 2.51801 19.5631 2.58142 19.6509C2.64482 19.7386 2.72113 19.8126 2.79635 19.8866C2.87158 19.9605 2.94896 20.024 3.03708 20.0979C3.04423 20.1044 3.05325 20.1084 3.06287 20.1096C3.13543 20.1719 3.21149 20.2301 3.29071 20.284C3.37869 20.3455 3.4718 20.3996 3.56905 20.4457C3.66165 20.4994 3.75872 20.5454 3.85921 20.5831C3.94088 20.6195 4.02578 20.6485 4.11284 20.6697C4.12573 20.6824 4.13755 20.6824 4.16335 20.6951C4.21386 20.7078 4.27726 20.7194 4.32777 20.7321C4.29016 21.4043 4.27726 22.0395 4.37828 22.2635C4.4922 22.5119 5.05103 21.7541 5.60557 20.8832C5.53034 21.7414 5.47983 22.7497 5.60557 23.0477C5.7313 23.3458 6.504 22.3882 7.16278 21.3187C16.1342 19.2778 24.3222 25.375 25.1819 33.9877C25.0175 32.6433 23.3345 31.8961 22.5629 32.0853C22.1836 33.0058 21.5377 34.1885 20.5006 34.923C20.591 34.0919 20.5482 33.2521 20.3738 32.434C20.0907 33.5787 19.5559 34.6484 18.8069 35.5677C17.6044 35.6544 16.4029 35.0826 15.7699 34.2234C15.7194 34.1864 15.7065 34.1113 15.6689 34.0617C15.6292 33.9768 15.5951 33.8897 15.5668 33.8006C15.5299 33.7173 15.5046 33.6295 15.4915 33.5395C15.4805 33.4487 15.4762 33.3572 15.4786 33.2658V33.0809C15.4937 32.9925 15.5148 32.9053 15.542 32.8198C15.5656 32.7306 15.595 32.6431 15.6302 32.5577C15.6764 32.4681 15.7273 32.381 15.7828 32.2966C15.9977 31.6995 15.9977 31.2144 15.6055 30.928C15.5291 30.8795 15.4485 30.8378 15.3647 30.8032C15.3142 30.7906 15.2508 30.7663 15.2003 30.7536C15.1498 30.7409 15.1369 30.7293 15.0993 30.7166C15.0114 30.6883 14.9216 30.666 14.8306 30.65C14.7444 30.6252 14.655 30.6128 14.5652 30.613C14.4731 30.5983 14.3801 30.5898 14.2868 30.5876C14.2234 30.5876 14.16 30.6003 14.0966 30.6003C14.0025 30.5999 13.9088 30.6123 13.8183 30.6373C13.6358 30.6592 13.4572 30.7054 13.2874 30.7747C13.1982 30.8117 13.1229 30.8487 13.0337 30.8867C12.9446 30.9248 12.8822 30.9734 12.7941 31.0104C9.84518 32.9022 11.6044 37.3327 13.6162 38.6148C12.8564 38.7511 12.0848 38.9139 11.8699 39.0756L11.8441 39.0999C12.3903 39.4219 12.9617 39.7007 13.5528 39.9338C14.3631 40.1948 15.2229 40.4316 15.6033 40.5309V40.5436C16.6516 40.755 17.7236 40.8304 18.7919 40.7677C24.3974 40.3819 28.9917 36.1881 29.8267 30.6627C29.8514 30.7747 29.8772 30.8741 29.9019 30.9861C29.9406 31.2101 29.9911 31.4469 30.0158 31.6826V31.6953C30.0416 31.8073 30.0545 31.9193 30.0674 32.0187V32.0683C30.0792 32.1804 30.0921 32.2924 30.0921 32.3918C30.105 32.5292 30.1179 32.6665 30.1179 32.8029V33.0016C30.1179 33.0639 30.1297 33.139 30.1297 33.2013C30.1297 33.2637 30.1179 33.3504 30.1179 33.4254V33.5998C30.1179 33.6865 30.105 33.7615 30.105 33.8482C30.1067 33.9024 30.1024 33.9566 30.0921 34.0099C30.0921 34.0976 30.0792 34.1843 30.0792 34.2836C30.0687 34.32 30.0643 34.3578 30.0663 34.3956C30.0545 34.495 30.0416 34.5827 30.0287 34.682C30.0308 34.7198 30.0265 34.7577 30.0158 34.7941C30.0029 34.9188 29.9782 35.0308 29.9653 35.1555V35.1798C29.9406 35.2919 29.9148 35.4166 29.8901 35.5286V35.5656C29.8643 35.6776 29.8385 35.7897 29.8138 35.9017C29.8138 35.9144 29.8009 35.9387 29.8009 35.9514C29.7776 36.0649 29.7482 36.1771 29.7128 36.2875V36.3245C29.6741 36.4492 29.6365 36.5612 29.6053 36.6732C29.5985 36.6801 29.5943 36.6891 29.5935 36.6986C29.5548 36.8223 29.5172 36.947 29.4796 37.0717C29.442 37.1964 29.3904 37.3084 29.3399 37.4321C29.2893 37.5558 29.2517 37.6815 29.2012 37.7936C29.1507 37.9056 29.0991 38.0303 29.0486 38.154H29.0368C28.9852 38.266 28.9347 38.3907 28.8713 38.5027C28.8616 38.5327 28.849 38.5617 28.8337 38.5894C28.8208 38.6021 28.8208 38.6148 28.809 38.6274C27.9728 40.2757 26.7556 41.7083 25.255 42.8106C25.154 42.873 25.0519 42.948 24.9509 43.022C24.9261 43.0474 24.8875 43.0601 24.8627 43.0844C24.7735 43.1467 24.6854 43.2091 24.5844 43.2714L24.622 43.3465H24.6349L25.1658 43.2714H25.1787C25.5075 43.2218 25.8375 43.1594 26.1663 43.0971C26.2604 43.0822 26.3534 43.0614 26.4447 43.0347L26.622 42.9977C26.7101 42.985 26.7982 42.9607 26.8874 42.948C26.9766 42.9354 27.039 42.91 27.1153 42.8857C28.3693 42.5849 29.5966 42.1852 30.7853 41.6903C28.752 44.4149 26.0475 46.5861 22.9262 48C24.387 47.9051 25.8336 47.6592 27.2421 47.2665C32.3258 45.7962 36.6197 42.4224 39.2 37.8707C38.6791 40.7507 37.5176 43.482 35.7987 45.8693C38.1161 44.3662 40.0878 42.4026 41.587 40.1048C43.0862 37.8071 44.0797 35.2262 44.5036 32.5281C44.9351 34.4978 45.0587 36.5207 44.87 38.527C54.0091 25.9996 45.632 13.0051 42.1275 9.58288C42.1146 9.55751 42.1017 9.54589 42.1017 9.52052C42.0899 9.5332 42.0899 9.5332 42.0899 9.54589C42.0899 9.5332 42.0899 9.5332 42.077 9.52052C42.077 9.66954 42.0641 9.81962 42.0512 9.96865C42.0136 10.2551 41.9759 10.5288 41.9254 10.8025C41.8749 11.0763 41.7857 11.35 41.7105 11.6237C41.6353 11.8975 41.5213 12.1585 41.4074 12.4206C41.2935 12.6828 41.1667 12.9301 41.0281 13.1795C40.8894 13.4289 40.7368 13.6646 40.5724 13.8887C40.408 14.1127 40.2307 14.3495 40.0533 14.5609C39.876 14.7722 39.6611 14.9836 39.458 15.1834C39.3322 15.2954 39.2183 15.3948 39.0915 15.4941C38.9905 15.5808 38.9013 15.6558 38.8003 15.7435C38.574 15.9186 38.3375 16.0806 38.092 16.2286C37.8513 16.3777 37.5988 16.5267 37.3451 16.6514C37.0915 16.7761 36.8078 16.8881 36.5477 17.0002C36.2877 17.1122 36.0039 17.1862 35.7256 17.2612C35.4473 17.3363 35.156 17.3986 34.8777 17.4483C34.5993 17.498 34.2952 17.5223 34.0179 17.5476C33.8159 17.5603 33.6128 17.572 33.4107 17.572C33.1195 17.572 32.8283 17.5476 32.551 17.5223C31.9714 17.469 31.3991 17.3563 30.8433 17.1862H30.8304C31.1088 17.1619 31.3871 17.1365 31.6655 17.0868C31.9438 17.0372 32.235 16.9748 32.5134 16.9008C32.7917 16.8268 33.0701 16.7381 33.3355 16.6387C33.6078 16.5378 33.874 16.4217 34.1329 16.291C34.3984 16.1663 34.6391 16.0289 34.8927 15.8799C35.1463 15.7308 35.3731 15.5565 35.6009 15.3821C35.8275 15.2087 36.0428 15.0216 36.2457 14.8219C36.4563 14.6307 36.6547 14.4271 36.84 14.2121C37.0303 13.988 37.2065 13.764 37.3774 13.5399C37.4021 13.5029 37.4279 13.4532 37.4526 13.4162C37.5794 13.2165 37.7062 13.0178 37.8202 12.818C37.9588 12.5697 38.0856 12.3202 38.1995 12.0592C38.3134 11.7981 38.4145 11.5371 38.5036 11.2623C38.5928 10.9875 38.6552 10.7275 38.7186 10.4538C38.782 10.18 38.8196 9.89361 38.8443 9.61987C38.869 9.34613 38.8959 9.04809 38.8959 8.77435C38.8959 8.57566 38.883 8.37696 38.8701 8.17721C38.8443 7.89079 38.8067 7.61705 38.7691 7.34332C38.7315 7.06958 38.6552 6.78316 38.5789 6.50942C38.5026 6.23569 38.4016 5.97463 38.3005 5.71358C38.1955 5.45073 38.0772 5.19323 37.9459 4.94205C37.8073 4.69262 37.6675 4.44425 37.516 4.20222C37.3645 3.96019 37.1872 3.74141 37.0098 3.51735C36.8325 3.29329 36.6305 3.09459 36.4274 2.88321C36.3263 2.78386 36.2124 2.67183 36.0985 2.57249C35.5289 2.13599 34.9346 1.72697 34.3403 1.35283C34.2586 1.30601 34.1739 1.26436 34.0867 1.22811C33.7112 1.00207 33.3068 0.826143 32.8841 0.70495L32.8756 0.709177Z" fill="#E0234E"/>
</g>
<defs>
<clipPath id="clip0_1450_12218">
<rect width="49" height="48" fill="white"/>
</clipPath>
</defs>
</svg>
