<svg width="96" height="48" viewBox="0 0 96 48" fill="none" xmlns="http://www.w3.org/2000/svg">
<g clip-path="url(#clip0_1450_12201)">
<path fill-rule="evenodd" clip-rule="evenodd" d="M48 48C74.5078 48 96 37.2545 96 23.9961C96 10.7455 74.5078 0 48 0C21.4922 0 0 10.7455 0 24.0039C0 37.2545 21.4922 48 48 48ZM73.3437 19.2632C72.9766 18.8624 72.0078 18.662 70.4297 18.662H68.0469L66.6484 25.7459H68.0156C68.9766 25.7459 69.7891 25.6612 70.4687 25.4916C71.0625 25.3451 71.5391 25.137 71.8984 24.8672C72.25 24.6051 72.5469 24.2351 72.7969 23.7572C73.0781 23.2253 73.3047 22.5624 73.4609 21.7684C73.6094 21.0284 73.6484 20.4195 73.5859 19.9338C73.5469 19.6178 73.4687 19.3942 73.3437 19.2632ZM42.625 5.28794H47.9453C48.8047 5.28794 49.5078 5.98169 49.5078 6.82961C49.5078 6.96065 49.4922 7.0917 49.4609 7.21503L48.5703 11.7398H51.4141C53.0312 11.7398 54.4141 11.8863 55.5703 12.1715C56.8516 12.4953 57.875 12.9963 58.6406 13.6901C59.3047 14.2913 59.7734 15.0313 60.0547 15.9101L60.6094 13.0811C60.7109 12.3257 61.3672 11.7398 62.1562 11.7398H72.4688C74.1875 11.7398 75.7031 11.9711 77.0156 12.4413C78.3984 12.9346 79.5391 13.6824 80.4297 14.6844C81.3281 15.7019 81.9141 16.9044 82.1797 18.2997C82.4297 19.6178 82.3984 21.0824 82.0781 22.7088C81.9453 23.3641 81.7656 24.0116 81.5391 24.6436C81.3125 25.268 81.0391 25.8616 80.7187 26.4243C80.3906 26.9947 80.0234 27.542 79.6172 28.043C79.2031 28.5518 78.7422 29.0451 78.2344 29.4999C77.6172 30.0703 76.9688 30.556 76.2891 30.9568C75.5859 31.3731 74.8594 31.6968 74.1016 31.9435C73.3672 32.1824 72.5234 32.3597 71.5859 32.4753C70.6562 32.591 69.6641 32.6526 68.6172 32.6526H65.3125L64.2812 37.771C64.1797 38.5264 63.5234 39.1123 62.7344 39.1123H57.375C57.2813 39.1123 57.1797 39.1045 57.0781 39.0814C56.2344 38.9195 55.6797 38.1179 55.8359 37.2777L56.7578 32.5987C56.6328 32.6295 56.5 32.6449 56.3672 32.6449H50.9609C50.1016 32.6449 49.3984 31.9512 49.3984 31.1033C49.3984 30.9722 49.4141 30.8412 49.4453 30.7178L51.5391 20.0726C51.6328 19.6024 51.6641 19.2401 51.6328 18.978C51.625 18.9009 51.6875 18.9395 51.6641 18.9086L51.4453 18.8547C51.1328 18.7776 50.6953 18.739 50.1328 18.739H47.1641L44.6875 31.4039C44.5469 32.1439 43.8906 32.6526 43.1563 32.6526H37.8359C36.9766 32.6526 36.2734 31.9589 36.2734 31.111C36.2734 30.9799 36.2891 30.8489 36.3203 30.7255L36.6016 29.2841L36.3672 29.4999C35.75 30.0703 35.1016 30.556 34.4219 30.9568C33.7188 31.3731 32.9922 31.6968 32.2344 31.9435C31.5 32.1824 30.6563 32.3597 29.7188 32.4753C28.7891 32.591 27.7969 32.6526 26.75 32.6526H23.4375L22.4297 37.771C22.3281 38.5264 21.6719 39.1123 20.8828 39.1123H15.5234C15.4297 39.1123 15.3281 39.1045 15.2266 39.0814C14.3828 38.9195 13.8281 38.1179 13.9844 37.2777L18.75 13.0811C18.8516 12.3257 19.5078 11.7398 20.2969 11.7398H30.6094C32.3281 11.7398 33.8438 11.9711 35.1562 12.4413C36.5469 12.9346 37.6797 13.6824 38.5703 14.6844C38.8359 14.9851 39.0781 15.3088 39.2969 15.648L41.0937 6.5444C41.2344 5.8044 41.8906 5.28794 42.625 5.28794ZM31.5 19.2632C31.1328 18.8624 30.1641 18.662 28.5859 18.662H26.1953L24.7969 25.7459H26.1641C27.125 25.7459 27.9375 25.6612 28.6172 25.4916C29.2109 25.3451 29.6875 25.137 30.0469 24.8672C30.3984 24.6051 30.6953 24.2351 30.9453 23.7572C31.2266 23.2253 31.4531 22.5624 31.6094 21.7684C31.7578 21.0284 31.7969 20.4195 31.7344 19.9338C31.6953 19.6178 31.6172 19.3942 31.5 19.2632Z" fill="#6884BA"/>
<path fill-rule="evenodd" clip-rule="evenodd" d="M70.4297 17.1203C72.4688 17.1203 73.8281 17.4903 74.5 18.2303C75.1797 18.9703 75.3359 20.2421 74.9844 22.0536C74.6172 23.9345 73.8984 25.2757 72.8438 26.0774C71.7891 26.8791 70.1719 27.2799 68.0156 27.2799H64.7578L66.7578 17.1126H70.4297V17.1203ZM42.625 6.82959H47.9453L46.6719 13.2892H51.4141C54.3984 13.2892 56.4531 13.8057 57.5859 14.8309C58.7188 15.8561 59.0547 17.5211 58.6016 19.8182L56.375 31.1187H50.9687L53.0859 20.3732C53.3281 19.1476 53.2344 18.3151 52.8203 17.8757C52.3984 17.4286 51.5156 17.2051 50.1484 17.2051H45.8984L43.1563 31.1187H37.8359L42.625 6.82959ZM28.5859 17.1203C30.625 17.1203 31.9844 17.4903 32.6563 18.2303C33.3359 18.9703 33.5 20.2421 33.1406 22.0536C32.7734 23.9345 32.0547 25.2757 31 26.0774C29.9453 26.8791 28.3281 27.2799 26.1719 27.2799H22.9141L24.9141 17.1126H28.5859V17.1203ZM15.5234 37.5706H20.8828L22.1563 31.1109H26.75C28.7734 31.1109 30.4453 30.9028 31.75 30.4789C33.0625 30.0626 34.25 29.3534 35.3203 28.3668C36.2188 27.5497 36.9453 26.6555 37.5 25.6688C38.0547 24.6899 38.4531 23.603 38.6875 22.4159C39.2578 19.5407 38.8281 17.2976 37.4063 15.6865C35.9844 14.0832 33.7187 13.2738 30.6172 13.2738H20.3047L15.5234 37.5706ZM57.3672 37.5706H62.7266L64 31.1109H68.5938C70.6172 31.1109 72.2891 30.9028 73.5937 30.4789C74.9062 30.0626 76.0937 29.3534 77.1641 28.3668C78.0625 27.5497 78.7891 26.6555 79.3438 25.6688C79.8984 24.6899 80.2969 23.603 80.5313 22.4159C81.1016 19.5407 80.6719 17.2976 79.25 15.6865C77.8281 14.0832 75.5625 13.2738 72.4609 13.2738H62.1484L57.3672 37.5706Z" fill="white"/>
</g>
<defs>
<clipPath id="clip0_1450_12201">
<rect width="96" height="48" fill="white"/>
</clipPath>
</defs>
</svg>
