<svg width="55" height="48" viewBox="0 0 55 48" fill="none" xmlns="http://www.w3.org/2000/svg">
<g clip-path="url(#clip0_1450_12220)">
<path d="M41.645 14.6705C40.6401 14.1013 39.3471 14.1013 38.1982 14.6705L30.1568 19.3716L24.7002 22.3617L16.8018 27.066C15.7969 27.6353 14.5039 27.6353 13.355 27.066L7.18267 23.3628C6.65776 23.056 6.22262 22.6188 5.92028 22.0942C5.61794 21.5696 5.45885 20.9758 5.45874 20.3715V13.2464C5.45874 12.1068 6.03375 10.9672 7.18267 10.2551L13.355 6.6947C14.3599 6.12438 15.6529 6.12438 16.8018 6.6947L22.9741 10.398C23.4992 10.7045 23.9345 11.1418 24.2368 11.6664C24.5392 12.191 24.6982 12.7849 24.6981 13.3892V18.0892L30.1547 14.9552V10.1134C30.1547 8.97382 29.5807 7.83426 28.4318 7.12217L16.9447 0.429812C15.9398 -0.140504 14.648 -0.140504 13.499 0.429812L1.72284 7.26394C0.573921 7.83426 0 8.97382 0 10.1134V23.5013C0 24.6409 0.573921 25.7772 1.72284 26.4925L13.355 33.1881C14.3599 33.7584 15.6529 33.7584 16.8018 33.1881L24.7002 28.6299L30.1568 25.4969L38.0553 20.9386C39.0602 20.3694 40.3531 20.3694 41.502 20.9386L47.6744 24.5002C48.2002 24.807 48.636 25.2449 48.9386 25.7703C49.2412 26.2958 49.4 26.8906 49.3994 27.4957V34.6166C49.3994 35.7561 48.8255 36.8957 47.6766 37.6078L41.645 41.1693C40.6401 41.7385 39.3471 41.7385 38.1982 41.1693L32.0259 37.6078C31.5011 37.301 31.0661 36.8637 30.7639 36.3391C30.4618 35.8145 30.3029 35.2207 30.303 34.6166V30.054L24.8432 33.1881V37.8881C24.8432 39.0277 25.4182 40.1672 26.5671 40.8793L38.1982 47.5738C39.2042 48.1441 40.4961 48.1441 41.645 47.5738L53.2772 40.8782C53.8019 40.5715 54.2369 40.1342 54.5391 39.6096C54.8412 39.0849 55.0001 38.4912 55 37.887V24.3541C55 23.2145 54.4261 22.075 53.2772 21.3629L41.645 14.6705Z" fill="#8247E5"/>
</g>
<defs>
<clipPath id="clip0_1450_12220">
<rect width="55" height="48" fill="white"/>
</clipPath>
</defs>
</svg>
