<svg width="31" height="32" viewBox="0 0 31 32" fill="none" xmlns="http://www.w3.org/2000/svg">
<path d="M30.7094 19.0806C30.5275 18.5312 30.051 18.1486 29.4349 18.0568C29.1443 18.0136 28.8116 18.032 28.4179 18.113C27.7316 18.2542 27.2224 18.3079 26.8508 18.3183C28.2534 15.9569 29.3939 13.2641 30.0504 10.7292C31.1121 6.63038 30.5448 4.76311 29.8818 3.91851C28.1273 1.68294 25.5676 0.481973 22.4794 0.445226C20.832 0.425139 19.3859 0.749485 18.6314 0.982731C17.929 0.859137 17.1737 0.790132 16.3813 0.777371C14.8957 0.753739 13.5832 1.07667 12.4617 1.74037C11.8408 1.53099 10.8443 1.23583 9.69349 1.04748C6.98691 0.604386 4.80548 0.949647 3.20987 2.07369C1.27775 3.43465 0.382072 5.79925 0.547723 9.1018C0.600333 10.1503 1.18853 13.3406 2.11465 16.3662C2.64692 18.1053 3.21449 19.5494 3.80162 20.6589C4.63426 22.2322 5.52519 23.1587 6.52538 23.4914C7.08596 23.6777 8.10452 23.8081 9.1758 22.9184C9.31159 23.0824 9.49276 23.2453 9.73318 23.3967C10.0385 23.5887 10.4119 23.7456 10.7848 23.8386C12.1286 24.1736 13.3873 24.0898 14.4612 23.6202C14.4679 23.8107 14.473 23.9927 14.4772 24.1498C14.4843 24.4047 14.4914 24.6546 14.5008 24.8883C14.5644 26.4686 14.6723 27.6973 14.9917 28.557C15.0093 28.6043 15.0328 28.6764 15.0577 28.7528C15.2171 29.2394 15.4836 30.054 16.1616 30.6919C16.8636 31.3528 17.7129 31.5554 18.4907 31.5554C18.8807 31.5554 19.2529 31.5044 19.5794 31.4347C20.7429 31.186 22.0645 30.8071 23.0205 29.4497C23.9243 28.1665 24.3637 26.2338 24.4432 23.1885C24.4535 23.1023 24.463 23.0201 24.4721 22.9418L24.4911 22.7808L24.704 22.7995L24.7589 22.8032C25.944 22.857 27.3932 22.6064 28.2831 22.1942C28.9864 21.8688 31.24 20.6823 30.7094 19.0806Z" fill="black"/>
<path d="M28.683 19.3921C25.1591 20.117 24.9168 18.9272 24.9168 18.9272C28.6374 13.4218 30.1928 6.43354 28.8507 4.72318C25.1888 0.0576649 18.8501 2.26417 18.7443 2.32136L18.7103 2.3275C18.014 2.18335 17.235 2.09757 16.3592 2.08327C14.7648 2.05727 13.5552 2.50013 12.6374 3.1942C12.6374 3.1942 1.3297 -1.45111 1.85569 9.03647C1.96754 11.2675 5.06255 25.9182 8.75403 21.493C10.1033 19.8749 11.4071 18.5067 11.4071 18.5067C12.0545 18.9356 12.8297 19.1544 13.6423 19.0759L13.7054 19.0225C13.6858 19.2233 13.6948 19.4198 13.7307 19.6525C12.7797 20.712 13.0592 20.898 11.1581 21.2883C9.2344 21.6836 10.3645 22.3874 11.1023 22.5715C11.9968 22.7945 14.0661 23.1104 15.4643 21.1585L15.4086 21.3813C15.7812 21.6789 16.0428 23.3171 15.999 24.8022C15.9551 26.2872 15.9259 27.3068 16.2194 28.1032C16.5131 28.8996 16.8057 30.6915 19.3049 30.1575C21.3931 29.7113 22.4752 28.5548 22.6258 26.6258C22.7326 25.2544 22.9744 25.4572 22.9896 24.231L23.1836 23.6506C23.4072 21.7916 23.2191 21.1919 24.5056 21.4708L24.8184 21.4982C25.7652 21.5411 27.0046 21.3463 27.732 21.0092C29.2982 20.2844 30.2272 19.0741 28.6828 19.3921H28.683Z" fill="#336791"/>
<path d="M13.2996 10.0341C12.9821 9.98998 12.6945 10.0307 12.549 10.1406C12.4672 10.2024 12.4419 10.274 12.435 10.3233C12.4167 10.4539 12.5084 10.5983 12.5648 10.6727C12.7243 10.8835 12.9573 11.0284 13.1879 11.0603C13.2213 11.065 13.2546 11.0671 13.2876 11.0671C13.6721 11.0671 14.0218 10.7685 14.0526 10.5482C14.0911 10.2721 13.6893 10.0882 13.2996 10.0342V10.0341ZM23.8198 10.0428C23.7894 9.82645 23.4034 9.76477 23.037 9.81558C22.6711 9.86639 22.3164 10.0311 22.346 10.2479C22.3697 10.4165 22.675 10.7044 23.0364 10.7044C23.067 10.7044 23.0978 10.7024 23.1288 10.698C23.3701 10.6647 23.5471 10.5119 23.6313 10.4239C23.7592 10.2896 23.8334 10.14 23.8198 10.0428Z" fill="white"/>
<path d="M29.8553 19.3099C29.721 18.9048 29.2885 18.7744 28.5699 18.9224C26.4365 19.3614 25.6725 19.0573 25.4216 18.8731C27.0799 16.3539 28.4441 13.3087 29.18 10.4676C29.5286 9.12176 29.7212 7.87187 29.737 6.8531C29.7544 5.73495 29.5634 4.91327 29.1695 4.41133C27.5815 2.38786 25.2507 1.30244 22.4295 1.27267C20.4899 1.25093 18.8511 1.7459 18.5334 1.88509C17.8644 1.71919 17.1351 1.61734 16.3411 1.60434C14.8851 1.58083 13.6265 1.92845 12.5844 2.63705C12.1318 2.46903 10.9621 2.06859 9.5315 1.83877C7.05834 1.44175 5.09304 1.74259 3.69057 2.73335C2.01711 3.91566 1.24455 6.02905 1.3942 9.0147C1.44456 10.0192 2.01854 13.1093 2.92429 16.0686C4.11655 19.9636 5.41261 22.1686 6.77622 22.6222C6.93582 22.6752 7.11984 22.7123 7.32282 22.7123C7.82025 22.7123 8.43012 22.4888 9.06465 21.7281C9.83858 20.8022 10.6392 19.8989 11.4654 19.0191C12.0015 19.306 12.5904 19.4663 13.1927 19.4823C13.1938 19.498 13.1954 19.5138 13.1968 19.5294C13.0931 19.6526 12.9916 19.7777 12.8923 19.9045C12.475 20.4328 12.3881 20.5428 11.0448 20.8186C10.6626 20.8973 9.64775 21.1058 9.63282 21.8153C9.6167 22.5904 10.8325 22.9159 10.9711 22.9504C11.4538 23.0709 11.9189 23.1304 12.3624 23.1304C13.441 23.1304 14.3903 22.7768 15.1488 22.0928C15.1255 24.8561 15.241 27.579 15.5738 28.4086C15.8463 29.0877 16.512 30.7475 18.6147 30.7474C18.9233 30.7474 19.2629 30.7116 19.6365 30.6317C21.8311 30.1626 22.7841 29.1954 23.1527 27.063C23.35 25.9233 23.6885 23.202 23.8478 21.7422C24.1838 21.8468 24.6165 21.8947 25.0841 21.8945C26.0596 21.8945 27.1851 21.6879 27.891 21.3612C28.6839 20.9939 30.1148 20.0928 29.8553 19.3099ZM24.6291 9.44598C24.6219 9.87691 24.5624 10.2681 24.4994 10.6765C24.4315 11.1157 24.3613 11.5698 24.3437 12.121C24.3263 12.6574 24.3935 13.2151 24.4584 13.7545C24.5897 14.844 24.7244 15.9655 24.2029 17.0722C24.1163 16.9192 24.0391 16.761 23.9719 16.5985C23.907 16.4418 23.7663 16.1902 23.5714 15.8418C22.8131 14.4858 21.0375 11.3104 21.9465 10.0147C22.2172 9.62901 22.9044 9.23247 24.6291 9.44598ZM22.5385 2.14527C25.0664 2.20093 27.066 3.14396 28.4818 4.94801C29.5676 6.33178 28.3719 12.6281 24.9104 18.06C24.8756 18.0159 24.8406 17.9719 24.8054 17.9281L24.7616 17.8735C25.6561 16.4004 25.4812 14.9429 25.3255 13.6507C25.2615 13.1204 25.2011 12.6195 25.2165 12.149C25.2324 11.6504 25.2985 11.2226 25.3625 10.8091C25.441 10.2994 25.521 9.7721 25.499 9.15047C25.5154 9.08524 25.5221 9.0082 25.5134 8.91675C25.4572 8.32064 24.7746 6.53655 23.3835 4.92178C22.6226 4.03854 21.5129 3.05014 19.9978 2.38348C20.6495 2.24878 21.5406 2.12318 22.5385 2.14527ZM8.39316 21.1713C7.69405 22.0095 7.21132 21.8488 7.05254 21.7961C6.01811 21.452 4.81778 19.2718 3.75953 15.8144C2.84383 12.8229 2.30872 9.81464 2.2663 8.9711C2.13264 6.3033 2.78115 4.44406 4.19393 3.44491C6.49314 1.81904 10.2733 2.7922 11.7922 3.28575C11.7704 3.30725 11.7477 3.32734 11.7261 3.3492C9.2335 5.85938 9.29263 10.1481 9.29879 10.4103C9.29855 10.5114 9.30708 10.6546 9.31869 10.8516C9.36159 11.573 9.44145 12.9155 9.22817 14.4359C9.03005 15.8487 9.46681 17.2315 10.4262 18.2298C10.5247 18.3321 10.6282 18.4294 10.7363 18.5215C10.3093 18.9775 9.38114 19.9862 8.39316 21.1713ZM11.0567 17.6273C10.2835 16.8227 9.93224 15.7035 10.093 14.5564C10.3182 12.9504 10.2351 11.5516 10.1904 10.8001C10.1842 10.6949 10.1786 10.6028 10.1754 10.5301C10.5395 10.2081 12.227 9.30656 13.4304 9.58151C13.9794 9.70688 14.3141 10.0798 14.4532 10.7212C15.1731 14.0418 14.5484 15.4258 14.0465 16.538C13.9431 16.7671 13.8453 16.9837 13.7619 17.2078L13.6972 17.381C13.5334 17.8189 13.3811 18.2261 13.2866 18.6127C12.4645 18.6103 11.6648 18.2601 11.0567 17.6272V17.6273ZM11.1829 22.1056C10.9429 22.0458 10.727 21.9419 10.6003 21.8558C10.7061 21.8062 10.8944 21.7386 11.221 21.6715C12.8013 21.3471 13.0454 21.1181 13.5784 20.4433C13.7005 20.2885 13.839 20.1132 14.0309 19.8995L14.0311 19.8993C14.3168 19.5803 14.4475 19.6344 14.6845 19.7325C14.8765 19.8116 15.0636 20.0517 15.1395 20.3159C15.1754 20.4407 15.2157 20.6775 15.0838 20.8618C13.9704 22.4163 12.3481 22.3964 11.1829 22.1056ZM19.4535 29.7803C17.5202 30.1933 16.8357 29.2097 16.3846 28.0851C16.0935 27.3592 15.9503 24.0855 16.0519 20.4701C16.0532 20.422 16.0463 20.3756 16.033 20.3319C16.0212 20.2456 16.0031 20.1602 15.979 20.0764C15.828 19.5504 15.4601 19.1104 15.0187 18.9279C14.8434 18.8555 14.5215 18.7226 14.1348 18.8212C14.2173 18.4823 14.3603 18.0996 14.5154 17.6852L14.5804 17.511C14.6537 17.3145 14.7456 17.1109 14.8428 16.8953C15.3681 15.7317 16.0874 14.1379 15.3067 10.5372C15.0142 9.18852 14.0376 8.5299 12.5572 8.68291C11.6697 8.77449 10.8577 9.13156 10.4527 9.33633C10.3656 9.38029 10.2859 9.42283 10.2115 9.46418C10.3246 8.10535 10.7516 5.56587 12.3491 3.95914C13.355 2.94769 14.6945 2.44812 16.3267 2.47506C19.5425 2.52752 21.6047 4.17324 22.7686 5.54472C23.7715 6.72643 24.3145 7.91689 24.5313 8.55896C22.9014 8.39366 21.7929 8.71446 21.231 9.51558C20.0085 11.2582 21.8998 14.6404 22.8087 16.2659C22.9755 16.5638 23.1193 16.8213 23.1646 16.9307C23.4606 17.646 23.8438 18.1236 24.1235 18.4722C24.2093 18.579 24.2925 18.6826 24.3558 18.7731C23.8621 18.915 22.9755 19.2429 23.0563 20.8819C22.9911 21.7043 22.5277 25.5546 22.2922 26.915C21.9814 28.7122 21.3182 29.3816 19.4535 29.7804V29.7803ZM27.5233 20.5714C27.0185 20.805 26.1738 20.9802 25.3714 21.0179C24.485 21.0593 24.0338 20.9189 23.9277 20.8325C23.8779 19.8112 24.2591 19.7045 24.6625 19.5915C24.7259 19.5738 24.7878 19.5564 24.8475 19.5356C24.8846 19.5657 24.9252 19.5956 24.9698 19.6249C25.6822 20.0938 26.9528 20.1444 28.7466 19.7751L28.7663 19.7712C28.5243 19.9968 28.1103 20.2995 27.5233 20.5714Z" fill="white"/>
</svg>
