<svg width="120" height="60" viewBox="0 0 120 60" fill="none" xmlns="http://www.w3.org/2000/svg">
<path d="M26.04 33.4438C27.9595 33.4438 29.5156 31.8878 29.5156 29.9682C29.5156 28.0487 27.9595 26.4927 26.04 26.4927C24.1205 26.4927 22.5645 28.0487 22.5645 29.9682C22.5645 31.8878 24.1205 33.4438 26.04 33.4438Z" fill="#00D8FF"/>
<path fill-rule="evenodd" clip-rule="evenodd" d="M26.0402 22.9019C30.7067 22.9019 35.0417 23.5714 38.3102 24.6967C42.2484 26.0525 44.6697 28.1076 44.6697 29.9684C44.6697 31.9076 42.1036 34.0908 37.8745 35.492C34.6772 36.5513 30.4699 37.1043 26.0402 37.1043C21.4987 37.1043 17.198 36.5852 13.9647 35.4803C9.87403 34.0821 7.41016 31.8706 7.41016 29.9684C7.41016 28.1227 9.72203 26.0835 13.6048 24.7297C16.8856 23.5859 21.3276 22.9019 26.0396 22.9019H26.0402Z" stroke="#00D8FF" stroke-width="1.66272"/>
<path fill-rule="evenodd" clip-rule="evenodd" d="M19.8884 26.4553C22.2197 22.4129 24.9653 18.9922 27.5729 16.7228C30.7148 13.9886 33.7047 12.9178 35.3167 13.8474C36.9966 14.8161 37.6058 18.1298 36.7069 22.4932C36.0279 25.7922 34.4044 29.713 32.1915 33.5503C29.9226 37.4846 27.3246 40.9508 24.7524 43.1991C21.4976 46.0443 18.351 47.0739 16.7031 46.1236C15.1041 45.2022 14.4927 42.1802 15.2597 38.1402C15.9079 34.7268 17.5343 30.5371 19.8877 26.4552L19.8884 26.4553Z" stroke="#00D8FF" stroke-width="1.66272"/>
<path fill-rule="evenodd" clip-rule="evenodd" d="M19.8943 33.5605C17.5564 29.5227 15.9647 25.4349 15.3003 22.0424C14.5005 17.9548 15.066 14.8296 16.6765 13.8974C18.3547 12.9258 21.5299 14.0529 24.8612 17.0108C27.38 19.2472 29.9663 22.6112 32.1857 26.4449C34.4611 30.3754 36.1665 34.3574 36.83 37.7086C37.6694 41.9494 36.99 45.1897 35.3437 46.1427C33.7463 47.0675 30.8232 46.0884 27.7063 43.4062C25.0727 41.14 22.2552 37.6384 19.8943 33.5604V33.5605Z" stroke="#00D8FF" stroke-width="1.66272"/>
<path fill-rule="evenodd" clip-rule="evenodd" d="M64.62 38.8482L60.36 32.4122C62.513 32.2222 64.453 30.6622 64.453 27.8122C64.453 24.9122 62.395 23.0562 59.508 23.0562H53.168V38.8362H55.132V32.5662H58.279L62.301 38.8362L64.62 38.8482ZM59.273 30.8512H55.133V24.8182H59.273C61.143 24.8182 62.42 26.0482 62.42 27.8232C62.42 29.5982 61.142 30.8532 59.273 30.8532V30.8512ZM71.931 39.1312C73.801 39.1312 75.338 38.5162 76.474 37.3812L75.622 36.2212C74.722 37.1442 73.398 37.6642 72.097 37.6642C69.637 37.6642 68.122 35.8662 67.98 33.7142H77.23V33.2642C77.23 29.8342 75.195 27.1362 71.74 27.1362C68.475 27.1362 66.11 29.8102 66.11 33.1222C66.11 36.6952 68.547 39.1222 71.93 39.1222L71.931 39.1312ZM75.481 32.4112H67.981C68.076 30.6612 69.281 28.6012 71.719 28.6012C74.322 28.6012 75.457 30.7072 75.481 32.4112ZM89.015 38.8472V30.9922C89.015 28.2242 87.005 27.1352 84.591 27.1352C82.721 27.1352 81.255 27.7502 80.025 29.0282L80.853 30.2582C81.87 29.1702 82.983 28.6732 84.355 28.6732C86.011 28.6732 87.242 29.5482 87.242 31.0862V33.1442C86.319 32.0792 85.018 31.5822 83.456 31.5822C81.516 31.5822 79.456 32.7892 79.456 35.3442C79.456 37.8282 81.514 39.1302 83.456 39.1302C84.994 39.1302 86.296 38.5862 87.242 37.5452V38.8452L89.015 38.8472ZM84.095 37.8532C82.439 37.8532 81.279 36.8132 81.279 35.3692C81.279 33.9022 82.439 32.8612 84.095 32.8612C85.349 32.8612 86.555 33.3342 87.242 34.2812V36.4342C86.556 37.3802 85.349 37.8532 84.095 37.8532ZM97.595 39.1312C99.677 39.1312 100.907 38.2792 101.783 37.1442L100.6 36.0562C99.843 37.0732 98.873 37.5462 97.7 37.5462C95.263 37.5462 93.75 35.6532 93.75 33.1222C93.75 30.5912 95.264 28.7222 97.7 28.7222C98.883 28.7222 99.853 29.1722 100.6 30.2122L101.783 29.1242C100.908 27.9882 99.677 27.1372 97.595 27.1372C94.188 27.1372 91.893 29.7402 91.893 33.1232C91.893 36.5302 94.188 39.1232 97.595 39.1232V39.1312ZM107.155 39.1312C108.195 39.1312 108.835 38.8232 109.285 38.3982L108.765 37.0732C108.528 37.3332 108.065 37.5462 107.558 37.5462C106.778 37.5462 106.398 36.9312 106.398 36.0792V28.9812H108.718V27.4202H106.398V24.2972H104.623V27.4202H102.73V28.9822H104.623V36.4592C104.623 38.1632 105.475 39.1332 107.155 39.1332V39.1312Z" fill="#00D8FF"/>
</svg>
