<svg width="48" height="48" viewBox="0 0 48 48" fill="none" xmlns="http://www.w3.org/2000/svg">
<g clip-path="url(#clip0_1450_12190)">
<path fill-rule="evenodd" clip-rule="evenodd" d="M39.625 18.0664C39.9453 17.3477 40.7852 17.0195 41.5039 17.3398C42.2227 17.6602 42.5469 18.5039 42.2305 19.2227C41.9102 19.9453 41.0703 20.2695 40.3516 19.9492C39.6289 19.6289 39.3047 18.7891 39.625 18.0664ZM22.9414 4.64063C23.5117 4.09766 24.4141 4.11719 24.957 4.6875C25.5 5.25781 25.4805 6.16016 24.9102 6.70703C24.3398 7.25 23.4414 7.23047 22.8945 6.66016C22.3516 6.08594 22.3711 5.18359 22.9414 4.64063ZM41.5469 23.8477C41.5469 24.2852 41.5312 24.7187 41.5 25.1523H39.6992C39.5195 25.1523 39.4453 25.2695 39.4453 25.4453V26.2734C39.4453 28.2188 38.3477 28.6445 37.3867 28.75C36.4727 28.8516 35.457 28.3672 35.332 27.8047C34.793 24.7656 33.8906 24.1172 32.4688 22.9961C34.2344 21.875 36.0703 20.2227 36.0703 18.0117C36.0703 15.6211 34.4336 14.1172 33.3164 13.3789C31.75 12.3477 30.0156 12.1406 29.5469 12.1406H10.9258C13.4492 9.32422 16.8711 7.32812 20.7422 6.60156L22.9375 8.90234C23.4336 9.42188 24.2539 9.44141 24.7734 8.94531L27.2305 6.59766C32.375 7.55469 36.7344 10.7578 39.2422 15.1523L37.5625 18.9492C37.2734 19.6055 37.5703 20.375 38.2227 20.668L41.4609 22.1055C41.5195 22.6758 41.5469 23.2578 41.5469 23.8477ZM20.0234 20.8711V17.5664H25.9453C26.25 17.5664 28.1055 17.9219 28.1055 19.3047C28.1055 20.457 26.6836 20.8672 25.5156 20.8672L20.0234 20.8711ZM6.55078 21.9609L9.62109 20.5977C10.2773 20.3047 10.5742 19.5391 10.2812 18.8789L9.64844 17.4492H12.1367V28.6602H7.12109C6.6875 27.1289 6.45313 25.5156 6.45313 23.8477C6.44922 23.207 6.48438 22.5781 6.55078 21.9609ZM8.22266 17.9961C8.54297 18.7148 8.21875 19.5625 7.49609 19.8789C6.77734 20.1992 5.93359 19.875 5.61719 19.1523C5.29688 18.4297 5.62109 17.5898 6.34375 17.2695C7.0625 16.9492 7.90625 17.2773 8.22266 17.9961ZM13.6641 40.0586C12.8945 40.2266 12.1367 39.7344 11.9727 38.9648C11.8086 38.1914 12.2969 37.4336 13.0664 37.2695C13.8359 37.1055 14.5937 37.5938 14.7578 38.3672C14.9219 39.1328 14.4336 39.8945 13.6641 40.0586ZM33.5 35.4961C32.7969 35.3438 32.1055 35.793 31.957 36.4961L31.2422 39.8359C29.0352 40.8398 26.582 41.3945 24 41.3945C21.3594 41.3945 18.8555 40.8086 16.6055 39.7656L15.8906 36.4258C15.7383 35.7227 15.0508 35.2773 14.3477 35.4258L11.3984 36.0586C10.8516 35.4961 10.3438 34.8945 9.875 34.2617H24.2188C24.3828 34.2617 24.4883 34.2305 24.4883 34.0859V29.0117C24.4883 28.8633 24.3789 28.8359 24.2188 28.8359H20.0234V25.6211H24.5586C24.9727 25.6211 26.7734 25.7383 27.3477 28.0391C27.5273 28.7461 27.9219 31.0469 28.1953 31.7852C28.4648 32.6133 29.5625 34.2617 30.7344 34.2617H37.8789C37.9609 34.2617 38.0469 34.2539 38.1367 34.2344C37.6406 34.9062 37.0977 35.5469 36.5117 36.1406L33.5 35.4961ZM34.1836 40.1289C33.4141 39.9609 32.9258 39.2031 33.0898 38.4336C33.2539 37.6641 34.0117 37.1719 34.7813 37.3398C35.5508 37.5039 36.043 38.2656 35.875 39.0352C35.7109 39.8008 34.9531 40.293 34.1836 40.1289ZM47.6719 23.4102L45.6562 22.1641C45.6406 21.9688 45.6211 21.7734 45.5977 21.5781L47.3281 19.9648C47.5039 19.8008 47.582 19.5586 47.5352 19.3242C47.4883 19.0898 47.3242 18.8945 47.0977 18.8086L44.8828 17.9805C44.8281 17.7891 44.7695 17.5977 44.7109 17.4102L46.0898 15.4922C46.2305 15.2969 46.2578 15.043 46.168 14.8203C46.0781 14.5977 45.875 14.4414 45.6406 14.4023L43.3047 14.0234C43.2148 13.8477 43.1211 13.6719 43.0234 13.5L44.0039 11.3477C44.1055 11.1289 44.082 10.875 43.9492 10.6758C43.8164 10.4766 43.5898 10.3594 43.3477 10.3672L40.9766 10.4492C40.8555 10.2969 40.7305 10.1445 40.6016 9.99609L41.1445 7.6875C41.1992 7.45313 41.1289 7.20703 40.9609 7.03906C40.793 6.87109 40.5469 6.80078 40.3125 6.85547L38.0039 7.39844C37.8555 7.27344 37.7031 7.14844 37.5508 7.02344L37.6328 4.65234C37.6406 4.41406 37.5234 4.18359 37.3242 4.05078C37.125 3.91797 36.8711 3.89844 36.6523 3.99609L34.5 4.97656C34.3281 4.88281 34.1523 4.78516 33.9766 4.69531L33.5977 2.35937C33.5586 2.12109 33.4023 1.92188 33.1797 1.83203C32.957 1.73828 32.7031 1.76953 32.5078 1.91016L30.5898 3.29297C30.4023 3.23438 30.2109 3.17578 30.0195 3.12109L29.1953 0.898437C29.1133 0.671875 28.918 0.507812 28.6797 0.460937C28.4453 0.414062 28.2031 0.492188 28.0391 0.667969L26.4219 2.40234C26.2266 2.37891 26.0312 2.35937 25.8359 2.34375L24.5898 0.328125C24.4648 0.125 24.2422 0 24 0C23.7578 0 23.5352 0.125 23.4102 0.328125L22.1641 2.34375C21.9688 2.35937 21.7734 2.37891 21.5781 2.40234L19.9609 0.667969C19.7969 0.492188 19.5547 0.414062 19.3203 0.460937C19.0859 0.507812 18.8906 0.671875 18.8047 0.898437L17.9766 3.11328C17.7852 3.16797 17.5938 3.22656 17.4063 3.28516L15.4883 1.90234C15.293 1.76172 15.0391 1.73047 14.8164 1.82422C14.5938 1.91406 14.4375 2.11719 14.3984 2.35156L14.0195 4.6875C13.8437 4.77734 13.668 4.87109 13.4961 4.96875L11.3438 3.98828C11.125 3.88672 10.8711 3.91016 10.6719 4.04297C10.4727 4.17578 10.3555 4.40234 10.3633 4.64453L10.4453 7.01562C10.293 7.13672 10.1406 7.26172 9.99219 7.39063L7.68359 6.84766C7.44922 6.79297 7.20313 6.86328 7.03516 7.03125C6.86328 7.20312 6.79688 7.44531 6.85156 7.67969L7.39453 9.98828C7.26953 10.1367 7.14453 10.2891 7.01953 10.4414L4.64844 10.3594C4.41016 10.3516 4.17969 10.4687 4.04687 10.668C3.91406 10.8672 3.89453 11.1211 3.99219 11.3398L4.97266 13.4922C4.87891 13.6641 4.78125 13.8398 4.69141 14.0156L2.35547 14.3945C2.11719 14.4336 1.91797 14.5898 1.82812 14.8125C1.73828 15.0352 1.76563 15.2891 1.90625 15.4844L3.28906 17.4023C3.23047 17.5898 3.17188 17.7812 3.11719 17.9727L0.898437 18.8047C0.671875 18.8867 0.507812 19.082 0.460937 19.3203C0.414062 19.5547 0.492188 19.7969 0.667969 19.9609L2.39844 21.5742C2.37891 21.7695 2.35937 21.9648 2.33984 22.1602L0.324219 23.4062C0.125 23.5391 0 23.7617 0 24C0 24.2422 0.125 24.4648 0.328125 24.5898L2.34375 25.8359C2.35937 26.0312 2.37891 26.2266 2.40234 26.4219L0.671875 28.0391C0.496094 28.2031 0.417969 28.4453 0.464844 28.6797C0.511719 28.9141 0.675781 29.1094 0.902344 29.1953L3.11719 30.0234C3.17188 30.2148 3.23047 30.4062 3.28906 30.5937L1.90625 32.5117C1.76563 32.707 1.73437 32.9609 1.82812 33.1836C1.92187 33.4062 2.12109 33.5664 2.35937 33.6016L4.69141 33.9844C4.78125 34.1602 4.875 34.3359 4.97266 34.5078L3.99219 36.6602C3.89063 36.8789 3.91406 37.1328 4.04687 37.332C4.17969 37.5312 4.41016 37.6484 4.64844 37.6406L7.01562 37.5586C7.14062 37.7109 7.26172 37.8633 7.39063 38.0117L6.84766 40.3203C6.79297 40.5547 6.86328 40.7969 7.03125 40.9687C7.19922 41.1406 7.44531 41.207 7.67969 41.1523L9.98828 40.6094C10.1367 40.7383 10.2891 40.8594 10.4414 40.9844L10.3594 43.3555C10.3516 43.5937 10.4687 43.8242 10.668 43.957C10.8672 44.0898 11.1211 44.1094 11.3398 44.0117L13.4922 43.0313C13.6641 43.1289 13.8398 43.2227 14.0156 43.3125L14.3945 45.6445C14.4336 45.8828 14.5898 46.082 14.8125 46.1758C15.0352 46.2695 15.2891 46.2383 15.4844 46.0977L17.4023 44.7148C17.5898 44.7734 17.7812 44.832 17.9727 44.8906L18.8008 47.1055C18.8828 47.332 19.0781 47.4961 19.3164 47.543C19.5508 47.5898 19.793 47.5117 19.957 47.3359L21.5742 45.6055C21.7695 45.6289 21.9648 45.6484 22.1602 45.6641L23.4062 47.6797C23.5312 47.8828 23.7539 48.0078 23.9961 48.0078C24.2383 48.0078 24.4609 47.8828 24.5859 47.6797L25.832 45.6641C26.0273 45.6484 26.2227 45.6289 26.418 45.6055L28.0352 47.3359C28.1992 47.5117 28.4414 47.5898 28.6758 47.543C28.9102 47.4961 29.1055 47.332 29.1914 47.1055L30.0195 44.8906C30.2109 44.8359 30.4023 44.7773 30.5898 44.7148L32.5078 46.0977C32.7031 46.2383 32.957 46.2656 33.1797 46.1758C33.4023 46.0859 33.5586 45.8828 33.5977 45.6445L33.9766 43.3125C34.1523 43.2227 34.3281 43.125 34.5 43.0313L36.6523 44.0117C36.8711 44.1133 37.125 44.0898 37.3242 43.957C37.5234 43.8242 37.6406 43.5977 37.6328 43.3555L37.5508 40.9844C37.7031 40.8633 37.8555 40.7383 38.0039 40.6094L40.3125 41.1523C40.5469 41.207 40.793 41.1406 40.9609 40.9687C41.1328 40.7969 41.1992 40.5547 41.1445 40.3203L40.6016 38.0117C40.7266 37.8633 40.8516 37.7109 40.9766 37.5586L43.3477 37.6406C43.5859 37.6484 43.8164 37.5312 43.9492 37.332C44.082 37.1328 44.1055 36.8789 44.0039 36.6602L43.0234 34.5078C43.1211 34.332 43.2148 34.1602 43.3047 33.9844L45.6406 33.6055C45.8789 33.5664 46.0781 33.4102 46.168 33.1875C46.2617 32.9648 46.2305 32.7109 46.0898 32.5156L44.707 30.5977C44.7656 30.4063 44.8242 30.2188 44.8789 30.0273L47.0937 29.1992C47.3203 29.1133 47.4844 28.9219 47.5313 28.6836C47.5781 28.4492 47.5 28.207 47.3242 28.043L45.5938 26.4258C45.6133 26.2305 45.6328 26.0352 45.6523 25.8398L47.668 24.5937C47.8711 24.4687 47.9961 24.2461 47.9961 24.0039C48 23.7617 47.875 23.5391 47.6719 23.4102Z" fill="white"/>
</g>
<defs>
<clipPath id="clip0_1450_12190">
<rect width="48" height="48" fill="white"/>
</clipPath>
</defs>
</svg>
