<svg width="49" height="49" viewBox="0 0 49 49" fill="none" xmlns="http://www.w3.org/2000/svg">
<path fill-rule="evenodd" clip-rule="evenodd" d="M17.9297 0C15.2265 0.00199796 13.0387 2.19576 13.0407 4.899C13.0387 7.60224 15.2285 9.796 17.9317 9.798H22.8227V4.901C22.8247 2.19776 20.6349 0.00399592 17.9297 0C17.9317 0 17.9317 0 17.9297 0ZM17.9297 13.0667H4.89101C2.18777 13.0687 -0.0019925 15.2624 5.46018e-06 17.9657C-0.00399046 20.6689 2.18577 22.8627 4.88901 22.8667H17.9297C20.6329 22.8647 22.8227 20.6709 22.8207 17.9677C22.8227 15.2624 20.6329 13.0687 17.9297 13.0667Z" fill="#36C5F0"/>
<path fill-rule="evenodd" clip-rule="evenodd" d="M48.9027 17.9657C48.9047 15.2624 46.715 13.0687 44.0117 13.0667C41.3085 13.0687 39.1187 15.2624 39.1207 17.9657V22.8667H44.0117C46.715 22.8647 48.9047 20.6709 48.9027 17.9657ZM35.8621 17.9657V4.899C35.8641 2.19776 33.6763 0.00399592 30.973 0C28.2698 0.00199796 26.08 2.19576 26.082 4.899V17.9657C26.078 20.6689 28.2678 22.8627 30.971 22.8667C33.6743 22.8647 35.8641 20.6709 35.8621 17.9657Z" fill="#2EB67D"/>
<path fill-rule="evenodd" clip-rule="evenodd" d="M30.9711 49C33.6743 48.998 35.8641 46.8042 35.8621 44.101C35.8641 41.3978 33.6743 39.204 30.9711 39.202H26.0801V44.101C26.0781 46.8022 28.2678 48.996 30.9711 49ZM30.9711 35.9313H44.0118C46.715 35.9293 48.9048 33.7356 48.9028 31.0323C48.9068 28.3291 46.717 26.1353 44.0138 26.1313H30.9731C28.2698 26.1333 26.0801 28.3271 26.0821 31.0303C26.0801 33.7356 28.2678 35.9293 30.9711 35.9313Z" fill="#ECB22E"/>
<path fill-rule="evenodd" clip-rule="evenodd" d="M1.36613e-06 31.0323C-0.00199659 33.7356 2.18777 35.9293 4.89101 35.9313C7.59425 35.9293 9.78401 33.7356 9.78202 31.0323V26.1333H4.89101C2.18777 26.1353 -0.00199659 28.3291 1.36613e-06 31.0323ZM13.0407 31.0323V44.099C13.0367 46.8022 15.2265 48.996 17.9297 49C20.6329 48.998 22.8227 46.8042 22.8207 44.101V31.0363C22.8247 28.3331 20.6349 26.1393 17.9317 26.1353C15.2265 26.1353 13.0387 28.3291 13.0407 31.0323Z" fill="#E01E5A"/>
</svg>
