<svg width="47" height="47" viewBox="0 0 47 47" fill="none" xmlns="http://www.w3.org/2000/svg">
<path d="M42.6639 33.8403C36.8777 41.5582 24.5227 38.9535 16.5992 39.3266C16.5992 39.3266 15.1954 39.4064 13.7846 39.6387C13.7846 39.6387 14.3189 39.4111 15.0009 39.1741C20.5644 37.2475 23.1939 36.8603 26.5756 35.1215C32.9266 31.8644 39.2494 24.766 40.536 17.393C38.1175 24.4844 30.7635 30.5879 24.068 33.0659C19.4864 34.7601 11.1974 36.4075 11.195 36.4075C11.0824 36.3497 10.9707 36.2903 10.8599 36.2291C5.22372 33.4836 5.05968 21.2578 15.2985 17.3179C19.7887 15.5908 24.0797 16.5388 28.9332 15.3819C34.1077 14.15 40.1024 10.2664 42.5374 5.18833C45.2676 13.3029 48.5485 25.9933 42.6639 33.8403ZM42.7623 2.67747C42.1077 4.2491 41.27 5.73777 40.2665 7.11254C38.0851 4.86132 35.4743 3.07174 32.5891 1.84995C29.7039 0.628172 26.603 -0.000919049 23.4704 1.00774e-06C10.5271 1.00774e-06 2.56449e-06 10.5409 2.56449e-06 23.4988C-0.00150878 26.7311 0.665015 29.9287 1.95765 32.8905C3.25028 35.8523 5.14104 38.5142 7.51101 40.7088L8.02658 41.164C7.65079 40.7871 7.43986 40.2762 7.44019 39.7436C7.44052 39.211 7.65208 38.7003 8.02834 38.3239C8.4046 37.9474 8.91477 37.736 9.44666 37.7361C9.97856 37.7362 10.4886 37.9479 10.8647 38.3245C11.2409 38.7011 11.4522 39.2118 11.4523 39.7444C11.4524 40.277 11.2413 40.7878 10.8653 41.1646C10.4894 41.5413 9.97939 41.7532 9.44749 41.7535C8.9156 41.7538 8.40534 41.5426 8.02893 41.1664L8.37811 41.4761C12.5974 45.0479 17.9453 47.0053 23.4704 47C35.8396 47 45.9987 37.3602 46.8682 25.1954C47.5103 19.2374 45.7527 11.672 42.7623 2.67747Z" fill="#6CB52D"/>
</svg>
