<svg width="32" height="32" viewBox="0 0 32 32" fill="none" xmlns="http://www.w3.org/2000/svg">
<path d="M6.96729 0.444336H24.2894C25.1323 0.444336 25.9508 0.578017 26.7448 0.85753C27.8931 1.27072 28.9315 1.99989 29.7133 2.94781C30.5073 3.89572 31.0326 5.06239 31.2159 6.27767C31.2891 6.72732 31.3014 7.17697 31.3014 7.62663V24.4339C31.3014 24.9686 31.2769 25.5155 31.167 26.0381C30.9227 27.2412 30.3485 28.3714 29.5178 29.2829C28.6994 30.1943 27.6244 30.8749 26.4639 31.2395C25.7553 31.4582 25.0224 31.5554 24.2772 31.5554C23.9474 31.5554 6.91843 31.5554 6.6619 31.5433C5.41587 31.4825 4.18207 31.0815 3.14372 30.3888C2.1298 29.7082 1.29912 28.7603 0.761617 27.6666C0.297413 26.7308 0.0653105 25.6857 0.0653105 24.6405V7.35927C0.0408787 6.32628 0.260765 5.30545 0.712753 4.38184C1.23804 3.28809 2.0565 2.32802 3.07042 1.64746C4.10877 0.9426 5.33036 0.529405 6.57638 0.468641C6.69854 0.444336 6.83292 0.444336 6.96729 0.444336Z" fill="url(#paint0_linear_2804_17098)"/>
<path d="M26.4029 25.8923C26.293 25.7221 26.1708 25.552 26.0364 25.394C25.731 25.0294 25.3768 24.7134 24.9859 24.4461C24.4972 24.1179 23.9231 23.9113 23.3367 23.887C22.9214 23.8627 22.506 23.9357 22.1151 24.0815C21.7242 24.2152 21.3455 24.4096 20.9791 24.6041C20.5515 24.8228 20.1239 25.0416 19.672 25.2238C19.1345 25.4426 18.5725 25.6127 17.9984 25.7343C17.2776 25.8679 16.5447 25.9166 15.824 25.9044C14.5169 25.8801 13.2098 25.6857 11.9637 25.3211C10.8643 24.9929 9.81374 24.5433 8.82425 23.9721C7.95693 23.4739 7.15068 22.9027 6.39329 22.2586C5.77028 21.7239 5.19614 21.1527 4.65864 20.545C4.29216 20.1197 3.9379 19.67 3.60807 19.2082C3.4737 19.0259 3.35154 18.8315 3.2416 18.637L0.0166016 15.1735V7.33496C0.0166016 3.53114 3.10722 0.444336 6.93079 0.444336H13.0998L17.6686 5.06239C27.9788 12.0381 24.6438 19.7308 24.6438 19.7308C24.6438 19.7308 27.5756 23.012 26.4029 25.8923Z" fill="url(#paint1_linear_2804_17098)"/>
<path d="M17.6926 5.0625C28.0028 12.0382 24.6678 19.7309 24.6678 19.7309C24.6678 19.7309 27.5996 23.0243 26.4147 25.9045C26.4147 25.9045 25.2053 23.8872 23.1775 23.8872C21.223 23.8872 20.0747 25.9045 16.1412 25.9045C7.38239 25.9045 3.24121 18.625 3.24121 18.625C11.1327 23.7899 16.5199 20.1319 16.5199 20.1319C12.965 18.0781 5.40342 8.25868 5.40342 8.25868C11.9878 13.8368 14.8341 15.3073 14.8341 15.3073C13.1361 13.9097 8.37187 7.07986 8.37187 7.07986C12.1832 10.9201 19.7571 16.2795 19.7571 16.2795C21.9071 10.349 17.6926 5.0625 17.6926 5.0625Z" fill="white"/>
<defs>
<linearGradient id="paint0_linear_2804_17098" x1="18.6202" y1="-0.66582" x2="12.7708" y2="32.6797" gradientUnits="userSpaceOnUse">
<stop stop-color="#FAAE42"/>
<stop offset="1" stop-color="#EF3E31"/>
</linearGradient>
<linearGradient id="paint1_linear_2804_17098" x1="15.972" y1="0.946975" x2="11.6909" y2="25.3521" gradientUnits="userSpaceOnUse">
<stop stop-color="#E39F3A"/>
<stop offset="1" stop-color="#D33929"/>
</linearGradient>
</defs>
</svg>
