<?xml version="1.0" encoding="UTF-8"?>
<svg version="1.1" xmlns="http://www.w3.org/2000/svg" width="241" height="209">
<path d="M0 0 C11.8991264 -0.51161007 23.79560957 -0.90150941 35.70352459 -1.13986778 C41.23478772 -1.25433477 46.7584915 -1.40922799 52.28540039 -1.65966797 C87.88463708 -3.23081219 87.88463708 -3.23081219 96.19009399 2.01483154 C100.96137663 7.01920544 103.22499422 12.71582319 105.14364624 19.27618408 C106.34537871 23.0985507 108.17788311 26.02473211 110.33203125 29.3984375 C111.49285617 31.39023545 112.65304875 33.38240211 113.8125 35.375 C114.72612305 36.94314453 114.72612305 36.94314453 115.65820312 38.54296875 C117.10607568 41.0282933 118.55335647 43.51395995 120 46 C122.96947827 42.46015964 125.34585032 38.86860649 127.609375 34.84375 C127.93987854 34.26016724 128.27038208 33.67658447 128.61090088 33.07531738 C129.66144736 31.21920155 130.706169 29.35989943 131.75 27.5 C132.78021108 25.66905614 133.81182677 23.83894232 134.84625244 22.01037598 C135.79597988 20.33085919 136.74140677 18.6489126 137.68652344 16.96679688 C138.22472717 16.09700447 138.22472717 16.09700447 138.77380371 15.2096405 C140.13274289 12.8751194 140.13274289 12.8751194 141.29748535 9.69917297 C143.06920012 5.84370326 144.58013959 2.60268887 148 0 C154.65423614 -2.36191493 162.18974436 -1.50773003 169.125 -1.26953125 C171.19859033 -1.24526363 173.27225555 -1.2267685 175.34594727 -1.21379089 C180.78627814 -1.16431193 186.22204714 -1.03677581 191.6605835 -0.89263916 C197.21710488 -0.75929402 202.77436875 -0.70020457 208.33203125 -0.63476562 C219.22335129 -0.49562704 230.11129538 -0.27396664 241 0 C240.06618373 1.88765657 239.13000716 3.77414561 238.19287109 5.66015625 C237.67179779 6.71082275 237.15072449 7.76148926 236.61386108 8.84399414 C234.14218387 13.67751287 231.39536579 18.33331743 228.625 23 C227.38559357 25.10610909 226.14735997 27.21290871 224.91015625 29.3203125 C223.94940186 30.95661621 223.94940186 30.95661621 222.96923828 32.62597656 C219.6268626 38.35268521 216.34486823 44.11378329 213.0625 49.875 C211.7113136 52.24500629 210.35970981 54.61477416 209.0078125 56.984375 C208.50701927 57.86218124 208.50701927 57.86218124 207.99610901 58.75772095 C202.65200255 68.1193223 197.25204879 77.44883531 191.85888672 86.78222656 C188.73675395 92.18670645 185.61858796 97.59347412 182.5 103 C181.25001878 105.1666775 180.00001879 107.33334417 178.75 109.5 C177.821875 111.10875 177.821875 111.10875 176.875 112.75 C175 116 173.125 119.25 171.25 122.5 C170.63116943 123.57266113 170.01233887 124.64532227 169.37475586 125.75048828 C168.12564482 127.91557071 166.87645871 130.08060982 165.62719727 132.24560547 C162.48797691 137.68615706 159.35009437 143.12747216 156.21484375 148.5703125 C144.5753687 168.77153846 132.84239507 188.91704431 121 209 C118.20436225 206.50615208 116.56746596 203.74784919 114.734375 200.49609375 C114.09943115 199.37638184 113.4644873 198.25666992 112.81030273 197.10302734 C112.47505585 196.5065741 112.13980896 195.91012085 111.79440308 195.29559326 C110.37007921 192.76158447 108.93510114 190.23366239 107.5009613 187.7052002 C106.75946655 186.39750414 106.01855649 185.08947639 105.2782135 183.78112793 C101.69987146 177.45870435 98.07379869 171.16425348 94.4375 164.875 C93.19660933 162.72656553 91.95572392 160.57812803 90.71484375 158.4296875 C90.10237793 157.36975586 89.48991211 156.30982422 88.85888672 155.21777344 C85.73675395 149.81329355 82.61858796 144.40652588 79.5 139 C78.25001878 136.8333225 77.00001879 134.66665583 75.75 132.5 C63.25 110.83333333 50.75 89.16666667 38.25 67.5 C37.6310083 66.42709717 37.0120166 65.35419434 36.37426758 64.2487793 C35.1266526 62.08621417 33.87909384 59.92361661 32.6315918 57.76098633 C29.47056551 52.28129629 26.30850691 46.80220642 23.14453125 41.32421875 C19.42585422 34.88501853 15.71132491 28.44344032 12 22 C11.39865234 20.95650391 10.79730469 19.91300781 10.17773438 18.83789062 C8.47017013 15.87251402 6.76576607 12.90534701 5.0625 9.9375 C4.54792236 9.04442139 4.03334473 8.15134277 3.50317383 7.23120117 C3.03935303 6.42142822 2.57553223 5.61165527 2.09765625 4.77734375 C1.48676147 3.71374634 1.48676147 3.71374634 0.86352539 2.62866211 C0 1 0 1 0 0 Z " fill="#42B684" transform="translate(0,0)"/>
<path d="M0 0 C37.89595587 -3.45188973 37.89595587 -3.45188973 47.13427734 1.77246094 C51.73940291 6.57164865 53.72924685 12.47617711 55.77001953 18.70410156 C58.00061213 24.68127505 61.49050502 29.95339974 64.8125 35.375 C66.01182843 37.42137168 67.20633928 39.4705796 68.39453125 41.5234375 C69.15020386 42.821604 69.15020386 42.821604 69.92114258 44.14599609 C70.27716553 44.75781738 70.63318848 45.36963867 71 46 C73.96947827 42.46015964 76.34585032 38.86860649 78.609375 34.84375 C78.93987854 34.26016724 79.27038208 33.67658447 79.61090088 33.07531738 C80.66144736 31.21920155 81.706169 29.35989943 82.75 27.5 C83.43443172 26.28359291 84.11932437 25.06744505 84.8046875 23.8515625 C85.14209961 23.2512471 85.47951172 22.6509317 85.82714844 22.03242493 C86.51690144 20.82049358 87.21752821 19.61468843 87.92871094 18.41520691 C89.70523858 15.40633047 91.24749922 12.48642637 92.5078125 9.22387695 C94.29655744 5.22619561 95.63603762 2.83123121 99 0 C106.23457993 -2.11621178 114.07541441 -1.21567934 121.5 -0.8125 C123.58315357 -0.74723951 125.6665027 -0.68793276 127.75 -0.63476562 C132.83818151 -0.49198291 137.9169407 -0.268047 143 0 C141.78456482 3.94578132 140.37761298 7.37506725 138.26953125 10.921875 C137.72184082 11.8509668 137.17415039 12.78005859 136.60986328 13.73730469 C136.0167334 14.73149414 135.42360352 15.72568359 134.8125 16.75 C133.53452535 18.9162946 132.25720327 21.08297428 130.98046875 23.25 C130.32095215 24.36632812 129.66143555 25.48265625 128.98193359 26.6328125 C125.83067495 31.98661384 122.7261944 37.36708929 119.625 42.75 C119.0067334 43.8220166 118.3884668 44.8940332 117.75146484 45.99853516 C113.46470422 53.43826729 109.20347083 60.89232255 104.94946289 68.35079956 C94.1257338 87.32725126 83.0964956 106.18197982 72 125 C68.1740498 120.59027806 65.45949016 115.75699436 62.625 110.6875 C61.55179164 108.78849113 60.47753213 106.89007602 59.40234375 104.9921875 C58.84401855 104.00573242 58.28569336 103.01927734 57.71044922 102.00292969 C54.9083197 97.08340455 52.04787336 92.19831603 49.1875 87.3125 C42.37995238 75.66972011 35.63602648 63.99094033 28.90429688 52.30419922 C26.34474225 47.86304379 23.78068702 43.42449332 21.21679688 38.98583984 C18.74141285 34.69834777 16.27001086 30.40856692 13.79882812 26.11865234 C12.00000144 23.0000025 10.19550741 19.88467938 8.390625 16.76953125 C7.28104096 14.84647477 6.17165566 12.92330359 5.0625 11 C4.54792236 10.11530029 4.03334473 9.23060059 3.50317383 8.3190918 C3.03935303 7.5125415 2.57553223 6.70599121 2.09765625 5.875 C1.48676147 4.81925781 1.48676147 4.81925781 0.86352539 3.7421875 C0 2 0 2 0 0 Z " fill="#34495D" transform="translate(49,0)"/>
<path d="M0 0 C0.66 0 1.32 0 2 0 C2.38671875 0.79664062 2.7734375 1.59328125 3.171875 2.4140625 C5.84722356 7.85746971 8.52348859 13.03355513 12 18 C13.04551297 19.97485783 13.97962105 21.95341953 14.875 24 C15.9523593 26.16005202 15.9523593 26.16005202 18.125 27.9375 C20 30 20 30 20.25 32.75 C20.1675 33.4925 20.085 34.235 20 35 C16.93007388 31.34603707 14.47940059 27.59634269 12.109375 23.45703125 C11.75989807 22.84736008 11.41042114 22.2376889 11.050354 21.60954285 C10.31888752 20.33082887 9.58956562 19.05088592 8.86230469 17.76977539 C7.74536912 15.80435124 6.61925044 13.84439612 5.4921875 11.88476562 C4.78069674 10.63833648 4.06973995 9.39160236 3.359375 8.14453125 C2.71452148 7.01378174 2.06966797 5.88303223 1.40527344 4.71801758 C0 2 0 2 0 0 Z " fill="#255553" transform="translate(49,0)"/>
<path d="M0 0 C3 1 3 1 4.0625 2.875 C4.371875 3.57625 4.68125 4.2775 5 5 C5.99 6.485 5.99 6.485 7 8 C7.67210325 9.33060116 8.33833173 10.66417916 9 12 C10.28282773 14.23395857 11.57632782 16.46109346 12.87890625 18.68359375 C14.06186667 21.12782904 14.58040643 23.32685897 15 26 C12.42651653 23.65825879 10.80587715 21.19697334 9.08203125 18.18359375 C8.55029297 17.25482422 8.01855469 16.32605469 7.47070312 15.36914062 C6.92349609 14.40169922 6.37628906 13.43425781 5.8125 12.4375 C4.97428711 10.98053711 4.97428711 10.98053711 4.11914062 9.49414062 C0 2.25672505 0 2.25672505 0 0 Z " fill="#285455" transform="translate(72,40)"/>
<path d="M0 0 C0.33 0.66 0.66 1.32 1 2 C0.04370117 4.07543945 0.04370117 4.07543945 -1.45703125 6.61328125 C-1.99263672 7.53173828 -2.52824219 8.45019531 -3.08007812 9.39648438 C-3.93762695 10.83991211 -3.93762695 10.83991211 -4.8125 12.3125 C-5.92611553 14.20269897 -7.0368914 16.0945744 -8.14453125 17.98828125 C-8.64315674 18.82915283 -9.14178223 19.67002441 -9.65551758 20.53637695 C-10.98406101 22.97079346 -12.02550333 25.40607232 -13 28 C-13.66 28 -14.32 28 -15 28 C-13.73735777 23.84979622 -12.19097854 20.31829756 -9.9609375 16.6015625 C-9.38085938 15.62832031 -8.80078125 14.65507813 -8.203125 13.65234375 C-7.59984375 12.65332031 -6.9965625 11.65429688 -6.375 10.625 C-5.45847656 9.09166016 -5.45847656 9.09166016 -4.5234375 7.52734375 C-3.02077463 5.01507927 -1.51284285 2.50614279 0 0 Z " fill="#4EA98E" transform="translate(144,84)"/>
<path d="M0 0 C0.66 0 1.32 0 2 0 C1.37667446 3.30214128 0.18136077 5.45472407 -1.75 8.1875 C-4.43551952 12.08021219 -6.73836281 16.0576566 -8.921875 20.25 C-10 22 -10 22 -12 23 C-10.2010497 17.92365174 -7.50973545 13.36286389 -4.875 8.6875 C-4.40707031 7.85154297 -3.93914062 7.01558594 -3.45703125 6.15429688 C-2.3073741 4.10133767 -1.15496198 2.04997798 0 0 Z " fill="#4CAB8B" transform="translate(191,2)"/>
<path d="M0 0 C0.33 0.66 0.66 1.32 1 2 C0.19555664 3.78759766 0.19555664 3.78759766 -1.08984375 5.9140625 C-1.54423828 6.67460938 -1.99863281 7.43515625 -2.46679688 8.21875 C-2.95212891 9.0128125 -3.43746094 9.806875 -3.9375 10.625 C-4.41896484 11.42679688 -4.90042969 12.22859375 -5.39648438 13.0546875 C-6.59056765 15.04088542 -7.79195201 17.02227542 -9 19 C-9.33 18.34 -9.66 17.68 -10 17 C-9.29296875 14.94140625 -9.29296875 14.94140625 -8.1875 12.5625 C-7.83042969 11.78003906 -7.47335938 10.99757813 -7.10546875 10.19140625 C-6 8 -6 8 -4 5 C-3.34 5 -2.68 5 -2 5 C-1.855625 4.360625 -1.71125 3.72125 -1.5625 3.0625 C-1 1 -1 1 0 0 Z " fill="#245354" transform="translate(161,52)"/>
<path d="M0 0 C3.6739599 3.37607126 6.05406554 6.39120786 8 11 C8 11.66 8 12.32 8 13 C8.99 13 9.98 13 11 13 C11 14.98 11 16.96 11 19 C8.03073619 15.44608026 5.57681464 11.81482005 3.25 7.8125 C2.63640625 6.76707031 2.0228125 5.72164063 1.390625 4.64453125 C0 2 0 2 0 0 Z " fill="#285155" transform="translate(99,87)"/>
<path d="M0 0 C2.9552728 2.61778794 4.75832727 5.67583335 6.75 9.0625 C7.38421875 10.12597656 8.0184375 11.18945312 8.671875 12.28515625 C9.11015625 13.18105469 9.5484375 14.07695313 10 15 C9.67 15.66 9.34 16.32 9 17 C4.0037204 12.83643366 1.95046258 8.15648802 0 2 C0 1.34 0 0.68 0 0 Z " fill="#4FAA8A" transform="translate(70,39)"/>
<path d="M0 0 C0.99 0 1.98 0 3 0 C1.68139111 4.61513112 -0.21355437 8.09897612 -3 12 C-3.66 11.67 -4.32 11.34 -5 11 C-4.38722388 8.03824877 -3.74627478 6.61941217 -2 4 C-1.31822584 2.67432801 -0.64808564 1.34246312 0 0 Z " fill="#5EB991" transform="translate(158,138)"/>
<path d="M0 0 C0.66 0 1.32 0 2 0 C1.44408293 5.97610855 -0.85555065 8.85555065 -5 13 C-4.48474397 7.71862571 -2.74522883 4.42778844 0 0 Z " fill="#4CAC8A" transform="translate(164,49)"/>
<path d="M0 0 C0.66 0.66 1.32 1.32 2 2 C1.85140295 7.05229955 -1.27350411 10.94546921 -4 15 C-4.625 13.1875 -4.625 13.1875 -5 11 C-4.34 10.01 -3.68 9.02 -3 8 C-2.67 7.34 -2.34 6.68 -2 6 C-1.67 6 -1.34 6 -1 6 C-0.67 4.02 -0.34 2.04 0 0 Z " fill="#2A5257" transform="translate(136,91)"/>
<path d="M0 0 C0.99 0 1.98 0 3 0 C4.32 2.64 5.64 5.28 7 8 C3 7 3 7 2 6 C1.67 5.34 1.34 4.68 1 4 C0.34 4 -0.32 4 -1 4 C-0.67 2.68 -0.34 1.36 0 0 Z " fill="#425365" transform="translate(109,32)"/>
<path d="M0 0 C-0.66 2.31 -1.32 4.62 -2 7 C-6 2.25 -6 2.25 -6 0 C-2.25 -1.125 -2.25 -1.125 0 0 Z " fill="#55B88D" transform="translate(31,43)"/>
<path d="M0 0 C1 3 1 3 0.00390625 5.04296875 C-0.47175781 5.75066406 -0.94742188 6.45835938 -1.4375 7.1875 C-1.91058594 7.90292969 -2.38367188 8.61835937 -2.87109375 9.35546875 C-3.24363281 9.89816406 -3.61617187 10.44085938 -4 11 C-5.27351308 8.45297384 -4.80191925 7.5717055 -4.0625 4.875 C-3.86785156 4.15054688 -3.67320312 3.42609375 -3.47265625 2.6796875 C-3.31667969 2.12539062 -3.16070312 1.57109375 -3 1 C-2.34 1.33 -1.68 1.66 -1 2 C-0.67 1.34 -0.34 0.68 0 0 Z " fill="#255253" transform="translate(144,81)"/>
<path d="M0 0 C0.66 0 1.32 0 2 0 C0.8141763 3.37503669 -0.27573689 5.64722731 -3 8 C-3.33 6.35 -3.66 4.7 -4 3 C-2.68 2.67 -1.36 2.34 0 2 C0 1.34 0 0.68 0 0 Z " fill="#5DB891" transform="translate(128,192)"/>
<path d="M0 0 C2.475 0.99 2.475 0.99 5 2 C5 3.65 5 5.3 5 7 C5.66 7.33 6.32 7.66 7 8 C6.34 8.66 5.68 9.32 5 10 C3.35 6.7 1.7 3.4 0 0 Z " fill="#62BC97" transform="translate(69,120)"/>
<path d="M0 0 C1.485 0.99 1.485 0.99 3 2 C1.92598892 4.91517292 1.22189824 6.77810176 -1 9 C-0.67 6.03 -0.34 3.06 0 0 Z " fill="#5EB991" transform="translate(194,74)"/>
<path d="M0 0 C0.99 0 1.98 0 3 0 C2.35455571 3.48539917 0.89865603 6.02819057 -1 9 C-2.60031344 5.79937313 -1.03173691 3.27728194 0 0 Z " fill="#285254" transform="translate(179,17)"/>
<path d="M0 0 C0.66 0.33 1.32 0.66 2 1 C1.39816251 3.02045442 0.72693904 5.02111039 0 7 C-0.99 7.495 -0.99 7.495 -2 8 C-1.125 1.125 -1.125 1.125 0 0 Z " fill="#5CB891" transform="translate(167,123)"/>
<path d="M0 0 C0.99 0 1.98 0 3 0 C3 0.66 3 1.32 3 2 C2.34 2 1.68 2 1 2 C0.896875 2.639375 0.79375 3.27875 0.6875 3.9375 C0.460625 4.618125 0.23375 5.29875 0 6 C-0.99 6.33 -1.98 6.66 -3 7 C-1.125 2.25 -1.125 2.25 0 0 Z " fill="#475869" transform="translate(125,39)"/>
</svg>
