<svg width="43" height="48" viewBox="0 0 43 48" fill="none" xmlns="http://www.w3.org/2000/svg">
<path d="M21.2118 0L-0.000178784 12V36L21.2118 48L42.4238 36V12L21.2118 0Z" fill="white"/>
<path d="M3.78961 35.172L20.5136 44.632V37.264L10.0936 31.532L3.78961 35.172ZM2.64561 34.136V14.352L8.76561 17.884V30.6L2.64561 34.136ZM38.7056 35.172L21.9816 44.632V37.264L32.4016 31.532L38.7056 35.172V35.172ZM39.8496 34.136V14.352L33.7296 17.884V30.6L39.8496 34.136V34.136ZM39.1336 13.072L21.9816 3.36798V10.492L32.9696 16.536L33.0536 16.584L39.1336 13.072V13.072ZM3.3616 13.072L20.5136 3.36798V10.492L9.52561 16.536L9.44161 16.584L3.3616 13.072V13.072Z" fill="#8ED6FB"/>
<path d="M21.9798 35.588L32.2598 29.936V18.736L21.9798 24.672V35.588ZM20.5118 35.588L10.2318 29.936V18.736L20.5118 24.672V35.588ZM31.5638 17.44L21.2438 11.764L10.9238 17.44L21.2438 23.4L31.5638 17.44" fill="#1C78C0"/>
</svg>
