<svg width="49" height="49" viewBox="0 0 49 49" fill="none" xmlns="http://www.w3.org/2000/svg">
<path d="M3.78516 24.243C3.78516 32.4754 8.56918 39.5891 15.5064 42.9608L5.58575 15.779C4.39649 18.4421 3.78291 21.3264 3.78516 24.243V24.243ZM38.6224 23.1935C38.6224 20.6232 37.6991 18.8432 36.9073 17.4577C35.853 15.7446 34.8653 14.2938 34.8653 12.5807C34.8653 10.6689 36.3148 8.8893 38.3572 8.8893C38.4494 8.8893 38.5369 8.90077 38.6271 8.90592C34.9266 5.51607 29.997 3.44638 24.5825 3.44638C17.3169 3.44638 10.9246 7.17419 7.20588 12.8205C7.69382 12.8352 8.15406 12.845 8.54425 12.845C10.7196 12.845 14.0869 12.5811 14.0869 12.5811C15.208 12.515 15.3402 14.1617 14.2207 14.2942C14.2207 14.2942 13.0936 14.4268 11.8399 14.4925L19.4135 37.0196L23.9652 23.3696L20.7245 14.4921C19.6046 14.4264 18.5436 14.2938 18.5436 14.2938C17.4229 14.2281 17.5543 12.5146 18.675 12.5807C18.675 12.5807 22.1096 12.8447 24.1532 12.8447C26.3281 12.8447 29.6958 12.5807 29.6958 12.5807C30.8177 12.5146 30.9495 14.1613 29.8292 14.2938C29.8292 14.2938 28.7001 14.4264 27.4488 14.4921L34.9646 36.8487L37.0386 29.9166C37.9381 27.04 38.6224 24.9739 38.6224 23.1935V23.1935Z" fill="#fff"/>
<path d="M24.947 26.0622L18.707 44.1939C20.6147 44.7561 22.5933 45.0416 24.5821 45.0416C27.004 45.0416 29.3266 44.6225 31.4884 43.8627C31.4305 43.7719 31.3809 43.676 31.3404 43.5762L24.947 26.0622ZM42.831 14.265C42.9204 14.9275 42.9711 15.639 42.9711 16.4036C42.9711 18.514 42.5769 20.8864 41.3897 23.8528L35.037 42.22C41.2199 38.6145 45.3787 31.9159 45.3787 24.243C45.3843 20.7554 44.5078 17.323 42.831 14.265V14.265Z" fill="#fff"/>
<path d="M24.5813 0.000366211C11.2138 0.000366211 0.337891 10.8755 0.337891 24.243C0.337891 37.612 11.2135 48.4872 24.5813 48.4872C37.9485 48.4872 48.826 37.6124 48.826 24.243C48.8256 10.8755 37.9485 0.000366211 24.5813 0.000366211ZM24.5813 47.3756C11.8268 47.3756 1.44951 36.9983 1.44951 24.243C1.44951 11.4889 11.8264 1.11238 24.5813 1.11238C37.3355 1.11238 47.712 11.4889 47.712 24.243C47.712 36.9983 37.3351 47.3756 24.5813 47.3756Z" fill="#fff"/>
</svg>
