<svg width="28" height="32" viewBox="0 0 28 32" fill="none" xmlns="http://www.w3.org/2000/svg">
<path d="M16.8808 2.8324L15.4917 3.83182L13.9369 2.90337L2.78562 9.77327V17.1579L11.8825 22.3214L10.2168 23.2097L1 17.9351V9.05092L13.9366 1L16.8808 2.8324Z" fill="#0196F7" stroke="#0196F7"/>
<path d="M27.0823 8.60655V11.6796L25.2655 10.7165L25.1946 9.38396L18.4861 5.67422L7.33511 12.1882L7.26414 17.2682L5.47852 16.3799V11.5376L18.4859 3.62891L27.0823 8.60655Z" fill="#0196F7" stroke="#0196F7"/>
<path d="M16.2736 9.69143L17.8144 8.79102L27.0099 14.0445V23.0524L14.1409 31.001L11.1841 29.2545L12.7121 28.3124L14.07 29.0519L25.1141 22.2184V14.6665L16.2736 9.69143Z" fill="#0196F7" stroke="#0196F7"/>
<path d="M20.8643 14.6973L22.5299 15.6795V20.4629L9.41776 28.1933L1.00391 23.4955V20.2498L2.84034 21.2747V22.556L9.41752 26.2718L20.864 19.7807L20.8643 14.6973Z" fill="#0196F7" stroke="#0196F7"/>
</svg>
