<svg width="26" height="31" viewBox="0 0 26 31" fill="none" xmlns="http://www.w3.org/2000/svg">
<path d="M0 7.30993V22.3215L10.0032 28.0983V26.9153L1.02395 21.731V7.90192L12.6601 1.18397V0L0 7.30993Z" fill="#4C6FFF"/>
<path d="M22.6931 8.87701L13 3.28125L3.01196 9.04665V17.5839H4.03667V9.63915L13 4.46421L20.6429 8.87701H22.6931Z" fill="#4C6FFF"/>
<path d="M21.9636 12.1445V19.9925L12.9985 25.1675L5.37995 20.7678H3.33154L12.9983 26.3497L22.9863 20.583V12.1445H21.9636Z" fill="#4C6FFF"/>
<path d="M11.7877 22.3634L5.87646 18.9261V10.6971L12.4878 6.96514V3.87305H13.5133V7.56498L6.90244 11.2969V18.3359L10.764 20.5816V13.7646H11.7887L11.7877 22.3634Z" fill="#4C6FFF"/>
<path d="M15.7139 1.37305V2.55752L24.9748 7.90438V21.7327L13.6539 28.2886V22.3551L20.1234 18.943V10.7121L14.1909 6.94982V16.1745H15.2156V8.77388L19.0982 11.2882V18.3252L12.6287 21.7378V28.6793L12.6082 30.0778L26 22.3207V7.3124L15.7139 1.37305Z" fill="#4C6FFF"/>
</svg>
