<svg width="26" height="30" viewBox="0 0 26 30" fill="none" xmlns="http://www.w3.org/2000/svg">
<path d="M11.6201 0.582262C11.081 0.901501 10.6411 1.18527 10.6411 1.21365C10.6411 1.28459 12.2444 3.61148 12.3012 3.63276C12.3437 3.64695 13.8477 0.482943 13.8193 0.447472C13.6349 0.284306 12.9964 -0.00655603 12.819 0.000538165C12.6701 0.000538165 12.2586 0.199176 11.6201 0.582262Z" fill="#13C49F"/>
<path d="M13.9815 1.14395C13.8679 1.38515 13.5203 2.14423 13.2011 2.82527C12.889 3.49922 12.6265 4.08094 12.6265 4.10932C12.6265 4.15898 14.7263 7.24495 16.4928 9.80596C16.5708 9.91947 16.7837 9.56476 18.1883 6.98956C19.068 5.37209 19.7916 4.02419 19.7916 3.98872C19.7916 3.93906 14.4639 0.789239 14.251 0.718297C14.2156 0.704108 14.095 0.895651 13.9815 1.14395Z" fill="#13C49F"/>
<path d="M5.10782 4.38538L0.035471 7.35076L0.0141884 8.05308L0 8.75541L2.561 11.8769C3.96565 13.5936 5.39868 15.3317 5.73211 15.729L6.33511 16.4668L6.69692 15.6935C6.90265 15.275 8.19379 12.5082 9.57716 9.55705C10.9605 6.59877 12.1098 4.17965 12.1311 4.17965C12.1524 4.17965 12.2162 4.26478 12.28 4.3641L12.3936 4.54855L12.4787 4.33573C12.5567 4.15128 12.5496 4.09452 12.4432 3.93136L12.3226 3.73981L12.2162 3.93845L12.1169 4.12999L11.9821 3.95973C11.9112 3.86751 11.4926 3.25741 11.0528 2.60474C10.6129 1.95208 10.2369 1.42001 10.2156 1.42001C10.1944 1.42001 7.89584 2.75372 5.10782 4.38538Z" fill="#13C49F"/>
<path d="M19.0618 6.25609C18.4446 7.39826 17.6997 8.76744 17.4088 9.3066L16.8697 10.2927L16.7136 10.1437L16.5504 9.99473L16.4724 10.1721C16.4015 10.3211 16.4086 10.3849 16.5079 10.5339L16.6214 10.7183L16.7278 10.5268C16.7775 10.4204 16.8555 10.3636 16.8839 10.392C16.9193 10.4275 18.3524 12.5132 20.0763 15.0316C21.8001 17.55 23.2545 19.6499 23.297 19.6996C23.368 19.7705 23.6234 19.352 24.5314 17.6777L25.6807 15.5708L25.6665 11.4632L25.6452 7.3486L22.9281 5.7595C21.4312 4.89401 20.204 4.17749 20.1969 4.17749C20.1898 4.18459 19.679 5.11393 19.0618 6.25609Z" fill="#13C49F"/>
<path d="M9.50622 10.7068C7.93131 14.0624 6.62598 16.8078 6.60469 16.8078C6.58341 16.8078 6.51956 16.7369 6.46281 16.6518L6.37059 16.4957L6.26417 16.6872C6.21451 16.7936 6.15776 16.8788 6.13648 16.8788C6.12229 16.8788 4.75311 15.2187 3.08597 13.1898C1.42593 11.1609 0.0496594 9.50082 0.035471 9.50082C0.0141884 9.50082 0 12.3952 0 15.9352L0.00709419 22.3768L1.35499 23.1571C2.09988 23.5828 2.73836 23.9375 2.77383 23.9375C2.8093 23.9375 3.56838 22.3768 4.46225 20.4755C5.35612 18.5743 6.1081 16.9923 6.12938 16.971C6.15776 16.9426 6.2287 16.9994 6.29255 17.0845L6.40606 17.2548L6.50538 17.0632C6.56213 16.9568 6.62598 16.8859 6.65435 16.9072C6.68273 16.9213 7.51985 17.9287 8.51303 19.1418C9.88221 20.809 10.3433 21.3197 10.4001 21.2559C10.5136 21.1282 16.3166 10.4443 16.3166 10.3592C16.3166 10.2883 12.6206 4.86831 12.4574 4.69095C12.3865 4.62001 11.8047 5.79765 9.50622 10.7068Z" fill="#13C49F"/>
<path d="M15.5208 12.7767C14.9178 13.8834 13.5841 16.3309 12.5554 18.225C11.5268 20.1192 10.6754 21.6799 10.6542 21.7012C10.64 21.7225 10.569 21.6657 10.5052 21.5806L10.3775 21.4245L10.2427 21.5948L10.1079 21.765L8.29889 19.5374C7.30571 18.3101 6.47569 17.3099 6.4544 17.3099C6.41184 17.3028 3.17689 24.1912 3.20526 24.2196C3.26911 24.2835 7.39084 26.6671 7.4334 26.6671C7.46178 26.6671 8.07188 25.5817 8.78839 24.2551C9.50491 22.9285 10.115 21.8431 10.1434 21.8431C10.1718 21.8431 10.2356 21.8927 10.2853 21.9495C10.4059 22.0914 10.4768 22.0843 10.5336 21.9069C10.5619 21.8289 10.6116 21.7721 10.64 21.7863C10.6754 21.8005 11.8602 23.2122 13.2648 24.929C14.6766 26.6458 15.8684 28.0434 15.911 28.0292C15.9606 28.015 16.9538 27.4475 18.1314 26.7593L20.2597 25.5178L21.6644 22.9356C22.4376 21.5167 23.0974 20.332 23.1258 20.3178C23.1612 20.2965 23.2322 20.3462 23.296 20.4313L23.3953 20.5803L23.4947 20.4313C23.5443 20.3533 23.6082 20.2823 23.6365 20.2823C23.6649 20.2823 24.0267 20.786 24.4453 21.3961C24.8638 22.0133 25.2185 22.5312 25.2256 22.5454C25.2398 22.5596 25.3462 22.5312 25.4668 22.4815L25.6797 22.3964V19.4381V16.4869L25.5094 16.7849C25.4101 16.9552 24.9632 17.7781 24.502 18.6152C24.048 19.4523 23.6507 20.1404 23.6153 20.1404C23.5869 20.1404 23.5159 20.0766 23.4521 19.9915C23.3528 19.8425 23.3528 19.8425 23.2464 20.034L23.147 20.2327L22.8278 19.7786C22.6504 19.5303 21.2032 17.4234 19.6141 15.1036C18.025 12.7838 16.7055 10.8541 16.67 10.8258C16.6417 10.7903 16.1238 11.67 15.5208 12.7767Z" fill="#13C49F"/>
<path d="M22.1906 22.8513C21.545 24.036 21.0271 25.015 21.0413 25.0292C21.0484 25.0363 21.9281 24.5468 22.9851 23.9367L24.9005 22.8158L24.7799 22.6314C24.184 21.7304 23.4604 20.7089 23.4179 20.7089C23.3895 20.7089 22.8361 21.6737 22.1906 22.8513Z" fill="#13C49F"/>
<path d="M9.26632 24.2704C8.64203 25.4126 8.06031 26.4767 7.97518 26.6328L7.81201 26.9165L10.2098 28.3141C11.9621 29.3357 12.6715 29.7188 12.8347 29.7188C12.9908 29.7188 13.4377 29.5059 14.2606 29.0235C14.9204 28.6475 15.4525 28.3141 15.4454 28.2857C15.417 28.1935 10.4865 22.1989 10.4369 22.1989C10.4085 22.1989 9.88352 23.1353 9.26632 24.2704Z" fill="#13C49F"/>
</svg>
