<svg width="42" height="31" viewBox="0 0 42 31" fill="none" xmlns="http://www.w3.org/2000/svg">
<path d="M4.88214 9.86719H17.2708C17.2326 9.95025 17.2107 10.0114 17.178 10.0672C13.9475 15.6419 16.7211 22.5105 22.8466 24.6209C27.5329 26.235 32.7207 24.4482 35.3414 20.351C35.4288 20.2155 35.5086 20.0756 35.631 19.8735H29.0869V14.9862H42.0002C41.963 15.5774 41.9543 16.1577 41.8865 16.7304C41.0898 23.4165 35.8944 28.7989 29.0935 29.8349C22.4335 30.8502 17.0118 28.5869 13.1387 22.9947C11.518 20.6538 10.7803 17.9861 10.777 15.1326C10.777 14.7829 10.6634 14.6966 10.3366 14.7151C9.01863 14.7916 7.80555 14.4758 6.75749 13.654C5.62638 12.7676 4.9641 11.6136 4.86793 10.1612C4.86246 10.0716 4.87667 9.97975 4.88214 9.86719Z" fill="#FFD778"/>
<path d="M41.0749 10.0235C39.2564 10.0235 37.4794 10.0268 35.7035 10.0137C35.5975 10.0137 35.4554 9.90114 35.3909 9.80169C33.7954 7.35258 31.5703 5.79416 28.7256 5.1603C27.9343 4.98435 27.1059 4.90894 26.295 4.90566C19.2439 4.8838 12.1927 4.89145 5.14154 4.88599C2.98531 4.8849 1.11433 3.68384 0.355883 1.78007C0.173375 1.32216 0.120917 0.811789 0.0138159 0.324371C-0.0342702 0.106891 0.0400452 -0.0166024 0.28594 0.0129049C0.343862 0.0194621 0.402875 0.0129049 0.460797 0.0129049C9.10208 0.00962631 17.7434 -0.0144167 26.3846 0.0129049C31.096 0.0271121 35.0696 1.79318 38.2488 5.28598C39.44 6.59523 40.3351 8.09573 40.9853 9.74159C41.0148 9.8159 41.0345 9.89349 41.0749 10.0225V10.0235Z" fill="#BC7F23"/>
</svg>
