<svg width="43" height="30" viewBox="0 0 43 30" fill="none" xmlns="http://www.w3.org/2000/svg">
<path d="M0 23.008V0.419922C4.08737 0.419922 5.91593 3.64679 5.91593 6.06695V18.9744V21.9324C5.91593 24.2988 8.24645 24.8904 9.41171 24.8904H27.9662C30.3326 24.8904 32.3583 28.2965 33.0754 29.9996H7.79827C2.8504 29.9996 0 26.2349 0 23.008Z" fill="#DE7310"/>
<path d="M16.4045 8.75673V21.6642C12.9625 21.6642 11.3849 18.6165 11.0264 17.0926V0.151742C15.3741 -0.723095 19.2728 2.39259 20.707 4.18522L26.8918 12.2524C27.34 11.625 29.1506 9.24076 32.8077 4.72314C36.4649 0.205524 40.9646 -0.206799 42.7573 0.151742V25.4289C42.7573 29.1934 38.5444 30.0003 37.1102 29.7314V8.75673L26.354 21.6642L16.4045 8.75673Z" fill="#B2265D"/>
</svg>
